<?xml version="1.0" encoding="utf-8" ?>
<svg baseProfile="basic" height="133.17814692982745cm" version="1.1" viewBox="0,0,1932.2127089449273,799.0688815789647" width="322.03545149082123cm" xmlns="http://www.w3.org/2000/svg" xmlns:ev="http://www.w3.org/2001/xml-events" xmlns:xlink="http://www.w3.org/1999/xlink"><defs /><polygon fill="#E0E011" points="452.9422863405995,464.0 452.9422863405995,479.0 439.9519052838329,486.5 426.9615242270663,479.0 426.9615242270663,464.0 439.9519052838329,456.5" stroke="black" stroke-width="1" /><polygon fill="#E0E011" points="452.9422863405995,509.0 452.9422863405995,524.0 439.9519052838329,531.5 426.9615242270663,524.0 426.9615242270663,509.0 439.9519052838329,501.5" stroke="black" stroke-width="1" /><polygon fill="#E0E011" points="452.9422863405995,554.0 452.9422863405995,569.0 439.9519052838329,576.5 426.9615242270663,569.0 426.9615242270663,554.0 439.9519052838329,546.5" stroke="black" stroke-width="1" /><polygon fill="#E0E011" points="452.9422863405995,599.0 452.9422863405995,614.0 439.9519052838329,621.5 426.9615242270663,614.0 426.9615242270663,599.0 439.9519052838329,591.5" stroke="black" stroke-width="1" /><polygon fill="#E0E011" points="452.9422863405995,644.0 452.9422863405995,659.0 439.9519052838329,666.5 426.9615242270663,659.0 426.9615242270663,644.0 439.9519052838329,636.5" stroke="black" stroke-width="1" /><polygon fill="#E0E011" points="452.9422863405995,689.0 452.9422863405995,704.0 439.9519052838329,711.5 426.9615242270663,704.0 426.9615242270663,689.0 439.9519052838329,681.5" stroke="black" stroke-width="1" /><polygon fill="#E0E011" points="465.93266739736606,486.5 465.93266739736606,501.5 452.9422863405995,509.0 439.9519052838329,501.5 439.9519052838329,486.5 452.9422863405995,479.0" stroke="black" stroke-width="1" /><polygon fill="#E0E011" points="465.93266739736606,531.5 465.93266739736606,546.5 452.9422863405995,554.0 439.9519052838329,546.5 439.9519052838329,531.5 452.9422863405995,524.0" stroke="black" stroke-width="1" /><polygon fill="#E0E011" points="465.93266739736606,576.5 465.93266739736606,591.5 452.9422863405995,599.0 439.9519052838329,591.5 439.9519052838329,576.5 452.9422863405995,569.0" stroke="black" stroke-width="1" /><polygon fill="#E0E011" points="465.93266739736606,621.5 465.93266739736606,636.5 452.9422863405995,644.0 439.9519052838329,636.5 439.9519052838329,621.5 452.9422863405995,614.0" stroke="black" stroke-width="1" /><polygon fill="#E0E011" points="465.93266739736606,666.5 465.93266739736606,681.5 452.9422863405995,689.0 439.9519052838329,681.5 439.9519052838329,666.5 452.9422863405995,659.0" stroke="black" stroke-width="1" /><polygon fill="#E0E011" points="465.93266739736606,711.5 465.93266739736606,726.5 452.9422863405995,734.0 439.9519052838329,726.5 439.9519052838329,711.5 452.9422863405995,704.0" stroke="black" stroke-width="1" /><polygon fill="#E0E011" points="478.92304845413264,464.0 478.92304845413264,479.0 465.93266739736606,486.5 452.9422863405995,479.0 452.9422863405995,464.0 465.93266739736606,456.5" stroke="black" stroke-width="1" /><polygon fill="#E0E011" points="478.92304845413264,509.0 478.92304845413264,524.0 465.93266739736606,531.5 452.9422863405995,524.0 452.9422863405995,509.0 465.93266739736606,501.5" stroke="black" stroke-width="1" /><polygon fill="#E0E011" points="478.92304845413264,554.0 478.92304845413264,569.0 465.93266739736606,576.5 452.9422863405995,569.0 452.9422863405995,554.0 465.93266739736606,546.5" stroke="black" stroke-width="1" /><polygon fill="#E0E011" points="478.92304845413264,599.0 478.92304845413264,614.0 465.93266739736606,621.5 452.9422863405995,614.0 452.9422863405995,599.0 465.93266739736606,591.5" stroke="black" stroke-width="1" /><polygon fill="#E0E011" points="478.92304845413264,644.0 478.92304845413264,659.0 465.93266739736606,666.5 452.9422863405995,659.0 452.9422863405995,644.0 465.93266739736606,636.5" stroke="black" stroke-width="1" /><polygon fill="#E0E011" points="478.92304845413264,689.0 478.92304845413264,704.0 465.93266739736606,711.5 452.9422863405995,704.0 452.9422863405995,689.0 465.93266739736606,681.5" stroke="black" stroke-width="1" /><polygon fill="#E0E011" points="491.9134295108992,441.5 491.9134295108992,456.5 478.92304845413264,464.0 465.93266739736606,456.5 465.93266739736606,441.5 478.92304845413264,434.0" stroke="black" stroke-width="1" /><polygon fill="#E0E011" points="491.9134295108992,486.5 491.9134295108992,501.5 478.92304845413264,509.0 465.93266739736606,501.5 465.93266739736606,486.5 478.92304845413264,479.0" stroke="black" stroke-width="1" /><polygon fill="#E0E011" points="491.9134295108992,531.5 491.9134295108992,546.5 478.92304845413264,554.0 465.93266739736606,546.5 465.93266739736606,531.5 478.92304845413264,524.0" stroke="black" stroke-width="1" /><polygon fill="#E0E011" points="491.9134295108992,576.5 491.9134295108992,591.5 478.92304845413264,599.0 465.93266739736606,591.5 465.93266739736606,576.5 478.92304845413264,569.0" stroke="black" stroke-width="1" /><polygon fill="#E0E011" points="491.9134295108992,621.5 491.9134295108992,636.5 478.92304845413264,644.0 465.93266739736606,636.5 465.93266739736606,621.5 478.92304845413264,614.0" stroke="black" stroke-width="1" /><polygon fill="#E0E011" points="491.9134295108992,666.5 491.9134295108992,681.5 478.92304845413264,689.0 465.93266739736606,681.5 465.93266739736606,666.5 478.92304845413264,659.0" stroke="black" stroke-width="1" /><polygon fill="#E0E011" points="491.9134295108992,711.5 491.9134295108992,726.5 478.92304845413264,734.0 465.93266739736606,726.5 465.93266739736606,711.5 478.92304845413264,704.0" stroke="black" stroke-width="1" /><polygon fill="#E0E011" points="504.9038105676658,464.0 504.9038105676658,479.0 491.9134295108992,486.5 478.92304845413264,479.0 478.92304845413264,464.0 491.9134295108992,456.5" stroke="black" stroke-width="1" /><polygon fill="#E0E011" points="504.9038105676658,509.0 504.9038105676658,524.0 491.9134295108992,531.5 478.92304845413264,524.0 478.92304845413264,509.0 491.9134295108992,501.5" stroke="black" stroke-width="1" /><polygon fill="#E0E011" points="504.9038105676658,554.0 504.9038105676658,569.0 491.9134295108992,576.5 478.92304845413264,569.0 478.92304845413264,554.0 491.9134295108992,546.5" stroke="black" stroke-width="1" /><polygon fill="#E0E011" points="504.9038105676658,599.0 504.9038105676658,614.0 491.9134295108992,621.5 478.92304845413264,614.0 478.92304845413264,599.0 491.9134295108992,591.5" stroke="black" stroke-width="1" /><polygon fill="#E0E011" points="504.9038105676658,644.0 504.9038105676658,659.0 491.9134295108992,666.5 478.92304845413264,659.0 478.92304845413264,644.0 491.9134295108992,636.5" stroke="black" stroke-width="1" /><polygon fill="#E0E011" points="504.9038105676658,689.0 504.9038105676658,704.0 491.9134295108992,711.5 478.92304845413264,704.0 478.92304845413264,689.0 491.9134295108992,681.5" stroke="black" stroke-width="1" /><polygon fill="#E0E011" points="517.8941916244323,441.5 517.8941916244323,456.5 504.9038105676658,464.0 491.91342951089916,456.5 491.91342951089916,441.5 504.9038105676658,434.0" stroke="black" stroke-width="1" /><polygon fill="#E0E011" points="517.8941916244323,486.5 517.8941916244323,501.5 504.9038105676658,509.0 491.91342951089916,501.5 491.91342951089916,486.5 504.9038105676658,479.0" stroke="black" stroke-width="1" /><polygon fill="#E0E011" points="517.8941916244323,531.5 517.8941916244323,546.5 504.9038105676658,554.0 491.91342951089916,546.5 491.91342951089916,531.5 504.9038105676658,524.0" stroke="black" stroke-width="1" /><polygon fill="#E0E011" points="517.8941916244323,576.5 517.8941916244323,591.5 504.9038105676658,599.0 491.91342951089916,591.5 491.91342951089916,576.5 504.9038105676658,569.0" stroke="black" stroke-width="1" /><polygon fill="#E0E011" points="517.8941916244323,621.5 517.8941916244323,636.5 504.9038105676658,644.0 491.91342951089916,636.5 491.91342951089916,621.5 504.9038105676658,614.0" stroke="black" stroke-width="1" /><polygon fill="#E0E011" points="517.8941916244323,666.5 517.8941916244323,681.5 504.9038105676658,689.0 491.91342951089916,681.5 491.91342951089916,666.5 504.9038105676658,659.0" stroke="black" stroke-width="1" /><polygon fill="#E0E011" points="517.8941916244323,711.5 517.8941916244323,726.5 504.9038105676658,734.0 491.91342951089916,726.5 491.91342951089916,711.5 504.9038105676658,704.0" stroke="black" stroke-width="1" /><polygon fill="#E0E011" points="530.884572681199,464.0 530.884572681199,479.0 517.8941916244323,486.5 504.9038105676658,479.0 504.9038105676658,464.0 517.8941916244323,456.5" stroke="black" stroke-width="1" /><polygon fill="#E0E011" points="530.884572681199,509.0 530.884572681199,524.0 517.8941916244323,531.5 504.9038105676658,524.0 504.9038105676658,509.0 517.8941916244323,501.5" stroke="black" stroke-width="1" /><polygon fill="#E0E011" points="530.884572681199,554.0 530.884572681199,569.0 517.8941916244323,576.5 504.9038105676658,569.0 504.9038105676658,554.0 517.8941916244323,546.5" stroke="black" stroke-width="1" /><polygon fill="#E0E011" points="530.884572681199,599.0 530.884572681199,614.0 517.8941916244323,621.5 504.9038105676658,614.0 504.9038105676658,599.0 517.8941916244323,591.5" stroke="black" stroke-width="1" /><polygon fill="#E0E011" points="530.884572681199,644.0 530.884572681199,659.0 517.8941916244323,666.5 504.9038105676658,659.0 504.9038105676658,644.0 517.8941916244323,636.5" stroke="black" stroke-width="1" /><polygon fill="#E0E011" points="530.884572681199,689.0 530.884572681199,704.0 517.8941916244323,711.5 504.9038105676658,704.0 504.9038105676658,689.0 517.8941916244323,681.5" stroke="black" stroke-width="1" /><polygon fill="#E0E011" points="543.8749537379655,486.5 543.8749537379655,501.5 530.884572681199,509.0 517.8941916244323,501.5 517.8941916244323,486.5 530.884572681199,479.0" stroke="black" stroke-width="1" /><polygon fill="#E0E011" points="543.8749537379655,531.5 543.8749537379655,546.5 530.884572681199,554.0 517.8941916244323,546.5 517.8941916244323,531.5 530.884572681199,524.0" stroke="black" stroke-width="1" /><polygon fill="#E0E011" points="543.8749537379655,576.5 543.8749537379655,591.5 530.884572681199,599.0 517.8941916244323,591.5 517.8941916244323,576.5 530.884572681199,569.0" stroke="black" stroke-width="1" /><polygon fill="#E0E011" points="543.8749537379655,621.5 543.8749537379655,636.5 530.884572681199,644.0 517.8941916244323,636.5 517.8941916244323,621.5 530.884572681199,614.0" stroke="black" stroke-width="1" /><polygon fill="#E0E011" points="543.8749537379655,666.5 543.8749537379655,681.5 530.884572681199,689.0 517.8941916244323,681.5 517.8941916244323,666.5 530.884572681199,659.0" stroke="black" stroke-width="1" /><polygon fill="#E0E011" points="543.8749537379655,711.5 543.8749537379655,726.5 530.884572681199,734.0 517.8941916244323,726.5 517.8941916244323,711.5 530.884572681199,704.0" stroke="black" stroke-width="1" /><polygon fill="#E0E011" points="556.8653347947321,509.0 556.8653347947321,524.0 543.8749537379655,531.5 530.884572681199,524.0 530.884572681199,509.0 543.8749537379655,501.5" stroke="black" stroke-width="1" /><polygon fill="#E0E011" points="556.8653347947321,554.0 556.8653347947321,569.0 543.8749537379655,576.5 530.884572681199,569.0 530.884572681199,554.0 543.8749537379655,546.5" stroke="black" stroke-width="1" /><polygon fill="#E0E011" points="556.8653347947321,599.0 556.8653347947321,614.0 543.8749537379655,621.5 530.884572681199,614.0 530.884572681199,599.0 543.8749537379655,591.5" stroke="black" stroke-width="1" /><polygon fill="#E0E011" points="556.8653347947321,644.0 556.8653347947321,659.0 543.8749537379655,666.5 530.884572681199,659.0 530.884572681199,644.0 543.8749537379655,636.5" stroke="black" stroke-width="1" /><polygon fill="#E0E011" points="556.8653347947321,689.0 556.8653347947321,704.0 543.8749537379655,711.5 530.884572681199,704.0 530.884572681199,689.0 543.8749537379655,681.5" stroke="black" stroke-width="1" /><polygon fill="#E0E011" points="569.8557158514986,531.5 569.8557158514986,546.5 556.8653347947321,554.0 543.8749537379655,546.5 543.8749537379655,531.5 556.8653347947321,524.0" stroke="black" stroke-width="1" /><polygon fill="#E0E011" points="569.8557158514986,576.5 569.8557158514986,591.5 556.8653347947321,599.0 543.8749537379655,591.5 543.8749537379655,576.5 556.8653347947321,569.0" stroke="black" stroke-width="1" /><polygon fill="#E0E011" points="569.8557158514986,621.5 569.8557158514986,636.5 556.8653347947321,644.0 543.8749537379655,636.5 543.8749537379655,621.5 556.8653347947321,614.0" stroke="black" stroke-width="1" /><polygon fill="#E0E011" points="569.8557158514986,666.5 569.8557158514986,681.5 556.8653347947321,689.0 543.8749537379655,681.5 543.8749537379655,666.5 556.8653347947321,659.0" stroke="black" stroke-width="1" /><polygon fill="#E0E011" points="569.8557158514986,711.5 569.8557158514986,726.5 556.8653347947321,734.0 543.8749537379655,726.5 543.8749537379655,711.5 556.8653347947321,704.0" stroke="black" stroke-width="1" /><polygon fill="#E0E011" points="582.8460969082653,554.0 582.8460969082653,569.0 569.8557158514986,576.5 556.8653347947321,569.0 556.8653347947321,554.0 569.8557158514986,546.5" stroke="black" stroke-width="1" /><polygon fill="#E0E011" points="582.8460969082653,599.0 582.8460969082653,614.0 569.8557158514986,621.5 556.8653347947321,614.0 556.8653347947321,599.0 569.8557158514986,591.5" stroke="black" stroke-width="1" /><polygon fill="#E0E011" points="582.8460969082653,644.0 582.8460969082653,659.0 569.8557158514986,666.5 556.8653347947321,659.0 556.8653347947321,644.0 569.8557158514986,636.5" stroke="black" stroke-width="1" /><polygon fill="#E0E011" points="582.8460969082653,689.0 582.8460969082653,704.0 569.8557158514986,711.5 556.8653347947321,704.0 556.8653347947321,689.0 569.8557158514986,681.5" stroke="black" stroke-width="1" /><polygon fill="#E0E011" points="595.8364779650318,576.5 595.8364779650318,591.5 582.8460969082653,599.0 569.8557158514986,591.5 569.8557158514986,576.5 582.8460969082653,569.0" stroke="black" stroke-width="1" /><polygon fill="#E0E011" points="595.8364779650318,621.5 595.8364779650318,636.5 582.8460969082653,644.0 569.8557158514986,636.5 569.8557158514986,621.5 582.8460969082653,614.0" stroke="black" stroke-width="1" /><polygon fill="#E0E011" points="595.8364779650318,666.5 595.8364779650318,681.5 582.8460969082653,689.0 569.8557158514986,681.5 569.8557158514986,666.5 582.8460969082653,659.0" stroke="black" stroke-width="1" /><polygon fill="#E0E011" points="595.8364779650318,711.5 595.8364779650318,726.5 582.8460969082653,734.0 569.8557158514986,726.5 569.8557158514986,711.5 582.8460969082653,704.0" stroke="black" stroke-width="1" /></svg>