<?xml version="1.0" encoding="utf-8" ?>
<svg baseProfile="basic" height="133.17814692982745cm" version="1.1" viewBox="0,0,3220.3545149082124,1331.7814692982745" width="322.03545149082123cm" xmlns="http://www.w3.org/2000/svg" xmlns:ev="http://www.w3.org/2001/xml-events" xmlns:xlink="http://www.w3.org/1999/xlink"><defs /><polygon fill="#FFFFFF" points="129.9038105676658,775.0 129.9038105676658,800.0 108.25317547305482,812.5 86.60254037844385,800.0 86.60254037844386,775.0 108.25317547305482,762.5" stroke="black" stroke-width="1" /><polygon fill="#FFFFFF" points="129.9038105676658,850.0 129.9038105676658,875.0 108.25317547305482,887.5 86.60254037844385,875.0 86.60254037844386,850.0 108.25317547305482,837.5" stroke="black" stroke-width="1" /><polygon fill="#FFFFFF" points="129.9038105676658,925.0 129.9038105676658,950.0 108.25317547305482,962.5 86.60254037844385,950.0 86.60254037844386,925.0 108.25317547305482,912.5" stroke="black" stroke-width="1" /><polygon fill="#FFFFFF" points="129.9038105676658,1000.0 129.9038105676658,1025.0 108.25317547305482,1037.5 86.60254037844385,1025.0 86.60254037844386,1000.0 108.25317547305482,987.5" stroke="black" stroke-width="1" /><polygon fill="#FFFFFF" points="129.9038105676658,1075.0 129.9038105676658,1100.0 108.25317547305482,1112.5 86.60254037844385,1100.0 86.60254037844386,1075.0 108.25317547305482,1062.5" stroke="black" stroke-width="1" /><polygon fill="#FFFFFF" points="129.9038105676658,1150.0 129.9038105676658,1175.0 108.25317547305482,1187.5 86.60254037844385,1175.0 86.60254037844386,1150.0 108.25317547305482,1137.5" stroke="black" stroke-width="1" /><polygon fill="#FFFFFF" points="151.55444566227678,812.5 151.55444566227678,837.5 129.9038105676658,850.0 108.25317547305482,837.5 108.25317547305484,812.5 129.9038105676658,800.0" stroke="black" stroke-width="1" /><polygon fill="#FFFFFF" points="151.55444566227678,887.5 151.55444566227678,912.5 129.9038105676658,925.0 108.25317547305482,912.5 108.25317547305484,887.5 129.9038105676658,875.0" stroke="black" stroke-width="1" /><polygon fill="#FFFFFF" points="151.55444566227678,962.5 151.55444566227678,987.5 129.9038105676658,1000.0 108.25317547305482,987.5 108.25317547305484,962.5 129.9038105676658,950.0" stroke="black" stroke-width="1" /><polygon fill="#FFFFFF" points="151.55444566227678,1037.5 151.55444566227678,1062.5 129.9038105676658,1075.0 108.25317547305482,1062.5 108.25317547305484,1037.5 129.9038105676658,1025.0" stroke="black" stroke-width="1" /><polygon fill="#FFFFFF" points="151.55444566227678,1112.5 151.55444566227678,1137.5 129.9038105676658,1150.0 108.25317547305482,1137.5 108.25317547305484,1112.5 129.9038105676658,1100.0" stroke="black" stroke-width="1" /><polygon fill="#FFFFFF" points="151.55444566227678,1187.5 151.55444566227678,1212.5 129.9038105676658,1225.0 108.25317547305482,1212.5 108.25317547305484,1187.5 129.9038105676658,1175.0" stroke="black" stroke-width="1" /><polygon fill="#FFFFFF" points="173.20508075688772,775.0 173.20508075688772,800.0 151.55444566227675,812.5 129.90381056766577,800.0 129.90381056766577,775.0 151.55444566227675,762.5" stroke="black" stroke-width="1" /><polygon fill="#FFFFFF" points="173.20508075688772,850.0 173.20508075688772,875.0 151.55444566227675,887.5 129.90381056766577,875.0 129.90381056766577,850.0 151.55444566227675,837.5" stroke="black" stroke-width="1" /><polygon fill="#FFFFFF" points="173.20508075688772,925.0 173.20508075688772,950.0 151.55444566227675,962.5 129.90381056766577,950.0 129.90381056766577,925.0 151.55444566227675,912.5" stroke="black" stroke-width="1" /><polygon fill="#FFFFFF" points="173.20508075688772,1000.0 173.20508075688772,1025.0 151.55444566227675,1037.5 129.90381056766577,1025.0 129.90381056766577,1000.0 151.55444566227675,987.5" stroke="black" stroke-width="1" /><polygon fill="#FFFFFF" points="173.20508075688772,1075.0 173.20508075688772,1100.0 151.55444566227675,1112.5 129.90381056766577,1100.0 129.90381056766577,1075.0 151.55444566227675,1062.5" stroke="black" stroke-width="1" /><polygon fill="#FFFFFF" points="173.20508075688772,1150.0 173.20508075688772,1175.0 151.55444566227675,1187.5 129.90381056766577,1175.0 129.90381056766577,1150.0 151.55444566227675,1137.5" stroke="black" stroke-width="1" /><polygon fill="#FFFFFF" points="194.8557158514987,737.5 194.8557158514987,762.5 173.20508075688772,775.0 151.55444566227675,762.5 151.55444566227675,737.5 173.20508075688772,725.0" stroke="black" stroke-width="1" /><polygon fill="#FFFFFF" points="194.8557158514987,812.5 194.8557158514987,837.5 173.20508075688772,850.0 151.55444566227675,837.5 151.55444566227675,812.5 173.20508075688772,800.0" stroke="black" stroke-width="1" /><polygon fill="#FFFFFF" points="194.8557158514987,887.5 194.8557158514987,912.5 173.20508075688772,925.0 151.55444566227675,912.5 151.55444566227675,887.5 173.20508075688772,875.0" stroke="black" stroke-width="1" /><polygon fill="#FFFFFF" points="194.8557158514987,962.5 194.8557158514987,987.5 173.20508075688772,1000.0 151.55444566227675,987.5 151.55444566227675,962.5 173.20508075688772,950.0" stroke="black" stroke-width="1" /><polygon fill="#FFFFFF" points="194.8557158514987,1037.5 194.8557158514987,1062.5 173.20508075688772,1075.0 151.55444566227675,1062.5 151.55444566227675,1037.5 173.20508075688772,1025.0" stroke="black" stroke-width="1" /><polygon fill="#FFFFFF" points="194.8557158514987,1112.5 194.8557158514987,1137.5 173.20508075688772,1150.0 151.55444566227675,1137.5 151.55444566227675,1112.5 173.20508075688772,1100.0" stroke="black" stroke-width="1" /><polygon fill="#FFFFFF" points="194.8557158514987,1187.5 194.8557158514987,1212.5 173.20508075688772,1225.0 151.55444566227675,1212.5 151.55444566227675,1187.5 173.20508075688772,1175.0" stroke="black" stroke-width="1" /><polygon fill="#FFFFFF" points="216.50635094610968,775.0 216.50635094610968,800.0 194.8557158514987,812.5 173.20508075688772,800.0 173.20508075688772,775.0 194.8557158514987,762.5" stroke="black" stroke-width="1" /><polygon fill="#FFFFFF" points="216.50635094610968,850.0 216.50635094610968,875.0 194.8557158514987,887.5 173.20508075688772,875.0 173.20508075688772,850.0 194.8557158514987,837.5" stroke="black" stroke-width="1" /><polygon fill="#FFFFFF" points="216.50635094610968,925.0 216.50635094610968,950.0 194.8557158514987,962.5 173.20508075688772,950.0 173.20508075688772,925.0 194.8557158514987,912.5" stroke="black" stroke-width="1" /><polygon fill="#FFFFFF" points="216.50635094610968,1000.0 216.50635094610968,1025.0 194.8557158514987,1037.5 173.20508075688772,1025.0 173.20508075688772,1000.0 194.8557158514987,987.5" stroke="black" stroke-width="1" /><polygon fill="#FFFFFF" points="216.50635094610968,1075.0 216.50635094610968,1100.0 194.8557158514987,1112.5 173.20508075688772,1100.0 173.20508075688772,1075.0 194.8557158514987,1062.5" stroke="black" stroke-width="1" /><polygon fill="#FFFFFF" points="216.50635094610968,1150.0 216.50635094610968,1175.0 194.8557158514987,1187.5 173.20508075688772,1175.0 173.20508075688772,1150.0 194.8557158514987,1137.5" stroke="black" stroke-width="1" /><polygon fill="#FFFFFF" points="238.15698604072062,737.5 238.15698604072062,762.5 216.50635094610965,775.0 194.85571585149867,762.5 194.85571585149867,737.5 216.50635094610965,725.0" stroke="black" stroke-width="1" /><polygon fill="#FFFFFF" points="238.15698604072062,812.5 238.15698604072062,837.5 216.50635094610965,850.0 194.85571585149867,837.5 194.85571585149867,812.5 216.50635094610965,800.0" stroke="black" stroke-width="1" /><polygon fill="#FFFFFF" points="238.15698604072062,887.5 238.15698604072062,912.5 216.50635094610965,925.0 194.85571585149867,912.5 194.85571585149867,887.5 216.50635094610965,875.0" stroke="black" stroke-width="1" /><polygon fill="#FFFFFF" points="238.15698604072062,962.5 238.15698604072062,987.5 216.50635094610965,1000.0 194.85571585149867,987.5 194.85571585149867,962.5 216.50635094610965,950.0" stroke="black" stroke-width="1" /><polygon fill="#FFFFFF" points="238.15698604072062,1037.5 238.15698604072062,1062.5 216.50635094610965,1075.0 194.85571585149867,1062.5 194.85571585149867,1037.5 216.50635094610965,1025.0" stroke="black" stroke-width="1" /><polygon fill="#FFFFFF" points="238.15698604072062,1112.5 238.15698604072062,1137.5 216.50635094610965,1150.0 194.85571585149867,1137.5 194.85571585149867,1112.5 216.50635094610965,1100.0" stroke="black" stroke-width="1" /><polygon fill="#FFFFFF" points="238.15698604072062,1187.5 238.15698604072062,1212.5 216.50635094610965,1225.0 194.85571585149867,1212.5 194.85571585149867,1187.5 216.50635094610965,1175.0" stroke="black" stroke-width="1" /><polygon fill="#FFFFFF" points="259.8076211353316,775.0 259.8076211353316,800.0 238.15698604072062,812.5 216.50635094610965,800.0 216.50635094610965,775.0 238.15698604072062,762.5" stroke="black" stroke-width="1" /><polygon fill="#FFFFFF" points="259.8076211353316,850.0 259.8076211353316,875.0 238.15698604072062,887.5 216.50635094610965,875.0 216.50635094610965,850.0 238.15698604072062,837.5" stroke="black" stroke-width="1" /><polygon fill="#FFFFFF" points="259.8076211353316,925.0 259.8076211353316,950.0 238.15698604072062,962.5 216.50635094610965,950.0 216.50635094610965,925.0 238.15698604072062,912.5" stroke="black" stroke-width="1" /><polygon fill="#FFFFFF" points="259.8076211353316,1000.0 259.8076211353316,1025.0 238.15698604072062,1037.5 216.50635094610965,1025.0 216.50635094610965,1000.0 238.15698604072062,987.5" stroke="black" stroke-width="1" /><polygon fill="#FFFFFF" points="259.8076211353316,1075.0 259.8076211353316,1100.0 238.15698604072062,1112.5 216.50635094610965,1100.0 216.50635094610965,1075.0 238.15698604072062,1062.5" stroke="black" stroke-width="1" /><polygon fill="#FFFFFF" points="259.8076211353316,1150.0 259.8076211353316,1175.0 238.15698604072062,1187.5 216.50635094610965,1175.0 216.50635094610965,1150.0 238.15698604072062,1137.5" stroke="black" stroke-width="1" /><polygon fill="#FFFFFF" points="281.45825622994255,737.5 281.45825622994255,762.5 259.8076211353316,775.0 238.15698604072062,762.5 238.15698604072062,737.5 259.8076211353316,725.0" stroke="black" stroke-width="1" /><polygon fill="#FFFFFF" points="281.45825622994255,812.5 281.45825622994255,837.5 259.8076211353316,850.0 238.15698604072062,837.5 238.15698604072062,812.5 259.8076211353316,800.0" stroke="black" stroke-width="1" /><polygon fill="#FFFFFF" points="281.45825622994255,887.5 281.45825622994255,912.5 259.8076211353316,925.0 238.15698604072062,912.5 238.15698604072062,887.5 259.8076211353316,875.0" stroke="black" stroke-width="1" /><polygon fill="#FFFFFF" points="281.45825622994255,962.5 281.45825622994255,987.5 259.8076211353316,1000.0 238.15698604072062,987.5 238.15698604072062,962.5 259.8076211353316,950.0" stroke="black" stroke-width="1" /><polygon fill="#FFFFFF" points="281.45825622994255,1037.5 281.45825622994255,1062.5 259.8076211353316,1075.0 238.15698604072062,1062.5 238.15698604072062,1037.5 259.8076211353316,1025.0" stroke="black" stroke-width="1" /><polygon fill="#FFFFFF" points="281.45825622994255,1112.5 281.45825622994255,1137.5 259.8076211353316,1150.0 238.15698604072062,1137.5 238.15698604072062,1112.5 259.8076211353316,1100.0" stroke="black" stroke-width="1" /><polygon fill="#FFFFFF" points="281.45825622994255,1187.5 281.45825622994255,1212.5 259.8076211353316,1225.0 238.15698604072062,1212.5 238.15698604072062,1187.5 259.8076211353316,1175.0" stroke="black" stroke-width="1" /><polygon fill="#FFFFFF" points="303.1088913245535,850.0 303.1088913245535,875.0 281.45825622994255,887.5 259.8076211353316,875.0 259.8076211353316,850.0 281.45825622994255,837.5" stroke="black" stroke-width="1" /><polygon fill="#FFFFFF" points="303.1088913245535,925.0 303.1088913245535,950.0 281.45825622994255,962.5 259.8076211353316,950.0 259.8076211353316,925.0 281.45825622994255,912.5" stroke="black" stroke-width="1" /><polygon fill="#FFFFFF" points="303.1088913245535,1000.0 303.1088913245535,1025.0 281.45825622994255,1037.5 259.8076211353316,1025.0 259.8076211353316,1000.0 281.45825622994255,987.5" stroke="black" stroke-width="1" /><polygon fill="#FFFFFF" points="303.1088913245535,1075.0 303.1088913245535,1100.0 281.45825622994255,1112.5 259.8076211353316,1100.0 259.8076211353316,1075.0 281.45825622994255,1062.5" stroke="black" stroke-width="1" /><polygon fill="#FFFFFF" points="303.1088913245535,1150.0 303.1088913245535,1175.0 281.45825622994255,1187.5 259.8076211353316,1175.0 259.8076211353316,1150.0 281.45825622994255,1137.5" stroke="black" stroke-width="1" /><polygon fill="#FFFFFF" points="324.75952641916444,887.5 324.75952641916444,912.5 303.1088913245535,925.0 281.45825622994255,912.5 281.45825622994255,887.5 303.1088913245535,875.0" stroke="black" stroke-width="1" /><polygon fill="#FFFFFF" points="324.75952641916444,962.5 324.75952641916444,987.5 303.1088913245535,1000.0 281.45825622994255,987.5 281.45825622994255,962.5 303.1088913245535,950.0" stroke="black" stroke-width="1" /><polygon fill="#FFFFFF" points="324.75952641916444,1037.5 324.75952641916444,1062.5 303.1088913245535,1075.0 281.45825622994255,1062.5 281.45825622994255,1037.5 303.1088913245535,1025.0" stroke="black" stroke-width="1" /><polygon fill="#FFFFFF" points="324.75952641916444,1112.5 324.75952641916444,1137.5 303.1088913245535,1150.0 281.45825622994255,1137.5 281.45825622994255,1112.5 303.1088913245535,1100.0" stroke="black" stroke-width="1" /><polygon fill="#FFFFFF" points="324.75952641916444,1187.5 324.75952641916444,1212.5 303.1088913245535,1225.0 281.45825622994255,1212.5 281.45825622994255,1187.5 303.1088913245535,1175.0" stroke="black" stroke-width="1" /><polygon fill="#FFFFFF" points="346.41016151377545,925.0 346.41016151377545,950.0 324.7595264191645,962.5 303.10889132455355,950.0 303.10889132455355,925.0 324.7595264191645,912.5" stroke="black" stroke-width="1" /><polygon fill="#FFFFFF" points="346.41016151377545,1000.0 346.41016151377545,1025.0 324.7595264191645,1037.5 303.10889132455355,1025.0 303.10889132455355,1000.0 324.7595264191645,987.5" stroke="black" stroke-width="1" /><polygon fill="#FFFFFF" points="346.41016151377545,1075.0 346.41016151377545,1100.0 324.7595264191645,1112.5 303.10889132455355,1100.0 303.10889132455355,1075.0 324.7595264191645,1062.5" stroke="black" stroke-width="1" /><polygon fill="#FFFFFF" points="346.41016151377545,1150.0 346.41016151377545,1175.0 324.7595264191645,1187.5 303.10889132455355,1175.0 303.10889132455355,1150.0 324.7595264191645,1137.5" stroke="black" stroke-width="1" /><polygon fill="#FFFFFF" points="368.0607966083864,962.5 368.0607966083864,987.5 346.41016151377545,1000.0 324.7595264191645,987.5 324.7595264191645,962.5 346.41016151377545,950.0" stroke="black" stroke-width="1" /><polygon fill="#FFFFFF" points="368.0607966083864,1037.5 368.0607966083864,1062.5 346.41016151377545,1075.0 324.7595264191645,1062.5 324.7595264191645,1037.5 346.41016151377545,1025.0" stroke="black" stroke-width="1" /><polygon fill="#FFFFFF" points="368.0607966083864,1112.5 368.0607966083864,1137.5 346.41016151377545,1150.0 324.7595264191645,1137.5 324.7595264191645,1112.5 346.41016151377545,1100.0" stroke="black" stroke-width="1" /><polygon fill="#FFFFFF" points="368.0607966083864,1187.5 368.0607966083864,1212.5 346.41016151377545,1225.0 324.7595264191645,1212.5 324.7595264191645,1187.5 346.41016151377545,1175.0" stroke="black" stroke-width="1" /></svg>