<?xml version="1.0" encoding="utf-8" ?>
<svg baseProfile="basic" height="133.17814692982745cm" version="1.1" viewBox="0,0,1932.2127089449273,799.0688815789647" width="322.03545149082123cm" xmlns="http://www.w3.org/2000/svg" xmlns:ev="http://www.w3.org/2001/xml-events" xmlns:xlink="http://www.w3.org/1999/xlink"><defs /><polygon fill="#FFFFFF" points="77.94228634059947,465.0 77.94228634059947,480.0 64.95190528383289,487.5 51.961524227066306,480.0 51.961524227066306,465.0 64.95190528383289,457.5" stroke="black" stroke-width="1" /><polygon fill="#FFFFFF" points="77.94228634059947,510.0 77.94228634059947,525.0 64.95190528383289,532.5 51.961524227066306,525.0 51.961524227066306,510.0 64.95190528383289,502.5" stroke="black" stroke-width="1" /><polygon fill="#FFFFFF" points="77.94228634059947,555.0 77.94228634059947,570.0 64.95190528383289,577.5 51.961524227066306,570.0 51.961524227066306,555.0 64.95190528383289,547.5" stroke="black" stroke-width="1" /><polygon fill="#FFFFFF" points="77.94228634059947,600.0 77.94228634059947,615.0 64.95190528383289,622.5 51.961524227066306,615.0 51.961524227066306,600.0 64.95190528383289,592.5" stroke="black" stroke-width="1" /><polygon fill="#FFFFFF" points="77.94228634059947,645.0 77.94228634059947,660.0 64.95190528383289,667.5 51.961524227066306,660.0 51.961524227066306,645.0 64.95190528383289,637.5" stroke="black" stroke-width="1" /><polygon fill="#FFFFFF" points="77.94228634059947,690.0 77.94228634059947,705.0 64.95190528383289,712.5 51.961524227066306,705.0 51.961524227066306,690.0 64.95190528383289,682.5" stroke="black" stroke-width="1" /><polygon fill="#FFFFFF" points="90.93266739736605,487.5 90.93266739736605,502.5 77.94228634059947,510.0 64.95190528383289,502.5 64.95190528383289,487.5 77.94228634059947,480.0" stroke="black" stroke-width="1" /><polygon fill="#FFFFFF" points="90.93266739736605,532.5 90.93266739736605,547.5 77.94228634059947,555.0 64.95190528383289,547.5 64.95190528383289,532.5 77.94228634059947,525.0" stroke="black" stroke-width="1" /><polygon fill="#FFFFFF" points="90.93266739736605,577.5 90.93266739736605,592.5 77.94228634059947,600.0 64.95190528383289,592.5 64.95190528383289,577.5 77.94228634059947,570.0" stroke="black" stroke-width="1" /><polygon fill="#FFFFFF" points="90.93266739736605,622.5 90.93266739736605,637.5 77.94228634059947,645.0 64.95190528383289,637.5 64.95190528383289,622.5 77.94228634059947,615.0" stroke="black" stroke-width="1" /><polygon fill="#FFFFFF" points="90.93266739736605,667.5 90.93266739736605,682.5 77.94228634059947,690.0 64.95190528383289,682.5 64.95190528383289,667.5 77.94228634059947,660.0" stroke="black" stroke-width="1" /><polygon fill="#FFFFFF" points="90.93266739736605,712.5 90.93266739736605,727.5 77.94228634059947,735.0 64.95190528383289,727.5 64.95190528383289,712.5 77.94228634059947,705.0" stroke="black" stroke-width="1" /><polygon fill="#FFFFFF" points="103.92304845413263,465.0 103.92304845413263,480.0 90.93266739736605,487.5 77.94228634059947,480.0 77.94228634059947,465.0 90.93266739736605,457.5" stroke="black" stroke-width="1" /><polygon fill="#FFFFFF" points="103.92304845413263,510.0 103.92304845413263,525.0 90.93266739736605,532.5 77.94228634059947,525.0 77.94228634059947,510.0 90.93266739736605,502.5" stroke="black" stroke-width="1" /><polygon fill="#FFFFFF" points="103.92304845413263,555.0 103.92304845413263,570.0 90.93266739736605,577.5 77.94228634059947,570.0 77.94228634059947,555.0 90.93266739736605,547.5" stroke="black" stroke-width="1" /><polygon fill="#FFFFFF" points="103.92304845413263,600.0 103.92304845413263,615.0 90.93266739736605,622.5 77.94228634059947,615.0 77.94228634059947,600.0 90.93266739736605,592.5" stroke="black" stroke-width="1" /><polygon fill="#FFFFFF" points="103.92304845413263,645.0 103.92304845413263,660.0 90.93266739736605,667.5 77.94228634059947,660.0 77.94228634059947,645.0 90.93266739736605,637.5" stroke="black" stroke-width="1" /><polygon fill="#FFFFFF" points="103.92304845413263,690.0 103.92304845413263,705.0 90.93266739736605,712.5 77.94228634059947,705.0 77.94228634059947,690.0 90.93266739736605,682.5" stroke="black" stroke-width="1" /><polygon fill="#FFFFFF" points="116.9134295108992,442.5 116.9134295108992,457.5 103.92304845413263,465.0 90.93266739736605,457.5 90.93266739736605,442.5 103.92304845413263,435.0" stroke="black" stroke-width="1" /><polygon fill="#FFFFFF" points="116.9134295108992,487.5 116.9134295108992,502.5 103.92304845413263,510.0 90.93266739736605,502.5 90.93266739736605,487.5 103.92304845413263,480.0" stroke="black" stroke-width="1" /><polygon fill="#FFFFFF" points="116.9134295108992,532.5 116.9134295108992,547.5 103.92304845413263,555.0 90.93266739736605,547.5 90.93266739736605,532.5 103.92304845413263,525.0" stroke="black" stroke-width="1" /><polygon fill="#FFFFFF" points="116.9134295108992,577.5 116.9134295108992,592.5 103.92304845413263,600.0 90.93266739736605,592.5 90.93266739736605,577.5 103.92304845413263,570.0" stroke="black" stroke-width="1" /><polygon fill="#FFFFFF" points="116.9134295108992,622.5 116.9134295108992,637.5 103.92304845413263,645.0 90.93266739736605,637.5 90.93266739736605,622.5 103.92304845413263,615.0" stroke="black" stroke-width="1" /><polygon fill="#FFFFFF" points="116.9134295108992,667.5 116.9134295108992,682.5 103.92304845413263,690.0 90.93266739736605,682.5 90.93266739736605,667.5 103.92304845413263,660.0" stroke="black" stroke-width="1" /><polygon fill="#FFFFFF" points="116.9134295108992,712.5 116.9134295108992,727.5 103.92304845413263,735.0 90.93266739736605,727.5 90.93266739736605,712.5 103.92304845413263,705.0" stroke="black" stroke-width="1" /><polygon fill="#FFFFFF" points="129.9038105676658,465.0 129.9038105676658,480.0 116.9134295108992,487.5 103.92304845413263,480.0 103.92304845413263,465.0 116.9134295108992,457.5" stroke="black" stroke-width="1" /><polygon fill="#FFFFFF" points="129.9038105676658,510.0 129.9038105676658,525.0 116.9134295108992,532.5 103.92304845413263,525.0 103.92304845413263,510.0 116.9134295108992,502.5" stroke="black" stroke-width="1" /><polygon fill="#FFFFFF" points="129.9038105676658,555.0 129.9038105676658,570.0 116.9134295108992,577.5 103.92304845413263,570.0 103.92304845413263,555.0 116.9134295108992,547.5" stroke="black" stroke-width="1" /><polygon fill="#FFFFFF" points="129.9038105676658,600.0 129.9038105676658,615.0 116.9134295108992,622.5 103.92304845413263,615.0 103.92304845413263,600.0 116.9134295108992,592.5" stroke="black" stroke-width="1" /><polygon fill="#FFFFFF" points="129.9038105676658,645.0 129.9038105676658,660.0 116.9134295108992,667.5 103.92304845413263,660.0 103.92304845413263,645.0 116.9134295108992,637.5" stroke="black" stroke-width="1" /><polygon fill="#FFFFFF" points="129.9038105676658,690.0 129.9038105676658,705.0 116.9134295108992,712.5 103.92304845413263,705.0 103.92304845413263,690.0 116.9134295108992,682.5" stroke="black" stroke-width="1" /><polygon fill="#FFFFFF" points="142.89419162443235,442.5 142.89419162443235,457.5 129.90381056766577,465.0 116.91342951089919,457.5 116.91342951089919,442.5 129.90381056766577,435.0" stroke="black" stroke-width="1" /><polygon fill="#FFFFFF" points="142.89419162443235,487.5 142.89419162443235,502.5 129.90381056766577,510.0 116.91342951089919,502.5 116.91342951089919,487.5 129.90381056766577,480.0" stroke="black" stroke-width="1" /><polygon fill="#FFFFFF" points="142.89419162443235,532.5 142.89419162443235,547.5 129.90381056766577,555.0 116.91342951089919,547.5 116.91342951089919,532.5 129.90381056766577,525.0" stroke="black" stroke-width="1" /><polygon fill="#FFFFFF" points="142.89419162443235,577.5 142.89419162443235,592.5 129.90381056766577,600.0 116.91342951089919,592.5 116.91342951089919,577.5 129.90381056766577,570.0" stroke="black" stroke-width="1" /><polygon fill="#FFFFFF" points="142.89419162443235,622.5 142.89419162443235,637.5 129.90381056766577,645.0 116.91342951089919,637.5 116.91342951089919,622.5 129.90381056766577,615.0" stroke="black" stroke-width="1" /><polygon fill="#FFFFFF" points="142.89419162443235,667.5 142.89419162443235,682.5 129.90381056766577,690.0 116.91342951089919,682.5 116.91342951089919,667.5 129.90381056766577,660.0" stroke="black" stroke-width="1" /><polygon fill="#FFFFFF" points="142.89419162443235,712.5 142.89419162443235,727.5 129.90381056766577,735.0 116.91342951089919,727.5 116.91342951089919,712.5 129.90381056766577,705.0" stroke="black" stroke-width="1" /><polygon fill="#FFFFFF" points="155.88457268119893,465.0 155.88457268119893,480.0 142.89419162443235,487.5 129.90381056766577,480.0 129.90381056766577,465.0 142.89419162443235,457.5" stroke="black" stroke-width="1" /><polygon fill="#FFFFFF" points="155.88457268119893,510.0 155.88457268119893,525.0 142.89419162443235,532.5 129.90381056766577,525.0 129.90381056766577,510.0 142.89419162443235,502.5" stroke="black" stroke-width="1" /><polygon fill="#FFFFFF" points="155.88457268119893,555.0 155.88457268119893,570.0 142.89419162443235,577.5 129.90381056766577,570.0 129.90381056766577,555.0 142.89419162443235,547.5" stroke="black" stroke-width="1" /><polygon fill="#FFFFFF" points="155.88457268119893,600.0 155.88457268119893,615.0 142.89419162443235,622.5 129.90381056766577,615.0 129.90381056766577,600.0 142.89419162443235,592.5" stroke="black" stroke-width="1" /><polygon fill="#FFFFFF" points="155.88457268119893,645.0 155.88457268119893,660.0 142.89419162443235,667.5 129.90381056766577,660.0 129.90381056766577,645.0 142.89419162443235,637.5" stroke="black" stroke-width="1" /><polygon fill="#FFFFFF" points="155.88457268119893,690.0 155.88457268119893,705.0 142.89419162443235,712.5 129.90381056766577,705.0 129.90381056766577,690.0 142.89419162443235,682.5" stroke="black" stroke-width="1" /><polygon fill="#FFFFFF" points="168.8749537379655,487.5 168.8749537379655,502.5 155.88457268119893,510.0 142.89419162443235,502.5 142.89419162443235,487.5 155.88457268119893,480.0" stroke="black" stroke-width="1" /><polygon fill="#FFFFFF" points="168.8749537379655,532.5 168.8749537379655,547.5 155.88457268119893,555.0 142.89419162443235,547.5 142.89419162443235,532.5 155.88457268119893,525.0" stroke="black" stroke-width="1" /><polygon fill="#FFFFFF" points="168.8749537379655,577.5 168.8749537379655,592.5 155.88457268119893,600.0 142.89419162443235,592.5 142.89419162443235,577.5 155.88457268119893,570.0" stroke="black" stroke-width="1" /><polygon fill="#FFFFFF" points="168.8749537379655,622.5 168.8749537379655,637.5 155.88457268119893,645.0 142.89419162443235,637.5 142.89419162443235,622.5 155.88457268119893,615.0" stroke="black" stroke-width="1" /><polygon fill="#FFFFFF" points="168.8749537379655,667.5 168.8749537379655,682.5 155.88457268119893,690.0 142.89419162443235,682.5 142.89419162443235,667.5 155.88457268119893,660.0" stroke="black" stroke-width="1" /><polygon fill="#FFFFFF" points="168.8749537379655,712.5 168.8749537379655,727.5 155.88457268119893,735.0 142.89419162443235,727.5 142.89419162443235,712.5 155.88457268119893,705.0" stroke="black" stroke-width="1" /><polygon fill="#FFFFFF" points="181.8653347947321,510.0 181.8653347947321,525.0 168.8749537379655,532.5 155.88457268119893,525.0 155.88457268119893,510.0 168.8749537379655,502.5" stroke="black" stroke-width="1" /><polygon fill="#FFFFFF" points="181.8653347947321,555.0 181.8653347947321,570.0 168.8749537379655,577.5 155.88457268119893,570.0 155.88457268119893,555.0 168.8749537379655,547.5" stroke="black" stroke-width="1" /><polygon fill="#FFFFFF" points="181.8653347947321,600.0 181.8653347947321,615.0 168.8749537379655,622.5 155.88457268119893,615.0 155.88457268119893,600.0 168.8749537379655,592.5" stroke="black" stroke-width="1" /><polygon fill="#FFFFFF" points="181.8653347947321,645.0 181.8653347947321,660.0 168.8749537379655,667.5 155.88457268119893,660.0 155.88457268119893,645.0 168.8749537379655,637.5" stroke="black" stroke-width="1" /><polygon fill="#FFFFFF" points="181.8653347947321,690.0 181.8653347947321,705.0 168.8749537379655,712.5 155.88457268119893,705.0 155.88457268119893,690.0 168.8749537379655,682.5" stroke="black" stroke-width="1" /><polygon fill="#FFFFFF" points="194.85571585149867,532.5 194.85571585149867,547.5 181.8653347947321,555.0 168.8749537379655,547.5 168.8749537379655,532.5 181.8653347947321,525.0" stroke="black" stroke-width="1" /><polygon fill="#FFFFFF" points="194.85571585149867,577.5 194.85571585149867,592.5 181.8653347947321,600.0 168.8749537379655,592.5 168.8749537379655,577.5 181.8653347947321,570.0" stroke="black" stroke-width="1" /><polygon fill="#FFFFFF" points="194.85571585149867,622.5 194.85571585149867,637.5 181.8653347947321,645.0 168.8749537379655,637.5 168.8749537379655,622.5 181.8653347947321,615.0" stroke="black" stroke-width="1" /><polygon fill="#FFFFFF" points="194.85571585149867,667.5 194.85571585149867,682.5 181.8653347947321,690.0 168.8749537379655,682.5 168.8749537379655,667.5 181.8653347947321,660.0" stroke="black" stroke-width="1" /><polygon fill="#FFFFFF" points="194.85571585149867,712.5 194.85571585149867,727.5 181.8653347947321,735.0 168.8749537379655,727.5 168.8749537379655,712.5 181.8653347947321,705.0" stroke="black" stroke-width="1" /><polygon fill="#FFFFFF" points="207.84609690826525,555.0 207.84609690826525,570.0 194.85571585149867,577.5 181.8653347947321,570.0 181.8653347947321,555.0 194.85571585149867,547.5" stroke="black" stroke-width="1" /><polygon fill="#FFFFFF" points="207.84609690826525,600.0 207.84609690826525,615.0 194.85571585149867,622.5 181.8653347947321,615.0 181.8653347947321,600.0 194.85571585149867,592.5" stroke="black" stroke-width="1" /><polygon fill="#FFFFFF" points="207.84609690826525,645.0 207.84609690826525,660.0 194.85571585149867,667.5 181.8653347947321,660.0 181.8653347947321,645.0 194.85571585149867,637.5" stroke="black" stroke-width="1" /><polygon fill="#FFFFFF" points="207.84609690826525,690.0 207.84609690826525,705.0 194.85571585149867,712.5 181.8653347947321,705.0 181.8653347947321,690.0 194.85571585149867,682.5" stroke="black" stroke-width="1" /><polygon fill="#FFFFFF" points="220.83647796503183,577.5 220.83647796503183,592.5 207.84609690826525,600.0 194.85571585149867,592.5 194.85571585149867,577.5 207.84609690826525,570.0" stroke="black" stroke-width="1" /><polygon fill="#FFFFFF" points="220.83647796503183,622.5 220.83647796503183,637.5 207.84609690826525,645.0 194.85571585149867,637.5 194.85571585149867,622.5 207.84609690826525,615.0" stroke="black" stroke-width="1" /><polygon fill="#FFFFFF" points="220.83647796503183,667.5 220.83647796503183,682.5 207.84609690826525,690.0 194.85571585149867,682.5 194.85571585149867,667.5 207.84609690826525,660.0" stroke="black" stroke-width="1" /><polygon fill="#FFFFFF" points="220.83647796503183,712.5 220.83647796503183,727.5 207.84609690826525,735.0 194.85571585149867,727.5 194.85571585149867,712.5 207.84609690826525,705.0" stroke="black" stroke-width="1" /></svg>