<?xml version="1.0" encoding="utf-8" ?>
<svg baseProfile="basic" height="133.17814692982745cm" version="1.1" viewBox="0,0,3220.3545149082124,1331.7814692982745" width="322.03545149082123cm" xmlns="http://www.w3.org/2000/svg" xmlns:ev="http://www.w3.org/2001/xml-events" xmlns:xlink="http://www.w3.org/1999/xlink"><defs /><polygon fill="#FFFFFF" points="476.31397208144125,925.0 476.31397208144125,950.0 454.6633369868303,962.5 433.01270189221935,950.0 433.01270189221935,925.0 454.6633369868303,912.5" stroke="black" stroke-width="1" /><polygon fill="#FFFFFF" points="476.31397208144125,1000.0 476.31397208144125,1025.0 454.6633369868303,1037.5 433.01270189221935,1025.0 433.01270189221935,1000.0 454.6633369868303,987.5" stroke="black" stroke-width="1" /><polygon fill="#FFFFFF" points="476.31397208144125,1075.0 476.31397208144125,1100.0 454.6633369868303,1112.5 433.01270189221935,1100.0 433.01270189221935,1075.0 454.6633369868303,1062.5" stroke="black" stroke-width="1" /><polygon fill="#FFFFFF" points="476.31397208144125,1150.0 476.31397208144125,1175.0 454.6633369868303,1187.5 433.01270189221935,1175.0 433.01270189221935,1150.0 454.6633369868303,1137.5" stroke="black" stroke-width="1" /><polygon fill="#FFFFFF" points="497.9646071760522,887.5 497.9646071760522,912.5 476.31397208144125,925.0 454.6633369868303,912.5 454.6633369868303,887.5 476.31397208144125,875.0" stroke="black" stroke-width="1" /><polygon fill="#FFFFFF" points="497.9646071760522,962.5 497.9646071760522,987.5 476.31397208144125,1000.0 454.6633369868303,987.5 454.6633369868303,962.5 476.31397208144125,950.0" stroke="black" stroke-width="1" /><polygon fill="#FFFFFF" points="497.9646071760522,1037.5 497.9646071760522,1062.5 476.31397208144125,1075.0 454.6633369868303,1062.5 454.6633369868303,1037.5 476.31397208144125,1025.0" stroke="black" stroke-width="1" /><polygon fill="#FFFFFF" points="497.9646071760522,1112.5 497.9646071760522,1137.5 476.31397208144125,1150.0 454.6633369868303,1137.5 454.6633369868303,1112.5 476.31397208144125,1100.0" stroke="black" stroke-width="1" /><polygon fill="#FFFFFF" points="497.9646071760522,1187.5 497.9646071760522,1212.5 476.31397208144125,1225.0 454.6633369868303,1212.5 454.6633369868303,1187.5 476.31397208144125,1175.0" stroke="black" stroke-width="1" /><polygon fill="#FFFFFF" points="519.6152422706632,850.0 519.6152422706632,875.0 497.9646071760522,887.5 476.31397208144125,875.0 476.31397208144125,850.0 497.9646071760522,837.5" stroke="black" stroke-width="1" /><polygon fill="#FFFFFF" points="519.6152422706632,925.0 519.6152422706632,950.0 497.9646071760522,962.5 476.31397208144125,950.0 476.31397208144125,925.0 497.9646071760522,912.5" stroke="black" stroke-width="1" /><polygon fill="#FFFFFF" points="519.6152422706632,1000.0 519.6152422706632,1025.0 497.9646071760522,1037.5 476.31397208144125,1025.0 476.31397208144125,1000.0 497.9646071760522,987.5" stroke="black" stroke-width="1" /><polygon fill="#FFFFFF" points="519.6152422706632,1075.0 519.6152422706632,1100.0 497.9646071760522,1112.5 476.31397208144125,1100.0 476.31397208144125,1075.0 497.9646071760522,1062.5" stroke="black" stroke-width="1" /><polygon fill="#FFFFFF" points="519.6152422706632,1150.0 519.6152422706632,1175.0 497.9646071760522,1187.5 476.31397208144125,1175.0 476.31397208144125,1150.0 497.9646071760522,1137.5" stroke="black" stroke-width="1" /><polygon fill="#FFFFFF" points="541.2658773652742,737.5 541.2658773652742,762.5 519.6152422706632,775.0 497.96460717605225,762.5 497.96460717605225,737.5 519.6152422706632,725.0" stroke="black" stroke-width="1" /><polygon fill="#FFFFFF" points="541.2658773652742,812.5 541.2658773652742,837.5 519.6152422706632,850.0 497.96460717605225,837.5 497.96460717605225,812.5 519.6152422706632,800.0" stroke="black" stroke-width="1" /><polygon fill="#FFFFFF" points="541.2658773652742,887.5 541.2658773652742,912.5 519.6152422706632,925.0 497.96460717605225,912.5 497.96460717605225,887.5 519.6152422706632,875.0" stroke="black" stroke-width="1" /><polygon fill="#FFFFFF" points="541.2658773652742,962.5 541.2658773652742,987.5 519.6152422706632,1000.0 497.96460717605225,987.5 497.96460717605225,962.5 519.6152422706632,950.0" stroke="black" stroke-width="1" /><polygon fill="#FFFFFF" points="541.2658773652742,1037.5 541.2658773652742,1062.5 519.6152422706632,1075.0 497.96460717605225,1062.5 497.96460717605225,1037.5 519.6152422706632,1025.0" stroke="black" stroke-width="1" /><polygon fill="#FFFFFF" points="541.2658773652742,1112.5 541.2658773652742,1137.5 519.6152422706632,1150.0 497.96460717605225,1137.5 497.96460717605225,1112.5 519.6152422706632,1100.0" stroke="black" stroke-width="1" /><polygon fill="#FFFFFF" points="541.2658773652742,1187.5 541.2658773652742,1212.5 519.6152422706632,1225.0 497.96460717605225,1212.5 497.96460717605225,1187.5 519.6152422706632,1175.0" stroke="black" stroke-width="1" /><polygon fill="#FFFFFF" points="562.9165124598851,775.0 562.9165124598851,800.0 541.2658773652742,812.5 519.6152422706632,800.0 519.6152422706632,775.0 541.2658773652742,762.5" stroke="black" stroke-width="1" /><polygon fill="#FFFFFF" points="562.9165124598851,850.0 562.9165124598851,875.0 541.2658773652742,887.5 519.6152422706632,875.0 519.6152422706632,850.0 541.2658773652742,837.5" stroke="black" stroke-width="1" /><polygon fill="#FFFFFF" points="562.9165124598851,925.0 562.9165124598851,950.0 541.2658773652742,962.5 519.6152422706632,950.0 519.6152422706632,925.0 541.2658773652742,912.5" stroke="black" stroke-width="1" /><polygon fill="#FFFFFF" points="562.9165124598851,1000.0 562.9165124598851,1025.0 541.2658773652742,1037.5 519.6152422706632,1025.0 519.6152422706632,1000.0 541.2658773652742,987.5" stroke="black" stroke-width="1" /><polygon fill="#FFFFFF" points="562.9165124598851,1075.0 562.9165124598851,1100.0 541.2658773652742,1112.5 519.6152422706632,1100.0 519.6152422706632,1075.0 541.2658773652742,1062.5" stroke="black" stroke-width="1" /><polygon fill="#FFFFFF" points="562.9165124598851,1150.0 562.9165124598851,1175.0 541.2658773652742,1187.5 519.6152422706632,1175.0 519.6152422706632,1150.0 541.2658773652742,1137.5" stroke="black" stroke-width="1" /><polygon fill="#FFFFFF" points="584.567147554496,737.5 584.567147554496,762.5 562.9165124598851,775.0 541.2658773652742,762.5 541.2658773652742,737.5 562.9165124598851,725.0" stroke="black" stroke-width="1" /><polygon fill="#FFFFFF" points="584.567147554496,812.5 584.567147554496,837.5 562.9165124598851,850.0 541.2658773652742,837.5 541.2658773652742,812.5 562.9165124598851,800.0" stroke="black" stroke-width="1" /><polygon fill="#FFFFFF" points="584.567147554496,887.5 584.567147554496,912.5 562.9165124598851,925.0 541.2658773652742,912.5 541.2658773652742,887.5 562.9165124598851,875.0" stroke="black" stroke-width="1" /><polygon fill="#FFFFFF" points="584.567147554496,962.5 584.567147554496,987.5 562.9165124598851,1000.0 541.2658773652742,987.5 541.2658773652742,962.5 562.9165124598851,950.0" stroke="black" stroke-width="1" /><polygon fill="#FFFFFF" points="584.567147554496,1037.5 584.567147554496,1062.5 562.9165124598851,1075.0 541.2658773652742,1062.5 541.2658773652742,1037.5 562.9165124598851,1025.0" stroke="black" stroke-width="1" /><polygon fill="#FFFFFF" points="584.567147554496,1112.5 584.567147554496,1137.5 562.9165124598851,1150.0 541.2658773652742,1137.5 541.2658773652742,1112.5 562.9165124598851,1100.0" stroke="black" stroke-width="1" /><polygon fill="#FFFFFF" points="584.567147554496,1187.5 584.567147554496,1212.5 562.9165124598851,1225.0 541.2658773652742,1212.5 541.2658773652742,1187.5 562.9165124598851,1175.0" stroke="black" stroke-width="1" /><polygon fill="#FFFFFF" points="606.217782649107,775.0 606.217782649107,800.0 584.567147554496,812.5 562.9165124598851,800.0 562.9165124598851,775.0 584.567147554496,762.5" stroke="black" stroke-width="1" /><polygon fill="#FFFFFF" points="606.217782649107,850.0 606.217782649107,875.0 584.567147554496,887.5 562.9165124598851,875.0 562.9165124598851,850.0 584.567147554496,837.5" stroke="black" stroke-width="1" /><polygon fill="#FFFFFF" points="606.217782649107,925.0 606.217782649107,950.0 584.567147554496,962.5 562.9165124598851,950.0 562.9165124598851,925.0 584.567147554496,912.5" stroke="black" stroke-width="1" /><polygon fill="#FFFFFF" points="606.217782649107,1000.0 606.217782649107,1025.0 584.567147554496,1037.5 562.9165124598851,1025.0 562.9165124598851,1000.0 584.567147554496,987.5" stroke="black" stroke-width="1" /><polygon fill="#FFFFFF" points="606.217782649107,1075.0 606.217782649107,1100.0 584.567147554496,1112.5 562.9165124598851,1100.0 562.9165124598851,1075.0 584.567147554496,1062.5" stroke="black" stroke-width="1" /><polygon fill="#FFFFFF" points="606.217782649107,1150.0 606.217782649107,1175.0 584.567147554496,1187.5 562.9165124598851,1175.0 562.9165124598851,1150.0 584.567147554496,1137.5" stroke="black" stroke-width="1" /><polygon fill="#FFFFFF" points="627.8684177437179,737.5 627.8684177437179,762.5 606.217782649107,775.0 584.567147554496,762.5 584.567147554496,737.5 606.217782649107,725.0" stroke="black" stroke-width="1" /><polygon fill="#FFFFFF" points="627.8684177437179,812.5 627.8684177437179,837.5 606.217782649107,850.0 584.567147554496,837.5 584.567147554496,812.5 606.217782649107,800.0" stroke="black" stroke-width="1" /><polygon fill="#FFFFFF" points="627.8684177437179,887.5 627.8684177437179,912.5 606.217782649107,925.0 584.567147554496,912.5 584.567147554496,887.5 606.217782649107,875.0" stroke="black" stroke-width="1" /><polygon fill="#FFFFFF" points="627.8684177437179,962.5 627.8684177437179,987.5 606.217782649107,1000.0 584.567147554496,987.5 584.567147554496,962.5 606.217782649107,950.0" stroke="black" stroke-width="1" /><polygon fill="#FFFFFF" points="627.8684177437179,1037.5 627.8684177437179,1062.5 606.217782649107,1075.0 584.567147554496,1062.5 584.567147554496,1037.5 606.217782649107,1025.0" stroke="black" stroke-width="1" /><polygon fill="#FFFFFF" points="627.8684177437179,1112.5 627.8684177437179,1137.5 606.217782649107,1150.0 584.567147554496,1137.5 584.567147554496,1112.5 606.217782649107,1100.0" stroke="black" stroke-width="1" /><polygon fill="#FFFFFF" points="627.8684177437179,1187.5 627.8684177437179,1212.5 606.217782649107,1225.0 584.567147554496,1212.5 584.567147554496,1187.5 606.217782649107,1175.0" stroke="black" stroke-width="1" /><polygon fill="#FFFFFF" points="649.519052838329,775.0 649.519052838329,800.0 627.868417743718,812.5 606.2177826491071,800.0 606.2177826491071,775.0 627.868417743718,762.5" stroke="black" stroke-width="1" /><polygon fill="#FFFFFF" points="649.519052838329,850.0 649.519052838329,875.0 627.868417743718,887.5 606.2177826491071,875.0 606.2177826491071,850.0 627.868417743718,837.5" stroke="black" stroke-width="1" /><polygon fill="#FFFFFF" points="649.519052838329,925.0 649.519052838329,950.0 627.868417743718,962.5 606.2177826491071,950.0 606.2177826491071,925.0 627.868417743718,912.5" stroke="black" stroke-width="1" /><polygon fill="#FFFFFF" points="649.519052838329,1000.0 649.519052838329,1025.0 627.868417743718,1037.5 606.2177826491071,1025.0 606.2177826491071,1000.0 627.868417743718,987.5" stroke="black" stroke-width="1" /><polygon fill="#FFFFFF" points="649.519052838329,1075.0 649.519052838329,1100.0 627.868417743718,1112.5 606.2177826491071,1100.0 606.2177826491071,1075.0 627.868417743718,1062.5" stroke="black" stroke-width="1" /><polygon fill="#FFFFFF" points="649.519052838329,1150.0 649.519052838329,1175.0 627.868417743718,1187.5 606.2177826491071,1175.0 606.2177826491071,1150.0 627.868417743718,1137.5" stroke="black" stroke-width="1" /><polygon fill="#FFFFFF" points="671.16968793294,812.5 671.16968793294,837.5 649.519052838329,850.0 627.868417743718,837.5 627.868417743718,812.5 649.519052838329,800.0" stroke="black" stroke-width="1" /><polygon fill="#FFFFFF" points="671.16968793294,887.5 671.16968793294,912.5 649.519052838329,925.0 627.868417743718,912.5 627.868417743718,887.5 649.519052838329,875.0" stroke="black" stroke-width="1" /><polygon fill="#FFFFFF" points="671.16968793294,962.5 671.16968793294,987.5 649.519052838329,1000.0 627.868417743718,987.5 627.868417743718,962.5 649.519052838329,950.0" stroke="black" stroke-width="1" /><polygon fill="#FFFFFF" points="671.16968793294,1037.5 671.16968793294,1062.5 649.519052838329,1075.0 627.868417743718,1062.5 627.868417743718,1037.5 649.519052838329,1025.0" stroke="black" stroke-width="1" /><polygon fill="#FFFFFF" points="671.16968793294,1112.5 671.16968793294,1137.5 649.519052838329,1150.0 627.868417743718,1137.5 627.868417743718,1112.5 649.519052838329,1100.0" stroke="black" stroke-width="1" /><polygon fill="#FFFFFF" points="671.16968793294,1187.5 671.16968793294,1212.5 649.519052838329,1225.0 627.868417743718,1212.5 627.868417743718,1187.5 649.519052838329,1175.0" stroke="black" stroke-width="1" /><polygon fill="#FFFFFF" points="692.8203230275509,775.0 692.8203230275509,800.0 671.16968793294,812.5 649.519052838329,800.0 649.519052838329,775.0 671.16968793294,762.5" stroke="black" stroke-width="1" /><polygon fill="#FFFFFF" points="692.8203230275509,850.0 692.8203230275509,875.0 671.16968793294,887.5 649.519052838329,875.0 649.519052838329,850.0 671.16968793294,837.5" stroke="black" stroke-width="1" /><polygon fill="#FFFFFF" points="692.8203230275509,925.0 692.8203230275509,950.0 671.16968793294,962.5 649.519052838329,950.0 649.519052838329,925.0 671.16968793294,912.5" stroke="black" stroke-width="1" /><polygon fill="#FFFFFF" points="692.8203230275509,1000.0 692.8203230275509,1025.0 671.16968793294,1037.5 649.519052838329,1025.0 649.519052838329,1000.0 671.16968793294,987.5" stroke="black" stroke-width="1" /><polygon fill="#FFFFFF" points="692.8203230275509,1075.0 692.8203230275509,1100.0 671.16968793294,1112.5 649.519052838329,1100.0 649.519052838329,1075.0 671.16968793294,1062.5" stroke="black" stroke-width="1" /><polygon fill="#FFFFFF" points="692.8203230275509,1150.0 692.8203230275509,1175.0 671.16968793294,1187.5 649.519052838329,1175.0 649.519052838329,1150.0 671.16968793294,1137.5" stroke="black" stroke-width="1" /><polygon fill="#FFFFFF" points="714.4709581221618,812.5 714.4709581221618,837.5 692.8203230275509,850.0 671.16968793294,837.5 671.16968793294,812.5 692.8203230275509,800.0" stroke="black" stroke-width="1" /><polygon fill="#FFFFFF" points="714.4709581221618,887.5 714.4709581221618,912.5 692.8203230275509,925.0 671.16968793294,912.5 671.16968793294,887.5 692.8203230275509,875.0" stroke="black" stroke-width="1" /><polygon fill="#FFFFFF" points="714.4709581221618,962.5 714.4709581221618,987.5 692.8203230275509,1000.0 671.16968793294,987.5 671.16968793294,962.5 692.8203230275509,950.0" stroke="black" stroke-width="1" /><polygon fill="#FFFFFF" points="714.4709581221618,1037.5 714.4709581221618,1062.5 692.8203230275509,1075.0 671.16968793294,1062.5 671.16968793294,1037.5 692.8203230275509,1025.0" stroke="black" stroke-width="1" /><polygon fill="#FFFFFF" points="714.4709581221618,1112.5 714.4709581221618,1137.5 692.8203230275509,1150.0 671.16968793294,1137.5 671.16968793294,1112.5 692.8203230275509,1100.0" stroke="black" stroke-width="1" /><polygon fill="#FFFFFF" points="714.4709581221618,1187.5 714.4709581221618,1212.5 692.8203230275509,1225.0 671.16968793294,1212.5 671.16968793294,1187.5 692.8203230275509,1175.0" stroke="black" stroke-width="1" /></svg>