<?xml version="1.0" encoding="utf-8" ?>
<svg baseProfile="basic" height="133.17814692982745cm" version="1.1" viewBox="0,0,1932.2127089449273,799.0688815789647" width="322.03545149082123cm" xmlns="http://www.w3.org/2000/svg" xmlns:ev="http://www.w3.org/2001/xml-events" xmlns:xlink="http://www.w3.org/1999/xlink"><defs /><polygon fill="#FFFFFF" points="285.7883832488647,555.0 285.7883832488647,570.0 272.7980021920981,577.5 259.80762113533154,570.0 259.80762113533154,555.0 272.7980021920981,547.5" stroke="black" stroke-width="1" /><polygon fill="#FFFFFF" points="285.7883832488647,600.0 285.7883832488647,615.0 272.7980021920981,622.5 259.80762113533154,615.0 259.80762113533154,600.0 272.7980021920981,592.5" stroke="black" stroke-width="1" /><polygon fill="#FFFFFF" points="285.7883832488647,645.0 285.7883832488647,660.0 272.7980021920981,667.5 259.80762113533154,660.0 259.80762113533154,645.0 272.7980021920981,637.5" stroke="black" stroke-width="1" /><polygon fill="#FFFFFF" points="285.7883832488647,690.0 285.7883832488647,705.0 272.7980021920981,712.5 259.80762113533154,705.0 259.80762113533154,690.0 272.7980021920981,682.5" stroke="black" stroke-width="1" /><polygon fill="#FFFFFF" points="298.7787643056313,532.5 298.7787643056313,547.5 285.7883832488647,555.0 272.7980021920981,547.5 272.7980021920981,532.5 285.7883832488647,525.0" stroke="black" stroke-width="1" /><polygon fill="#FFFFFF" points="298.7787643056313,577.5 298.7787643056313,592.5 285.7883832488647,600.0 272.7980021920981,592.5 272.7980021920981,577.5 285.7883832488647,570.0" stroke="black" stroke-width="1" /><polygon fill="#FFFFFF" points="298.7787643056313,622.5 298.7787643056313,637.5 285.7883832488647,645.0 272.7980021920981,637.5 272.7980021920981,622.5 285.7883832488647,615.0" stroke="black" stroke-width="1" /><polygon fill="#FFFFFF" points="298.7787643056313,667.5 298.7787643056313,682.5 285.7883832488647,690.0 272.7980021920981,682.5 272.7980021920981,667.5 285.7883832488647,660.0" stroke="black" stroke-width="1" /><polygon fill="#FFFFFF" points="298.7787643056313,712.5 298.7787643056313,727.5 285.7883832488647,735.0 272.7980021920981,727.5 272.7980021920981,712.5 285.7883832488647,705.0" stroke="black" stroke-width="1" /><polygon fill="#FFFFFF" points="311.76914536239786,510.0 311.76914536239786,525.0 298.7787643056313,532.5 285.7883832488647,525.0 285.7883832488647,510.0 298.7787643056313,502.5" stroke="black" stroke-width="1" /><polygon fill="#FFFFFF" points="311.76914536239786,555.0 311.76914536239786,570.0 298.7787643056313,577.5 285.7883832488647,570.0 285.7883832488647,555.0 298.7787643056313,547.5" stroke="black" stroke-width="1" /><polygon fill="#FFFFFF" points="311.76914536239786,600.0 311.76914536239786,615.0 298.7787643056313,622.5 285.7883832488647,615.0 285.7883832488647,600.0 298.7787643056313,592.5" stroke="black" stroke-width="1" /><polygon fill="#FFFFFF" points="311.76914536239786,645.0 311.76914536239786,660.0 298.7787643056313,667.5 285.7883832488647,660.0 285.7883832488647,645.0 298.7787643056313,637.5" stroke="black" stroke-width="1" /><polygon fill="#FFFFFF" points="311.76914536239786,690.0 311.76914536239786,705.0 298.7787643056313,712.5 285.7883832488647,705.0 285.7883832488647,690.0 298.7787643056313,682.5" stroke="black" stroke-width="1" /><polygon fill="#FFFFFF" points="324.75952641916444,487.5 324.75952641916444,502.5 311.76914536239786,510.0 298.7787643056313,502.5 298.7787643056313,487.5 311.76914536239786,480.0" stroke="black" stroke-width="1" /><polygon fill="#FFFFFF" points="324.75952641916444,532.5 324.75952641916444,547.5 311.76914536239786,555.0 298.7787643056313,547.5 298.7787643056313,532.5 311.76914536239786,525.0" stroke="black" stroke-width="1" /><polygon fill="#FFFFFF" points="324.75952641916444,577.5 324.75952641916444,592.5 311.76914536239786,600.0 298.7787643056313,592.5 298.7787643056313,577.5 311.76914536239786,570.0" stroke="black" stroke-width="1" /><polygon fill="#FFFFFF" points="324.75952641916444,622.5 324.75952641916444,637.5 311.76914536239786,645.0 298.7787643056313,637.5 298.7787643056313,622.5 311.76914536239786,615.0" stroke="black" stroke-width="1" /><polygon fill="#FFFFFF" points="324.75952641916444,667.5 324.75952641916444,682.5 311.76914536239786,690.0 298.7787643056313,682.5 298.7787643056313,667.5 311.76914536239786,660.0" stroke="black" stroke-width="1" /><polygon fill="#FFFFFF" points="324.75952641916444,712.5 324.75952641916444,727.5 311.76914536239786,735.0 298.7787643056313,727.5 298.7787643056313,712.5 311.76914536239786,705.0" stroke="black" stroke-width="1" /><polygon fill="#FFFFFF" points="337.749907475931,465.0 337.749907475931,480.0 324.75952641916444,487.5 311.76914536239786,480.0 311.76914536239786,465.0 324.75952641916444,457.5" stroke="black" stroke-width="1" /><polygon fill="#FFFFFF" points="337.749907475931,510.0 337.749907475931,525.0 324.75952641916444,532.5 311.76914536239786,525.0 311.76914536239786,510.0 324.75952641916444,502.5" stroke="black" stroke-width="1" /><polygon fill="#FFFFFF" points="337.749907475931,555.0 337.749907475931,570.0 324.75952641916444,577.5 311.76914536239786,570.0 311.76914536239786,555.0 324.75952641916444,547.5" stroke="black" stroke-width="1" /><polygon fill="#FFFFFF" points="337.749907475931,600.0 337.749907475931,615.0 324.75952641916444,622.5 311.76914536239786,615.0 311.76914536239786,600.0 324.75952641916444,592.5" stroke="black" stroke-width="1" /><polygon fill="#FFFFFF" points="337.749907475931,645.0 337.749907475931,660.0 324.75952641916444,667.5 311.76914536239786,660.0 311.76914536239786,645.0 324.75952641916444,637.5" stroke="black" stroke-width="1" /><polygon fill="#FFFFFF" points="337.749907475931,690.0 337.749907475931,705.0 324.75952641916444,712.5 311.76914536239786,705.0 311.76914536239786,690.0 324.75952641916444,682.5" stroke="black" stroke-width="1" /><polygon fill="#FFFFFF" points="350.7402885326976,442.5 350.7402885326976,457.5 337.749907475931,465.0 324.75952641916444,457.5 324.75952641916444,442.5 337.749907475931,435.0" stroke="black" stroke-width="1" /><polygon fill="#FFFFFF" points="350.7402885326976,487.5 350.7402885326976,502.5 337.749907475931,510.0 324.75952641916444,502.5 324.75952641916444,487.5 337.749907475931,480.0" stroke="black" stroke-width="1" /><polygon fill="#FFFFFF" points="350.7402885326976,532.5 350.7402885326976,547.5 337.749907475931,555.0 324.75952641916444,547.5 324.75952641916444,532.5 337.749907475931,525.0" stroke="black" stroke-width="1" /><polygon fill="#FFFFFF" points="350.7402885326976,577.5 350.7402885326976,592.5 337.749907475931,600.0 324.75952641916444,592.5 324.75952641916444,577.5 337.749907475931,570.0" stroke="black" stroke-width="1" /><polygon fill="#FFFFFF" points="350.7402885326976,622.5 350.7402885326976,637.5 337.749907475931,645.0 324.75952641916444,637.5 324.75952641916444,622.5 337.749907475931,615.0" stroke="black" stroke-width="1" /><polygon fill="#FFFFFF" points="350.7402885326976,667.5 350.7402885326976,682.5 337.749907475931,690.0 324.75952641916444,682.5 324.75952641916444,667.5 337.749907475931,660.0" stroke="black" stroke-width="1" /><polygon fill="#FFFFFF" points="350.7402885326976,712.5 350.7402885326976,727.5 337.749907475931,735.0 324.75952641916444,727.5 324.75952641916444,712.5 337.749907475931,705.0" stroke="black" stroke-width="1" /><polygon fill="#FFFFFF" points="363.7306695894642,465.0 363.7306695894642,480.0 350.7402885326976,487.5 337.749907475931,480.0 337.749907475931,465.0 350.7402885326976,457.5" stroke="black" stroke-width="1" /><polygon fill="#FFFFFF" points="363.7306695894642,510.0 363.7306695894642,525.0 350.7402885326976,532.5 337.749907475931,525.0 337.749907475931,510.0 350.7402885326976,502.5" stroke="black" stroke-width="1" /><polygon fill="#FFFFFF" points="363.7306695894642,555.0 363.7306695894642,570.0 350.7402885326976,577.5 337.749907475931,570.0 337.749907475931,555.0 350.7402885326976,547.5" stroke="black" stroke-width="1" /><polygon fill="#FFFFFF" points="363.7306695894642,600.0 363.7306695894642,615.0 350.7402885326976,622.5 337.749907475931,615.0 337.749907475931,600.0 350.7402885326976,592.5" stroke="black" stroke-width="1" /><polygon fill="#FFFFFF" points="363.7306695894642,645.0 363.7306695894642,660.0 350.7402885326976,667.5 337.749907475931,660.0 337.749907475931,645.0 350.7402885326976,637.5" stroke="black" stroke-width="1" /><polygon fill="#FFFFFF" points="363.7306695894642,690.0 363.7306695894642,705.0 350.7402885326976,712.5 337.749907475931,705.0 337.749907475931,690.0 350.7402885326976,682.5" stroke="black" stroke-width="1" /><polygon fill="#FFFFFF" points="376.72105064623076,442.5 376.72105064623076,457.5 363.7306695894642,465.0 350.7402885326976,457.5 350.7402885326976,442.5 363.7306695894642,435.0" stroke="black" stroke-width="1" /><polygon fill="#FFFFFF" points="376.72105064623076,487.5 376.72105064623076,502.5 363.7306695894642,510.0 350.7402885326976,502.5 350.7402885326976,487.5 363.7306695894642,480.0" stroke="black" stroke-width="1" /><polygon fill="#FFFFFF" points="376.72105064623076,532.5 376.72105064623076,547.5 363.7306695894642,555.0 350.7402885326976,547.5 350.7402885326976,532.5 363.7306695894642,525.0" stroke="black" stroke-width="1" /><polygon fill="#FFFFFF" points="376.72105064623076,577.5 376.72105064623076,592.5 363.7306695894642,600.0 350.7402885326976,592.5 350.7402885326976,577.5 363.7306695894642,570.0" stroke="black" stroke-width="1" /><polygon fill="#FFFFFF" points="376.72105064623076,622.5 376.72105064623076,637.5 363.7306695894642,645.0 350.7402885326976,637.5 350.7402885326976,622.5 363.7306695894642,615.0" stroke="black" stroke-width="1" /><polygon fill="#FFFFFF" points="376.72105064623076,667.5 376.72105064623076,682.5 363.7306695894642,690.0 350.7402885326976,682.5 350.7402885326976,667.5 363.7306695894642,660.0" stroke="black" stroke-width="1" /><polygon fill="#FFFFFF" points="376.72105064623076,712.5 376.72105064623076,727.5 363.7306695894642,735.0 350.7402885326976,727.5 350.7402885326976,712.5 363.7306695894642,705.0" stroke="black" stroke-width="1" /><polygon fill="#FFFFFF" points="389.71143170299734,465.0 389.71143170299734,480.0 376.72105064623076,487.5 363.7306695894642,480.0 363.7306695894642,465.0 376.72105064623076,457.5" stroke="black" stroke-width="1" /><polygon fill="#FFFFFF" points="389.71143170299734,510.0 389.71143170299734,525.0 376.72105064623076,532.5 363.7306695894642,525.0 363.7306695894642,510.0 376.72105064623076,502.5" stroke="black" stroke-width="1" /><polygon fill="#FFFFFF" points="389.71143170299734,555.0 389.71143170299734,570.0 376.72105064623076,577.5 363.7306695894642,570.0 363.7306695894642,555.0 376.72105064623076,547.5" stroke="black" stroke-width="1" /><polygon fill="#FFFFFF" points="389.71143170299734,600.0 389.71143170299734,615.0 376.72105064623076,622.5 363.7306695894642,615.0 363.7306695894642,600.0 376.72105064623076,592.5" stroke="black" stroke-width="1" /><polygon fill="#FFFFFF" points="389.71143170299734,645.0 389.71143170299734,660.0 376.72105064623076,667.5 363.7306695894642,660.0 363.7306695894642,645.0 376.72105064623076,637.5" stroke="black" stroke-width="1" /><polygon fill="#FFFFFF" points="389.71143170299734,690.0 389.71143170299734,705.0 376.72105064623076,712.5 363.7306695894642,705.0 363.7306695894642,690.0 376.72105064623076,682.5" stroke="black" stroke-width="1" /><polygon fill="#FFFFFF" points="402.7018127597639,487.5 402.7018127597639,502.5 389.71143170299734,510.0 376.72105064623076,502.5 376.72105064623076,487.5 389.71143170299734,480.0" stroke="black" stroke-width="1" /><polygon fill="#FFFFFF" points="402.7018127597639,532.5 402.7018127597639,547.5 389.71143170299734,555.0 376.72105064623076,547.5 376.72105064623076,532.5 389.71143170299734,525.0" stroke="black" stroke-width="1" /><polygon fill="#FFFFFF" points="402.7018127597639,577.5 402.7018127597639,592.5 389.71143170299734,600.0 376.72105064623076,592.5 376.72105064623076,577.5 389.71143170299734,570.0" stroke="black" stroke-width="1" /><polygon fill="#FFFFFF" points="402.7018127597639,622.5 402.7018127597639,637.5 389.71143170299734,645.0 376.72105064623076,637.5 376.72105064623076,622.5 389.71143170299734,615.0" stroke="black" stroke-width="1" /><polygon fill="#FFFFFF" points="402.7018127597639,667.5 402.7018127597639,682.5 389.71143170299734,690.0 376.72105064623076,682.5 376.72105064623076,667.5 389.71143170299734,660.0" stroke="black" stroke-width="1" /><polygon fill="#FFFFFF" points="402.7018127597639,712.5 402.7018127597639,727.5 389.71143170299734,735.0 376.72105064623076,727.5 376.72105064623076,712.5 389.71143170299734,705.0" stroke="black" stroke-width="1" /><polygon fill="#FFFFFF" points="415.6921938165305,465.0 415.6921938165305,480.0 402.7018127597639,487.5 389.71143170299734,480.0 389.71143170299734,465.0 402.7018127597639,457.5" stroke="black" stroke-width="1" /><polygon fill="#FFFFFF" points="415.6921938165305,510.0 415.6921938165305,525.0 402.7018127597639,532.5 389.71143170299734,525.0 389.71143170299734,510.0 402.7018127597639,502.5" stroke="black" stroke-width="1" /><polygon fill="#FFFFFF" points="415.6921938165305,555.0 415.6921938165305,570.0 402.7018127597639,577.5 389.71143170299734,570.0 389.71143170299734,555.0 402.7018127597639,547.5" stroke="black" stroke-width="1" /><polygon fill="#FFFFFF" points="415.6921938165305,600.0 415.6921938165305,615.0 402.7018127597639,622.5 389.71143170299734,615.0 389.71143170299734,600.0 402.7018127597639,592.5" stroke="black" stroke-width="1" /><polygon fill="#FFFFFF" points="415.6921938165305,645.0 415.6921938165305,660.0 402.7018127597639,667.5 389.71143170299734,660.0 389.71143170299734,645.0 402.7018127597639,637.5" stroke="black" stroke-width="1" /><polygon fill="#FFFFFF" points="415.6921938165305,690.0 415.6921938165305,705.0 402.7018127597639,712.5 389.71143170299734,705.0 389.71143170299734,690.0 402.7018127597639,682.5" stroke="black" stroke-width="1" /><polygon fill="#FFFFFF" points="428.6825748732971,487.5 428.6825748732971,502.5 415.6921938165305,510.0 402.7018127597639,502.5 402.7018127597639,487.5 415.6921938165305,480.0" stroke="black" stroke-width="1" /><polygon fill="#FFFFFF" points="428.6825748732971,532.5 428.6825748732971,547.5 415.6921938165305,555.0 402.7018127597639,547.5 402.7018127597639,532.5 415.6921938165305,525.0" stroke="black" stroke-width="1" /><polygon fill="#FFFFFF" points="428.6825748732971,577.5 428.6825748732971,592.5 415.6921938165305,600.0 402.7018127597639,592.5 402.7018127597639,577.5 415.6921938165305,570.0" stroke="black" stroke-width="1" /><polygon fill="#FFFFFF" points="428.6825748732971,622.5 428.6825748732971,637.5 415.6921938165305,645.0 402.7018127597639,637.5 402.7018127597639,622.5 415.6921938165305,615.0" stroke="black" stroke-width="1" /><polygon fill="#FFFFFF" points="428.6825748732971,667.5 428.6825748732971,682.5 415.6921938165305,690.0 402.7018127597639,682.5 402.7018127597639,667.5 415.6921938165305,660.0" stroke="black" stroke-width="1" /><polygon fill="#FFFFFF" points="428.6825748732971,712.5 428.6825748732971,727.5 415.6921938165305,735.0 402.7018127597639,727.5 402.7018127597639,712.5 415.6921938165305,705.0" stroke="black" stroke-width="1" /></svg>