<?xml version="1.0" encoding="utf-8" ?>
<svg baseProfile="basic" height="133.17814692982745cm" version="1.1" viewBox="0,0,3220.3545149082124,1331.7814692982745" width="322.03545149082123cm" xmlns="http://www.w3.org/2000/svg" xmlns:ev="http://www.w3.org/2001/xml-events" xmlns:xlink="http://www.w3.org/1999/xlink"><defs /><polygon fill="#FFFFFF" points="2879.5344675832584,287.5 2879.5344675832584,312.5 2857.8838324886474,325.0 2836.2331973940363,312.5 2836.2331973940363,287.5 2857.8838324886474,275.0" stroke="black" stroke-width="1" /><polygon fill="#FFFFFF" points="2879.5344675832584,362.5 2879.5344675832584,387.5 2857.8838324886474,400.0 2836.2331973940363,387.5 2836.2331973940363,362.5 2857.8838324886474,350.0" stroke="black" stroke-width="1" /><polygon fill="#FFFFFF" points="2879.5344675832584,437.5 2879.5344675832584,462.5 2857.8838324886474,475.0 2836.2331973940363,462.5 2836.2331973940363,437.5 2857.8838324886474,425.0" stroke="black" stroke-width="1" /><polygon fill="#FFFFFF" points="2879.5344675832584,512.5 2879.5344675832584,537.5 2857.8838324886474,550.0 2836.2331973940363,537.5 2836.2331973940363,512.5 2857.8838324886474,500.0" stroke="black" stroke-width="1" /><polygon fill="#FFFFFF" points="2879.5344675832584,587.5 2879.5344675832584,612.5 2857.8838324886474,625.0 2836.2331973940363,612.5 2836.2331973940363,587.5 2857.8838324886474,575.0" stroke="black" stroke-width="1" /><polygon fill="#FFFFFF" points="2901.1851026778695,325.0 2901.1851026778695,350.0 2879.5344675832584,362.5 2857.8838324886474,350.0 2857.8838324886474,325.0 2879.5344675832584,312.5" stroke="black" stroke-width="1" /><polygon fill="#FFFFFF" points="2901.1851026778695,400.0 2901.1851026778695,425.0 2879.5344675832584,437.5 2857.8838324886474,425.0 2857.8838324886474,400.0 2879.5344675832584,387.5" stroke="black" stroke-width="1" /><polygon fill="#FFFFFF" points="2901.1851026778695,475.0 2901.1851026778695,500.0 2879.5344675832584,512.5 2857.8838324886474,500.0 2857.8838324886474,475.0 2879.5344675832584,462.5" stroke="black" stroke-width="1" /><polygon fill="#FFFFFF" points="2901.1851026778695,550.0 2901.1851026778695,575.0 2879.5344675832584,587.5 2857.8838324886474,575.0 2857.8838324886474,550.0 2879.5344675832584,537.5" stroke="black" stroke-width="1" /><polygon fill="#FFFFFF" points="2922.8357377724806,287.5 2922.8357377724806,312.5 2901.1851026778695,325.0 2879.5344675832584,312.5 2879.5344675832584,287.5 2901.1851026778695,275.0" stroke="black" stroke-width="1" /><polygon fill="#FFFFFF" points="2922.8357377724806,362.5 2922.8357377724806,387.5 2901.1851026778695,400.0 2879.5344675832584,387.5 2879.5344675832584,362.5 2901.1851026778695,350.0" stroke="black" stroke-width="1" /><polygon fill="#FFFFFF" points="2922.8357377724806,437.5 2922.8357377724806,462.5 2901.1851026778695,475.0 2879.5344675832584,462.5 2879.5344675832584,437.5 2901.1851026778695,425.0" stroke="black" stroke-width="1" /><polygon fill="#FFFFFF" points="2922.8357377724806,512.5 2922.8357377724806,537.5 2901.1851026778695,550.0 2879.5344675832584,537.5 2879.5344675832584,512.5 2901.1851026778695,500.0" stroke="black" stroke-width="1" /><polygon fill="#FFFFFF" points="2922.8357377724806,587.5 2922.8357377724806,612.5 2901.1851026778695,625.0 2879.5344675832584,612.5 2879.5344675832584,587.5 2901.1851026778695,575.0" stroke="black" stroke-width="1" /><polygon fill="#FFFFFF" points="2944.4863728670916,250.0 2944.4863728670916,275.0 2922.8357377724806,287.5 2901.1851026778695,275.0 2901.1851026778695,250.0 2922.8357377724806,237.5" stroke="black" stroke-width="1" /><polygon fill="#FFFFFF" points="2944.4863728670916,325.0 2944.4863728670916,350.0 2922.8357377724806,362.5 2901.1851026778695,350.0 2901.1851026778695,325.0 2922.8357377724806,312.5" stroke="black" stroke-width="1" /><polygon fill="#FFFFFF" points="2944.4863728670916,400.0 2944.4863728670916,425.0 2922.8357377724806,437.5 2901.1851026778695,425.0 2901.1851026778695,400.0 2922.8357377724806,387.5" stroke="black" stroke-width="1" /><polygon fill="#FFFFFF" points="2944.4863728670916,475.0 2944.4863728670916,500.0 2922.8357377724806,512.5 2901.1851026778695,500.0 2901.1851026778695,475.0 2922.8357377724806,462.5" stroke="black" stroke-width="1" /><polygon fill="#FFFFFF" points="2944.4863728670916,550.0 2944.4863728670916,575.0 2922.8357377724806,587.5 2901.1851026778695,575.0 2901.1851026778695,550.0 2922.8357377724806,537.5" stroke="black" stroke-width="1" /><polygon fill="#FFFFFF" points="2966.1370079617022,137.5 2966.1370079617022,162.5 2944.486372867091,175.0 2922.83573777248,162.5 2922.83573777248,137.5 2944.486372867091,125.0" stroke="black" stroke-width="1" /><polygon fill="#FFFFFF" points="2966.1370079617022,212.5 2966.1370079617022,237.5 2944.486372867091,250.0 2922.83573777248,237.5 2922.83573777248,212.5 2944.486372867091,200.0" stroke="black" stroke-width="1" /><polygon fill="#FFFFFF" points="2966.1370079617022,287.5 2966.1370079617022,312.5 2944.486372867091,325.0 2922.83573777248,312.5 2922.83573777248,287.5 2944.486372867091,275.0" stroke="black" stroke-width="1" /><polygon fill="#FFFFFF" points="2966.1370079617022,362.5 2966.1370079617022,387.5 2944.486372867091,400.0 2922.83573777248,387.5 2922.83573777248,362.5 2944.486372867091,350.0" stroke="black" stroke-width="1" /><polygon fill="#FFFFFF" points="2966.1370079617022,437.5 2966.1370079617022,462.5 2944.486372867091,475.0 2922.83573777248,462.5 2922.83573777248,437.5 2944.486372867091,425.0" stroke="black" stroke-width="1" /><polygon fill="#FFFFFF" points="2966.1370079617022,512.5 2966.1370079617022,537.5 2944.486372867091,550.0 2922.83573777248,537.5 2922.83573777248,512.5 2944.486372867091,500.0" stroke="black" stroke-width="1" /><polygon fill="#FFFFFF" points="2966.1370079617022,587.5 2966.1370079617022,612.5 2944.486372867091,625.0 2922.83573777248,612.5 2922.83573777248,587.5 2944.486372867091,575.0" stroke="black" stroke-width="1" /><polygon fill="#FFFFFF" points="2987.7876430563133,100.0 2987.7876430563133,125.0 2966.1370079617022,137.5 2944.486372867091,125.0 2944.486372867091,100.0 2966.1370079617022,87.5" stroke="black" stroke-width="1" /><polygon fill="#FFFFFF" points="2987.7876430563133,175.0 2987.7876430563133,200.0 2966.1370079617022,212.5 2944.486372867091,200.0 2944.486372867091,175.0 2966.1370079617022,162.5" stroke="black" stroke-width="1" /><polygon fill="#FFFFFF" points="2987.7876430563133,250.0 2987.7876430563133,275.0 2966.1370079617022,287.5 2944.486372867091,275.0 2944.486372867091,250.0 2966.1370079617022,237.5" stroke="black" stroke-width="1" /><polygon fill="#FFFFFF" points="2987.7876430563133,325.0 2987.7876430563133,350.0 2966.1370079617022,362.5 2944.486372867091,350.0 2944.486372867091,325.0 2966.1370079617022,312.5" stroke="black" stroke-width="1" /><polygon fill="#FFFFFF" points="2987.7876430563133,400.0 2987.7876430563133,425.0 2966.1370079617022,437.5 2944.486372867091,425.0 2944.486372867091,400.0 2966.1370079617022,387.5" stroke="black" stroke-width="1" /><polygon fill="#FFFFFF" points="2987.7876430563133,475.0 2987.7876430563133,500.0 2966.1370079617022,512.5 2944.486372867091,500.0 2944.486372867091,475.0 2966.1370079617022,462.5" stroke="black" stroke-width="1" /><polygon fill="#FFFFFF" points="2987.7876430563133,550.0 2987.7876430563133,575.0 2966.1370079617022,587.5 2944.486372867091,575.0 2944.486372867091,550.0 2966.1370079617022,537.5" stroke="black" stroke-width="1" /><polygon fill="#FFFFFF" points="3009.4382781509244,137.5 3009.4382781509244,162.5 2987.7876430563133,175.0 2966.1370079617022,162.5 2966.1370079617022,137.5 2987.7876430563133,125.0" stroke="black" stroke-width="1" /><polygon fill="#FFFFFF" points="3009.4382781509244,212.5 3009.4382781509244,237.5 2987.7876430563133,250.0 2966.1370079617022,237.5 2966.1370079617022,212.5 2987.7876430563133,200.0" stroke="black" stroke-width="1" /><polygon fill="#FFFFFF" points="3009.4382781509244,287.5 3009.4382781509244,312.5 2987.7876430563133,325.0 2966.1370079617022,312.5 2966.1370079617022,287.5 2987.7876430563133,275.0" stroke="black" stroke-width="1" /><polygon fill="#FFFFFF" points="3009.4382781509244,362.5 3009.4382781509244,387.5 2987.7876430563133,400.0 2966.1370079617022,387.5 2966.1370079617022,362.5 2987.7876430563133,350.0" stroke="black" stroke-width="1" /><polygon fill="#FFFFFF" points="3009.4382781509244,437.5 3009.4382781509244,462.5 2987.7876430563133,475.0 2966.1370079617022,462.5 2966.1370079617022,437.5 2987.7876430563133,425.0" stroke="black" stroke-width="1" /><polygon fill="#FFFFFF" points="3009.4382781509244,512.5 3009.4382781509244,537.5 2987.7876430563133,550.0 2966.1370079617022,537.5 2966.1370079617022,512.5 2987.7876430563133,500.0" stroke="black" stroke-width="1" /><polygon fill="#FFFFFF" points="3009.4382781509244,587.5 3009.4382781509244,612.5 2987.7876430563133,625.0 2966.1370079617022,612.5 2966.1370079617022,587.5 2987.7876430563133,575.0" stroke="black" stroke-width="1" /><polygon fill="#FFFFFF" points="3031.0889132455354,100.0 3031.0889132455354,125.0 3009.4382781509244,137.5 2987.7876430563133,125.0 2987.7876430563133,100.0 3009.4382781509244,87.5" stroke="black" stroke-width="1" /><polygon fill="#FFFFFF" points="3031.0889132455354,175.0 3031.0889132455354,200.0 3009.4382781509244,212.5 2987.7876430563133,200.0 2987.7876430563133,175.0 3009.4382781509244,162.5" stroke="black" stroke-width="1" /><polygon fill="#FFFFFF" points="3031.0889132455354,250.0 3031.0889132455354,275.0 3009.4382781509244,287.5 2987.7876430563133,275.0 2987.7876430563133,250.0 3009.4382781509244,237.5" stroke="black" stroke-width="1" /><polygon fill="#FFFFFF" points="3031.0889132455354,325.0 3031.0889132455354,350.0 3009.4382781509244,362.5 2987.7876430563133,350.0 2987.7876430563133,325.0 3009.4382781509244,312.5" stroke="black" stroke-width="1" /><polygon fill="#FFFFFF" points="3031.0889132455354,400.0 3031.0889132455354,425.0 3009.4382781509244,437.5 2987.7876430563133,425.0 2987.7876430563133,400.0 3009.4382781509244,387.5" stroke="black" stroke-width="1" /><polygon fill="#FFFFFF" points="3031.0889132455354,475.0 3031.0889132455354,500.0 3009.4382781509244,512.5 2987.7876430563133,500.0 2987.7876430563133,475.0 3009.4382781509244,462.5" stroke="black" stroke-width="1" /><polygon fill="#FFFFFF" points="3031.0889132455354,550.0 3031.0889132455354,575.0 3009.4382781509244,587.5 2987.7876430563133,575.0 2987.7876430563133,550.0 3009.4382781509244,537.5" stroke="black" stroke-width="1" /><polygon fill="#FFFFFF" points="3052.739548340146,212.5 3052.739548340146,237.5 3031.088913245535,250.0 3009.438278150924,237.5 3009.438278150924,212.5 3031.088913245535,200.0" stroke="black" stroke-width="1" /><polygon fill="#FFFFFF" points="3052.739548340146,287.5 3052.739548340146,312.5 3031.088913245535,325.0 3009.438278150924,312.5 3009.438278150924,287.5 3031.088913245535,275.0" stroke="black" stroke-width="1" /><polygon fill="#FFFFFF" points="3052.739548340146,362.5 3052.739548340146,387.5 3031.088913245535,400.0 3009.438278150924,387.5 3009.438278150924,362.5 3031.088913245535,350.0" stroke="black" stroke-width="1" /><polygon fill="#FFFFFF" points="3052.739548340146,437.5 3052.739548340146,462.5 3031.088913245535,475.0 3009.438278150924,462.5 3009.438278150924,437.5 3031.088913245535,425.0" stroke="black" stroke-width="1" /><polygon fill="#FFFFFF" points="3052.739548340146,512.5 3052.739548340146,537.5 3031.088913245535,550.0 3009.438278150924,537.5 3009.438278150924,512.5 3031.088913245535,500.0" stroke="black" stroke-width="1" /><polygon fill="#FFFFFF" points="3052.739548340146,587.5 3052.739548340146,612.5 3031.088913245535,625.0 3009.438278150924,612.5 3009.438278150924,587.5 3031.088913245535,575.0" stroke="black" stroke-width="1" /><polygon fill="#FFFFFF" points="3074.390183434757,250.0 3074.390183434757,275.0 3052.739548340146,287.5 3031.088913245535,275.0 3031.088913245535,250.0 3052.739548340146,237.5" stroke="black" stroke-width="1" /><polygon fill="#FFFFFF" points="3074.390183434757,325.0 3074.390183434757,350.0 3052.739548340146,362.5 3031.088913245535,350.0 3031.088913245535,325.0 3052.739548340146,312.5" stroke="black" stroke-width="1" /><polygon fill="#FFFFFF" points="3074.390183434757,400.0 3074.390183434757,425.0 3052.739548340146,437.5 3031.088913245535,425.0 3031.088913245535,400.0 3052.739548340146,387.5" stroke="black" stroke-width="1" /><polygon fill="#FFFFFF" points="3074.390183434757,475.0 3074.390183434757,500.0 3052.739548340146,512.5 3031.088913245535,500.0 3031.088913245535,475.0 3052.739548340146,462.5" stroke="black" stroke-width="1" /><polygon fill="#FFFFFF" points="3074.390183434757,550.0 3074.390183434757,575.0 3052.739548340146,587.5 3031.088913245535,575.0 3031.088913245535,550.0 3052.739548340146,537.5" stroke="black" stroke-width="1" /><polygon fill="#FFFFFF" points="3096.040818529368,287.5 3096.040818529368,312.5 3074.390183434757,325.0 3052.739548340146,312.5 3052.739548340146,287.5 3074.390183434757,275.0" stroke="black" stroke-width="1" /><polygon fill="#FFFFFF" points="3096.040818529368,362.5 3096.040818529368,387.5 3074.390183434757,400.0 3052.739548340146,387.5 3052.739548340146,362.5 3074.390183434757,350.0" stroke="black" stroke-width="1" /><polygon fill="#FFFFFF" points="3096.040818529368,437.5 3096.040818529368,462.5 3074.390183434757,475.0 3052.739548340146,462.5 3052.739548340146,437.5 3074.390183434757,425.0" stroke="black" stroke-width="1" /><polygon fill="#FFFFFF" points="3096.040818529368,512.5 3096.040818529368,537.5 3074.390183434757,550.0 3052.739548340146,537.5 3052.739548340146,512.5 3074.390183434757,500.0" stroke="black" stroke-width="1" /><polygon fill="#FFFFFF" points="3096.040818529368,587.5 3096.040818529368,612.5 3074.390183434757,625.0 3052.739548340146,612.5 3052.739548340146,587.5 3074.390183434757,575.0" stroke="black" stroke-width="1" /><polygon fill="#FFFFFF" points="3117.691453623979,250.0 3117.691453623979,275.0 3096.040818529368,287.5 3074.390183434757,275.0 3074.390183434757,250.0 3096.040818529368,237.5" stroke="black" stroke-width="1" /><polygon fill="#FFFFFF" points="3117.691453623979,325.0 3117.691453623979,350.0 3096.040818529368,362.5 3074.390183434757,350.0 3074.390183434757,325.0 3096.040818529368,312.5" stroke="black" stroke-width="1" /><polygon fill="#FFFFFF" points="3117.691453623979,400.0 3117.691453623979,425.0 3096.040818529368,437.5 3074.390183434757,425.0 3074.390183434757,400.0 3096.040818529368,387.5" stroke="black" stroke-width="1" /><polygon fill="#FFFFFF" points="3117.691453623979,475.0 3117.691453623979,500.0 3096.040818529368,512.5 3074.390183434757,500.0 3074.390183434757,475.0 3096.040818529368,462.5" stroke="black" stroke-width="1" /><polygon fill="#FFFFFF" points="3117.691453623979,550.0 3117.691453623979,575.0 3096.040818529368,587.5 3074.390183434757,575.0 3074.390183434757,550.0 3096.040818529368,537.5" stroke="black" stroke-width="1" /><polygon fill="#FFFFFF" points="3139.3420887185903,287.5 3139.3420887185903,312.5 3117.691453623979,325.0 3096.040818529368,312.5 3096.040818529368,287.5 3117.691453623979,275.0" stroke="black" stroke-width="1" /><polygon fill="#FFFFFF" points="3139.3420887185903,362.5 3139.3420887185903,387.5 3117.691453623979,400.0 3096.040818529368,387.5 3096.040818529368,362.5 3117.691453623979,350.0" stroke="black" stroke-width="1" /><polygon fill="#FFFFFF" points="3139.3420887185903,437.5 3139.3420887185903,462.5 3117.691453623979,475.0 3096.040818529368,462.5 3096.040818529368,437.5 3117.691453623979,425.0" stroke="black" stroke-width="1" /><polygon fill="#FFFFFF" points="3139.3420887185903,512.5 3139.3420887185903,537.5 3117.691453623979,550.0 3096.040818529368,537.5 3096.040818529368,512.5 3117.691453623979,500.0" stroke="black" stroke-width="1" /><polygon fill="#FFFFFF" points="3139.3420887185903,587.5 3139.3420887185903,612.5 3117.691453623979,625.0 3096.040818529368,612.5 3096.040818529368,587.5 3117.691453623979,575.0" stroke="black" stroke-width="1" /></svg>