<?xml version="1.0" encoding="utf-8" ?>
<svg baseProfile="basic" height="133.17814692982745cm" version="1.1" viewBox="0,0,1932.2127089449273,799.0688815789647" width="322.03545149082123cm" xmlns="http://www.w3.org/2000/svg" xmlns:ev="http://www.w3.org/2001/xml-events" xmlns:xlink="http://www.w3.org/1999/xlink"><defs /><polygon fill="#0000FF" points="1332.720680549955,172.5 1332.720680549955,187.5 1319.7302994931883,195.0 1306.7399184364217,187.5 1306.7399184364217,172.5 1319.7302994931883,165.0" stroke="black" stroke-width="1" /><polygon fill="#0000FF" points="1332.720680549955,217.5 1332.720680549955,232.5 1319.7302994931883,240.0 1306.7399184364217,232.5 1306.7399184364217,217.5 1319.7302994931883,210.0" stroke="black" stroke-width="1" /><polygon fill="#0000FF" points="1332.720680549955,262.5 1332.720680549955,277.5 1319.7302994931883,285.0 1306.7399184364217,277.5 1306.7399184364217,262.5 1319.7302994931883,255.0" stroke="black" stroke-width="1" /><polygon fill="#0000FF" points="1332.720680549955,307.5 1332.720680549955,322.5 1319.7302994931883,330.0 1306.7399184364217,322.5 1306.7399184364217,307.5 1319.7302994931883,300.0" stroke="black" stroke-width="1" /><polygon fill="#0000FF" points="1332.720680549955,352.5 1332.720680549955,367.5 1319.7302994931883,375.0 1306.7399184364217,367.5 1306.7399184364217,352.5 1319.7302994931883,345.0" stroke="black" stroke-width="1" /><polygon fill="#0000FF" points="1345.7110616067216,150.0 1345.7110616067216,165.0 1332.720680549955,172.5 1319.7302994931883,165.0 1319.7302994931883,150.0 1332.720680549955,142.5" stroke="black" stroke-width="1" /><polygon fill="#0000FF" points="1345.7110616067216,195.0 1345.7110616067216,210.0 1332.720680549955,217.5 1319.7302994931883,210.0 1319.7302994931883,195.0 1332.720680549955,187.5" stroke="black" stroke-width="1" /><polygon fill="#0000FF" points="1345.7110616067216,240.0 1345.7110616067216,255.0 1332.720680549955,262.5 1319.7302994931883,255.0 1319.7302994931883,240.0 1332.720680549955,232.5" stroke="black" stroke-width="1" /><polygon fill="#0000FF" points="1345.7110616067216,285.0 1345.7110616067216,300.0 1332.720680549955,307.5 1319.7302994931883,300.0 1319.7302994931883,285.0 1332.720680549955,277.5" stroke="black" stroke-width="1" /><polygon fill="#0000FF" points="1345.7110616067216,330.0 1345.7110616067216,345.0 1332.720680549955,352.5 1319.7302994931883,345.0 1319.7302994931883,330.0 1332.720680549955,322.5" stroke="black" stroke-width="1" /><polygon fill="#0000FF" points="1358.701442663488,127.5 1358.701442663488,142.5 1345.7110616067214,150.0 1332.7206805499547,142.5 1332.7206805499547,127.5 1345.7110616067214,120.0" stroke="black" stroke-width="1" /><polygon fill="#0000FF" points="1358.701442663488,172.5 1358.701442663488,187.5 1345.7110616067214,195.0 1332.7206805499547,187.5 1332.7206805499547,172.5 1345.7110616067214,165.0" stroke="black" stroke-width="1" /><polygon fill="#0000FF" points="1358.701442663488,217.5 1358.701442663488,232.5 1345.7110616067214,240.0 1332.7206805499547,232.5 1332.7206805499547,217.5 1345.7110616067214,210.0" stroke="black" stroke-width="1" /><polygon fill="#0000FF" points="1358.701442663488,262.5 1358.701442663488,277.5 1345.7110616067214,285.0 1332.7206805499547,277.5 1332.7206805499547,262.5 1345.7110616067214,255.0" stroke="black" stroke-width="1" /><polygon fill="#0000FF" points="1358.701442663488,307.5 1358.701442663488,322.5 1345.7110616067214,330.0 1332.7206805499547,322.5 1332.7206805499547,307.5 1345.7110616067214,300.0" stroke="black" stroke-width="1" /><polygon fill="#0000FF" points="1358.701442663488,352.5 1358.701442663488,367.5 1345.7110616067214,375.0 1332.7206805499547,367.5 1332.7206805499547,352.5 1345.7110616067214,345.0" stroke="black" stroke-width="1" /><polygon fill="#0000FF" points="1371.6918237202547,105.0 1371.6918237202547,120.0 1358.701442663488,127.5 1345.7110616067214,120.0 1345.7110616067214,105.0 1358.701442663488,97.5" stroke="black" stroke-width="1" /><polygon fill="#0000FF" points="1371.6918237202547,150.0 1371.6918237202547,165.0 1358.701442663488,172.5 1345.7110616067214,165.0 1345.7110616067214,150.0 1358.701442663488,142.5" stroke="black" stroke-width="1" /><polygon fill="#0000FF" points="1371.6918237202547,195.0 1371.6918237202547,210.0 1358.701442663488,217.5 1345.7110616067214,210.0 1345.7110616067214,195.0 1358.701442663488,187.5" stroke="black" stroke-width="1" /><polygon fill="#0000FF" points="1371.6918237202547,240.0 1371.6918237202547,255.0 1358.701442663488,262.5 1345.7110616067214,255.0 1345.7110616067214,240.0 1358.701442663488,232.5" stroke="black" stroke-width="1" /><polygon fill="#0000FF" points="1371.6918237202547,285.0 1371.6918237202547,300.0 1358.701442663488,307.5 1345.7110616067214,300.0 1345.7110616067214,285.0 1358.701442663488,277.5" stroke="black" stroke-width="1" /><polygon fill="#0000FF" points="1371.6918237202547,330.0 1371.6918237202547,345.0 1358.701442663488,352.5 1345.7110616067214,345.0 1345.7110616067214,330.0 1358.701442663488,322.5" stroke="black" stroke-width="1" /><polygon fill="#0000FF" points="1384.6822047770213,82.5 1384.6822047770213,97.5 1371.6918237202547,105.0 1358.701442663488,97.5 1358.701442663488,82.5 1371.6918237202547,75.0" stroke="black" stroke-width="1" /><polygon fill="#0000FF" points="1384.6822047770213,127.5 1384.6822047770213,142.5 1371.6918237202547,150.0 1358.701442663488,142.5 1358.701442663488,127.5 1371.6918237202547,120.0" stroke="black" stroke-width="1" /><polygon fill="#0000FF" points="1384.6822047770213,172.5 1384.6822047770213,187.5 1371.6918237202547,195.0 1358.701442663488,187.5 1358.701442663488,172.5 1371.6918237202547,165.0" stroke="black" stroke-width="1" /><polygon fill="#0000FF" points="1384.6822047770213,217.5 1384.6822047770213,232.5 1371.6918237202547,240.0 1358.701442663488,232.5 1358.701442663488,217.5 1371.6918237202547,210.0" stroke="black" stroke-width="1" /><polygon fill="#0000FF" points="1384.6822047770213,262.5 1384.6822047770213,277.5 1371.6918237202547,285.0 1358.701442663488,277.5 1358.701442663488,262.5 1371.6918237202547,255.0" stroke="black" stroke-width="1" /><polygon fill="#0000FF" points="1384.6822047770213,307.5 1384.6822047770213,322.5 1371.6918237202547,330.0 1358.701442663488,322.5 1358.701442663488,307.5 1371.6918237202547,300.0" stroke="black" stroke-width="1" /><polygon fill="#0000FF" points="1384.6822047770213,352.5 1384.6822047770213,367.5 1371.6918237202547,375.0 1358.701442663488,367.5 1358.701442663488,352.5 1371.6918237202547,345.0" stroke="black" stroke-width="1" /><polygon fill="#0000FF" points="1397.672585833788,60.0 1397.672585833788,75.0 1384.6822047770213,82.5 1371.6918237202547,75.0 1371.6918237202547,60.0 1384.6822047770213,52.5" stroke="black" stroke-width="1" /><polygon fill="#0000FF" points="1397.672585833788,105.0 1397.672585833788,120.0 1384.6822047770213,127.5 1371.6918237202547,120.0 1371.6918237202547,105.0 1384.6822047770213,97.5" stroke="black" stroke-width="1" /><polygon fill="#0000FF" points="1397.672585833788,150.0 1397.672585833788,165.0 1384.6822047770213,172.5 1371.6918237202547,165.0 1371.6918237202547,150.0 1384.6822047770213,142.5" stroke="black" stroke-width="1" /><polygon fill="#0000FF" points="1397.672585833788,195.0 1397.672585833788,210.0 1384.6822047770213,217.5 1371.6918237202547,210.0 1371.6918237202547,195.0 1384.6822047770213,187.5" stroke="black" stroke-width="1" /><polygon fill="#0000FF" points="1397.672585833788,240.0 1397.672585833788,255.0 1384.6822047770213,262.5 1371.6918237202547,255.0 1371.6918237202547,240.0 1384.6822047770213,232.5" stroke="black" stroke-width="1" /><polygon fill="#0000FF" points="1397.672585833788,285.0 1397.672585833788,300.0 1384.6822047770213,307.5 1371.6918237202547,300.0 1371.6918237202547,285.0 1384.6822047770213,277.5" stroke="black" stroke-width="1" /><polygon fill="#0000FF" points="1397.672585833788,330.0 1397.672585833788,345.0 1384.6822047770213,352.5 1371.6918237202547,345.0 1371.6918237202547,330.0 1384.6822047770213,322.5" stroke="black" stroke-width="1" /><polygon fill="#0000FF" points="1410.6629668905543,82.5 1410.6629668905543,97.5 1397.6725858337877,105.0 1384.682204777021,97.5 1384.682204777021,82.5 1397.6725858337877,75.0" stroke="black" stroke-width="1" /><polygon fill="#0000FF" points="1410.6629668905543,127.5 1410.6629668905543,142.5 1397.6725858337877,150.0 1384.682204777021,142.5 1384.682204777021,127.5 1397.6725858337877,120.0" stroke="black" stroke-width="1" /><polygon fill="#0000FF" points="1410.6629668905543,172.5 1410.6629668905543,187.5 1397.6725858337877,195.0 1384.682204777021,187.5 1384.682204777021,172.5 1397.6725858337877,165.0" stroke="black" stroke-width="1" /><polygon fill="#0000FF" points="1410.6629668905543,217.5 1410.6629668905543,232.5 1397.6725858337877,240.0 1384.682204777021,232.5 1384.682204777021,217.5 1397.6725858337877,210.0" stroke="black" stroke-width="1" /><polygon fill="#0000FF" points="1410.6629668905543,262.5 1410.6629668905543,277.5 1397.6725858337877,285.0 1384.682204777021,277.5 1384.682204777021,262.5 1397.6725858337877,255.0" stroke="black" stroke-width="1" /><polygon fill="#0000FF" points="1410.6629668905543,307.5 1410.6629668905543,322.5 1397.6725858337877,330.0 1384.682204777021,322.5 1384.682204777021,307.5 1397.6725858337877,300.0" stroke="black" stroke-width="1" /><polygon fill="#0000FF" points="1410.6629668905543,352.5 1410.6629668905543,367.5 1397.6725858337877,375.0 1384.682204777021,367.5 1384.682204777021,352.5 1397.6725858337877,345.0" stroke="black" stroke-width="1" /><polygon fill="#0000FF" points="1423.653347947321,60.0 1423.653347947321,75.0 1410.6629668905543,82.5 1397.6725858337877,75.0 1397.6725858337877,60.0 1410.6629668905543,52.5" stroke="black" stroke-width="1" /><polygon fill="#0000FF" points="1423.653347947321,105.0 1423.653347947321,120.0 1410.6629668905543,127.5 1397.6725858337877,120.0 1397.6725858337877,105.0 1410.6629668905543,97.5" stroke="black" stroke-width="1" /><polygon fill="#0000FF" points="1423.653347947321,150.0 1423.653347947321,165.0 1410.6629668905543,172.5 1397.6725858337877,165.0 1397.6725858337877,150.0 1410.6629668905543,142.5" stroke="black" stroke-width="1" /><polygon fill="#0000FF" points="1423.653347947321,195.0 1423.653347947321,210.0 1410.6629668905543,217.5 1397.6725858337877,210.0 1397.6725858337877,195.0 1410.6629668905543,187.5" stroke="black" stroke-width="1" /><polygon fill="#0000FF" points="1423.653347947321,240.0 1423.653347947321,255.0 1410.6629668905543,262.5 1397.6725858337877,255.0 1397.6725858337877,240.0 1410.6629668905543,232.5" stroke="black" stroke-width="1" /><polygon fill="#0000FF" points="1423.653347947321,285.0 1423.653347947321,300.0 1410.6629668905543,307.5 1397.6725858337877,300.0 1397.6725858337877,285.0 1410.6629668905543,277.5" stroke="black" stroke-width="1" /><polygon fill="#0000FF" points="1423.653347947321,330.0 1423.653347947321,345.0 1410.6629668905543,352.5 1397.6725858337877,345.0 1397.6725858337877,330.0 1410.6629668905543,322.5" stroke="black" stroke-width="1" /><polygon fill="#0000FF" points="1436.6437290040876,127.5 1436.6437290040876,142.5 1423.653347947321,150.0 1410.6629668905543,142.5 1410.6629668905543,127.5 1423.653347947321,120.0" stroke="black" stroke-width="1" /><polygon fill="#0000FF" points="1436.6437290040876,172.5 1436.6437290040876,187.5 1423.653347947321,195.0 1410.6629668905543,187.5 1410.6629668905543,172.5 1423.653347947321,165.0" stroke="black" stroke-width="1" /><polygon fill="#0000FF" points="1436.6437290040876,217.5 1436.6437290040876,232.5 1423.653347947321,240.0 1410.6629668905543,232.5 1410.6629668905543,217.5 1423.653347947321,210.0" stroke="black" stroke-width="1" /><polygon fill="#0000FF" points="1436.6437290040876,262.5 1436.6437290040876,277.5 1423.653347947321,285.0 1410.6629668905543,277.5 1410.6629668905543,262.5 1423.653347947321,255.0" stroke="black" stroke-width="1" /><polygon fill="#0000FF" points="1436.6437290040876,307.5 1436.6437290040876,322.5 1423.653347947321,330.0 1410.6629668905543,322.5 1410.6629668905543,307.5 1423.653347947321,300.0" stroke="black" stroke-width="1" /><polygon fill="#0000FF" points="1436.6437290040876,352.5 1436.6437290040876,367.5 1423.653347947321,375.0 1410.6629668905543,367.5 1410.6629668905543,352.5 1423.653347947321,345.0" stroke="black" stroke-width="1" /><polygon fill="#0000FF" points="1449.6341100608543,150.0 1449.6341100608543,165.0 1436.6437290040876,172.5 1423.653347947321,165.0 1423.653347947321,150.0 1436.6437290040876,142.5" stroke="black" stroke-width="1" /><polygon fill="#0000FF" points="1449.6341100608543,195.0 1449.6341100608543,210.0 1436.6437290040876,217.5 1423.653347947321,210.0 1423.653347947321,195.0 1436.6437290040876,187.5" stroke="black" stroke-width="1" /><polygon fill="#0000FF" points="1449.6341100608543,240.0 1449.6341100608543,255.0 1436.6437290040876,262.5 1423.653347947321,255.0 1423.653347947321,240.0 1436.6437290040876,232.5" stroke="black" stroke-width="1" /><polygon fill="#0000FF" points="1449.6341100608543,285.0 1449.6341100608543,300.0 1436.6437290040876,307.5 1423.653347947321,300.0 1423.653347947321,285.0 1436.6437290040876,277.5" stroke="black" stroke-width="1" /><polygon fill="#0000FF" points="1449.6341100608543,330.0 1449.6341100608543,345.0 1436.6437290040876,352.5 1423.653347947321,345.0 1423.653347947321,330.0 1436.6437290040876,322.5" stroke="black" stroke-width="1" /><polygon fill="#0000FF" points="1462.6244911176207,172.5 1462.6244911176207,187.5 1449.634110060854,195.0 1436.6437290040874,187.5 1436.6437290040874,172.5 1449.634110060854,165.0" stroke="black" stroke-width="1" /><polygon fill="#0000FF" points="1462.6244911176207,217.5 1462.6244911176207,232.5 1449.634110060854,240.0 1436.6437290040874,232.5 1436.6437290040874,217.5 1449.634110060854,210.0" stroke="black" stroke-width="1" /><polygon fill="#0000FF" points="1462.6244911176207,262.5 1462.6244911176207,277.5 1449.634110060854,285.0 1436.6437290040874,277.5 1436.6437290040874,262.5 1449.634110060854,255.0" stroke="black" stroke-width="1" /><polygon fill="#0000FF" points="1462.6244911176207,307.5 1462.6244911176207,322.5 1449.634110060854,330.0 1436.6437290040874,322.5 1436.6437290040874,307.5 1449.634110060854,300.0" stroke="black" stroke-width="1" /><polygon fill="#0000FF" points="1462.6244911176207,352.5 1462.6244911176207,367.5 1449.634110060854,375.0 1436.6437290040874,367.5 1436.6437290040874,352.5 1449.634110060854,345.0" stroke="black" stroke-width="1" /><polygon fill="#0000FF" points="1475.6148721743873,150.0 1475.6148721743873,165.0 1462.6244911176207,172.5 1449.634110060854,165.0 1449.634110060854,150.0 1462.6244911176207,142.5" stroke="black" stroke-width="1" /><polygon fill="#0000FF" points="1475.6148721743873,195.0 1475.6148721743873,210.0 1462.6244911176207,217.5 1449.634110060854,210.0 1449.634110060854,195.0 1462.6244911176207,187.5" stroke="black" stroke-width="1" /><polygon fill="#0000FF" points="1475.6148721743873,240.0 1475.6148721743873,255.0 1462.6244911176207,262.5 1449.634110060854,255.0 1449.634110060854,240.0 1462.6244911176207,232.5" stroke="black" stroke-width="1" /><polygon fill="#0000FF" points="1475.6148721743873,285.0 1475.6148721743873,300.0 1462.6244911176207,307.5 1449.634110060854,300.0 1449.634110060854,285.0 1462.6244911176207,277.5" stroke="black" stroke-width="1" /><polygon fill="#0000FF" points="1475.6148721743873,330.0 1475.6148721743873,345.0 1462.6244911176207,352.5 1449.634110060854,345.0 1449.634110060854,330.0 1462.6244911176207,322.5" stroke="black" stroke-width="1" /><polygon fill="#0000FF" points="1488.605253231154,172.5 1488.605253231154,187.5 1475.6148721743873,195.0 1462.6244911176207,187.5 1462.6244911176207,172.5 1475.6148721743873,165.0" stroke="black" stroke-width="1" /><polygon fill="#0000FF" points="1488.605253231154,217.5 1488.605253231154,232.5 1475.6148721743873,240.0 1462.6244911176207,232.5 1462.6244911176207,217.5 1475.6148721743873,210.0" stroke="black" stroke-width="1" /><polygon fill="#0000FF" points="1488.605253231154,262.5 1488.605253231154,277.5 1475.6148721743873,285.0 1462.6244911176207,277.5 1462.6244911176207,262.5 1475.6148721743873,255.0" stroke="black" stroke-width="1" /><polygon fill="#0000FF" points="1488.605253231154,307.5 1488.605253231154,322.5 1475.6148721743873,330.0 1462.6244911176207,322.5 1462.6244911176207,307.5 1475.6148721743873,300.0" stroke="black" stroke-width="1" /><polygon fill="#0000FF" points="1488.605253231154,352.5 1488.605253231154,367.5 1475.6148721743873,375.0 1462.6244911176207,367.5 1462.6244911176207,352.5 1475.6148721743873,345.0" stroke="black" stroke-width="1" /></svg>