<?xml version="1.0" encoding="utf-8" ?>
<svg baseProfile="basic" height="133.17814692982745cm" version="1.1" viewBox="0,0,1932.2127089449273,799.0688815789647" width="322.03545149082123cm" xmlns="http://www.w3.org/2000/svg" xmlns:ev="http://www.w3.org/2001/xml-events" xmlns:xlink="http://www.w3.org/1999/xlink"><defs /><polygon fill="#FF0000" points="551.9615242270663,438.0 551.9615242270663,453.0 538.9711431702997,460.5 525.9807621135332,453.0 525.9807621135332,438.0 538.9711431702997,430.5" stroke="black" stroke-width="1" /><polygon fill="#FF0000" points="564.951905283833,460.5 564.951905283833,475.5 551.9615242270663,483.0 538.9711431702997,475.5 538.9711431702997,460.5 551.9615242270663,453.0" stroke="black" stroke-width="1" /><polygon fill="#FF0000" points="577.9422863405995,438.0 577.9422863405995,453.0 564.9519052838328,460.5 551.9615242270663,453.0 551.9615242270663,438.0 564.9519052838328,430.5" stroke="black" stroke-width="1" /><polygon fill="#FF0000" points="577.9422863405995,483.0 577.9422863405995,498.0 564.9519052838328,505.5 551.9615242270663,498.0 551.9615242270663,483.0 564.9519052838328,475.5" stroke="black" stroke-width="1" /><polygon fill="#FF0000" points="590.932667397366,460.5 590.932667397366,475.5 577.9422863405995,483.0 564.9519052838328,475.5 564.9519052838328,460.5 577.9422863405995,453.0" stroke="black" stroke-width="1" /><polygon fill="#FF0000" points="590.932667397366,505.5 590.932667397366,520.5 577.9422863405995,528.0 564.9519052838328,520.5 564.9519052838328,505.5 577.9422863405995,498.0" stroke="black" stroke-width="1" /><polygon fill="#FF0000" points="603.9230484541326,438.0 603.9230484541326,453.0 590.932667397366,460.5 577.9422863405995,453.0 577.9422863405995,438.0 590.932667397366,430.5" stroke="black" stroke-width="1" /><polygon fill="#FF0000" points="603.9230484541326,483.0 603.9230484541326,498.0 590.932667397366,505.5 577.9422863405995,498.0 577.9422863405995,483.0 590.932667397366,475.5" stroke="black" stroke-width="1" /><polygon fill="#FF0000" points="603.9230484541326,528.0 603.9230484541326,543.0 590.932667397366,550.5 577.9422863405995,543.0 577.9422863405995,528.0 590.932667397366,520.5" stroke="black" stroke-width="1" /><polygon fill="#FF0000" points="616.9134295108992,460.5 616.9134295108992,475.5 603.9230484541326,483.0 590.932667397366,475.5 590.932667397366,460.5 603.9230484541326,453.0" stroke="black" stroke-width="1" /><polygon fill="#FF0000" points="616.9134295108992,505.5 616.9134295108992,520.5 603.9230484541326,528.0 590.932667397366,520.5 590.932667397366,505.5 603.9230484541326,498.0" stroke="black" stroke-width="1" /><polygon fill="#FF0000" points="616.9134295108992,550.5 616.9134295108992,565.5 603.9230484541326,573.0 590.932667397366,565.5 590.932667397366,550.5 603.9230484541326,543.0" stroke="black" stroke-width="1" /><polygon fill="#FF0000" points="629.9038105676658,438.0 629.9038105676658,453.0 616.9134295108992,460.5 603.9230484541326,453.0 603.9230484541326,438.0 616.9134295108992,430.5" stroke="black" stroke-width="1" /><polygon fill="#FF0000" points="629.9038105676658,483.0 629.9038105676658,498.0 616.9134295108992,505.5 603.9230484541326,498.0 603.9230484541326,483.0 616.9134295108992,475.5" stroke="black" stroke-width="1" /><polygon fill="#FF0000" points="629.9038105676658,528.0 629.9038105676658,543.0 616.9134295108992,550.5 603.9230484541326,543.0 603.9230484541326,528.0 616.9134295108992,520.5" stroke="black" stroke-width="1" /><polygon fill="#FF0000" points="642.8941916244323,460.5 642.8941916244323,475.5 629.9038105676658,483.0 616.9134295108992,475.5 616.9134295108992,460.5 629.9038105676658,453.0" stroke="black" stroke-width="1" /><polygon fill="#FF0000" points="642.8941916244323,505.5 642.8941916244323,520.5 629.9038105676658,528.0 616.9134295108992,520.5 616.9134295108992,505.5 629.9038105676658,498.0" stroke="black" stroke-width="1" /><polygon fill="#FF0000" points="642.8941916244323,550.5 642.8941916244323,565.5 629.9038105676658,573.0 616.9134295108992,565.5 616.9134295108992,550.5 629.9038105676658,543.0" stroke="black" stroke-width="1" /><polygon fill="#FF0000" points="655.884572681199,438.0 655.884572681199,453.0 642.8941916244323,460.5 629.9038105676658,453.0 629.9038105676658,438.0 642.8941916244323,430.5" stroke="black" stroke-width="1" /><polygon fill="#FF0000" points="655.884572681199,483.0 655.884572681199,498.0 642.8941916244323,505.5 629.9038105676658,498.0 629.9038105676658,483.0 642.8941916244323,475.5" stroke="black" stroke-width="1" /><polygon fill="#FF0000" points="655.884572681199,528.0 655.884572681199,543.0 642.8941916244323,550.5 629.9038105676658,543.0 629.9038105676658,528.0 642.8941916244323,520.5" stroke="black" stroke-width="1" /><polygon fill="#FF0000" points="668.8749537379655,460.5 668.8749537379655,475.5 655.884572681199,483.0 642.8941916244323,475.5 642.8941916244323,460.5 655.884572681199,453.0" stroke="black" stroke-width="1" /><polygon fill="#FF0000" points="668.8749537379655,505.5 668.8749537379655,520.5 655.884572681199,528.0 642.8941916244323,520.5 642.8941916244323,505.5 655.884572681199,498.0" stroke="black" stroke-width="1" /><polygon fill="#FF0000" points="668.8749537379655,550.5 668.8749537379655,565.5 655.884572681199,573.0 642.8941916244323,565.5 642.8941916244323,550.5 655.884572681199,543.0" stroke="black" stroke-width="1" /><polygon fill="#FF0000" points="681.8653347947321,438.0 681.8653347947321,453.0 668.8749537379655,460.5 655.884572681199,453.0 655.884572681199,438.0 668.8749537379655,430.5" stroke="black" stroke-width="1" /><polygon fill="#FF0000" points="681.8653347947321,483.0 681.8653347947321,498.0 668.8749537379655,505.5 655.884572681199,498.0 655.884572681199,483.0 668.8749537379655,475.5" stroke="black" stroke-width="1" /><polygon fill="#FF0000" points="681.8653347947321,528.0 681.8653347947321,543.0 668.8749537379655,550.5 655.884572681199,543.0 655.884572681199,528.0 668.8749537379655,520.5" stroke="black" stroke-width="1" /><polygon fill="#FF0000" points="694.8557158514986,460.5 694.8557158514986,475.5 681.8653347947321,483.0 668.8749537379655,475.5 668.8749537379655,460.5 681.8653347947321,453.0" stroke="black" stroke-width="1" /><polygon fill="#FF0000" points="694.8557158514986,505.5 694.8557158514986,520.5 681.8653347947321,528.0 668.8749537379655,520.5 668.8749537379655,505.5 681.8653347947321,498.0" stroke="black" stroke-width="1" /><polygon fill="#FF0000" points="694.8557158514986,550.5 694.8557158514986,565.5 681.8653347947321,573.0 668.8749537379655,565.5 668.8749537379655,550.5 681.8653347947321,543.0" stroke="black" stroke-width="1" /><polygon fill="#FF0000" points="707.8460969082653,438.0 707.8460969082653,453.0 694.8557158514986,460.5 681.8653347947321,453.0 681.8653347947321,438.0 694.8557158514986,430.5" stroke="black" stroke-width="1" /><polygon fill="#FF0000" points="707.8460969082653,483.0 707.8460969082653,498.0 694.8557158514986,505.5 681.8653347947321,498.0 681.8653347947321,483.0 694.8557158514986,475.5" stroke="black" stroke-width="1" /><polygon fill="#FF0000" points="707.8460969082653,528.0 707.8460969082653,543.0 694.8557158514986,550.5 681.8653347947321,543.0 681.8653347947321,528.0 694.8557158514986,520.5" stroke="black" stroke-width="1" /></svg>