<?xml version="1.0" encoding="utf-8" ?>
<svg baseProfile="basic" height="133.17814692982745cm" version="1.1" viewBox="0,0,3220.3545149082124,1331.7814692982745" width="322.03545149082123cm" xmlns="http://www.w3.org/2000/svg" xmlns:ev="http://www.w3.org/2001/xml-events" xmlns:xlink="http://www.w3.org/1999/xlink"><defs /><polygon fill="#FFFFFF" points="108.25317547305482,137.5 108.25317547305482,162.5 86.60254037844386,175.0 64.9519052838329,162.5 64.9519052838329,137.5 86.60254037844386,125.0" stroke="black" stroke-width="1" /><polygon fill="#FFFFFF" points="129.9038105676658,100.0 129.9038105676658,125.0 108.25317547305482,137.5 86.60254037844385,125.0 86.60254037844386,100.0 108.25317547305482,87.5" stroke="black" stroke-width="1" /><polygon fill="#FFFFFF" points="129.9038105676658,175.0 129.9038105676658,200.0 108.25317547305482,212.5 86.60254037844385,200.0 86.60254037844386,175.0 108.25317547305482,162.5" stroke="black" stroke-width="1" /><polygon fill="#FFFFFF" points="151.55444566227678,137.5 151.55444566227678,162.5 129.9038105676658,175.0 108.25317547305482,162.5 108.25317547305484,137.5 129.9038105676658,125.0" stroke="black" stroke-width="1" /><polygon fill="#FFFFFF" points="151.55444566227678,212.5 151.55444566227678,237.5 129.9038105676658,250.0 108.25317547305482,237.5 108.25317547305484,212.5 129.9038105676658,200.0" stroke="black" stroke-width="1" /><polygon fill="#FFFFFF" points="173.20508075688772,100.0 173.20508075688772,125.0 151.55444566227675,137.5 129.90381056766577,125.0 129.90381056766577,100.0 151.55444566227675,87.5" stroke="black" stroke-width="1" /><polygon fill="#FFFFFF" points="173.20508075688772,175.0 173.20508075688772,200.0 151.55444566227675,212.5 129.90381056766577,200.0 129.90381056766577,175.0 151.55444566227675,162.5" stroke="black" stroke-width="1" /><polygon fill="#FFFFFF" points="173.20508075688772,250.0 173.20508075688772,275.0 151.55444566227675,287.5 129.90381056766577,275.0 129.90381056766577,250.0 151.55444566227675,237.5" stroke="black" stroke-width="1" /><polygon fill="#FFFFFF" points="194.8557158514987,137.5 194.8557158514987,162.5 173.20508075688772,175.0 151.55444566227675,162.5 151.55444566227675,137.5 173.20508075688772,125.0" stroke="black" stroke-width="1" /><polygon fill="#FFFFFF" points="194.8557158514987,212.5 194.8557158514987,237.5 173.20508075688772,250.0 151.55444566227675,237.5 151.55444566227675,212.5 173.20508075688772,200.0" stroke="black" stroke-width="1" /><polygon fill="#FFFFFF" points="194.8557158514987,287.5 194.8557158514987,312.5 173.20508075688772,325.0 151.55444566227675,312.5 151.55444566227675,287.5 173.20508075688772,275.0" stroke="black" stroke-width="1" /><polygon fill="#FFFFFF" points="216.50635094610968,100.0 216.50635094610968,125.0 194.8557158514987,137.5 173.20508075688772,125.0 173.20508075688772,100.0 194.8557158514987,87.5" stroke="black" stroke-width="1" /><polygon fill="#FFFFFF" points="216.50635094610968,175.0 216.50635094610968,200.0 194.8557158514987,212.5 173.20508075688772,200.0 173.20508075688772,175.0 194.8557158514987,162.5" stroke="black" stroke-width="1" /><polygon fill="#FFFFFF" points="216.50635094610968,250.0 216.50635094610968,275.0 194.8557158514987,287.5 173.20508075688772,275.0 173.20508075688772,250.0 194.8557158514987,237.5" stroke="black" stroke-width="1" /><polygon fill="#FFFFFF" points="238.15698604072062,137.5 238.15698604072062,162.5 216.50635094610965,175.0 194.85571585149867,162.5 194.85571585149867,137.5 216.50635094610965,125.0" stroke="black" stroke-width="1" /><polygon fill="#FFFFFF" points="238.15698604072062,212.5 238.15698604072062,237.5 216.50635094610965,250.0 194.85571585149867,237.5 194.85571585149867,212.5 216.50635094610965,200.0" stroke="black" stroke-width="1" /><polygon fill="#FFFFFF" points="238.15698604072062,287.5 238.15698604072062,312.5 216.50635094610965,325.0 194.85571585149867,312.5 194.85571585149867,287.5 216.50635094610965,275.0" stroke="black" stroke-width="1" /><polygon fill="#FFFFFF" points="259.8076211353316,100.0 259.8076211353316,125.0 238.15698604072062,137.5 216.50635094610965,125.0 216.50635094610965,100.0 238.15698604072062,87.5" stroke="black" stroke-width="1" /><polygon fill="#FFFFFF" points="259.8076211353316,175.0 259.8076211353316,200.0 238.15698604072062,212.5 216.50635094610965,200.0 216.50635094610965,175.0 238.15698604072062,162.5" stroke="black" stroke-width="1" /><polygon fill="#FFFFFF" points="259.8076211353316,250.0 259.8076211353316,275.0 238.15698604072062,287.5 216.50635094610965,275.0 216.50635094610965,250.0 238.15698604072062,237.5" stroke="black" stroke-width="1" /><polygon fill="#FFFFFF" points="281.45825622994255,137.5 281.45825622994255,162.5 259.8076211353316,175.0 238.15698604072062,162.5 238.15698604072062,137.5 259.8076211353316,125.0" stroke="black" stroke-width="1" /><polygon fill="#FFFFFF" points="281.45825622994255,212.5 281.45825622994255,237.5 259.8076211353316,250.0 238.15698604072062,237.5 238.15698604072062,212.5 259.8076211353316,200.0" stroke="black" stroke-width="1" /><polygon fill="#FFFFFF" points="281.45825622994255,287.5 281.45825622994255,312.5 259.8076211353316,325.0 238.15698604072062,312.5 238.15698604072062,287.5 259.8076211353316,275.0" stroke="black" stroke-width="1" /><polygon fill="#FFFFFF" points="303.1088913245535,100.0 303.1088913245535,125.0 281.45825622994255,137.5 259.8076211353316,125.0 259.8076211353316,100.0 281.45825622994255,87.5" stroke="black" stroke-width="1" /><polygon fill="#FFFFFF" points="303.1088913245535,175.0 303.1088913245535,200.0 281.45825622994255,212.5 259.8076211353316,200.0 259.8076211353316,175.0 281.45825622994255,162.5" stroke="black" stroke-width="1" /><polygon fill="#FFFFFF" points="303.1088913245535,250.0 303.1088913245535,275.0 281.45825622994255,287.5 259.8076211353316,275.0 259.8076211353316,250.0 281.45825622994255,237.5" stroke="black" stroke-width="1" /><polygon fill="#FFFFFF" points="324.75952641916444,137.5 324.75952641916444,162.5 303.1088913245535,175.0 281.45825622994255,162.5 281.45825622994255,137.5 303.1088913245535,125.0" stroke="black" stroke-width="1" /><polygon fill="#FFFFFF" points="324.75952641916444,212.5 324.75952641916444,237.5 303.1088913245535,250.0 281.45825622994255,237.5 281.45825622994255,212.5 303.1088913245535,200.0" stroke="black" stroke-width="1" /><polygon fill="#FFFFFF" points="324.75952641916444,287.5 324.75952641916444,312.5 303.1088913245535,325.0 281.45825622994255,312.5 281.45825622994255,287.5 303.1088913245535,275.0" stroke="black" stroke-width="1" /><polygon fill="#FFFFFF" points="346.41016151377545,100.0 346.41016151377545,125.0 324.7595264191645,137.5 303.10889132455355,125.0 303.10889132455355,100.0 324.7595264191645,87.5" stroke="black" stroke-width="1" /><polygon fill="#FFFFFF" points="346.41016151377545,175.0 346.41016151377545,200.0 324.7595264191645,212.5 303.10889132455355,200.0 303.10889132455355,175.0 324.7595264191645,162.5" stroke="black" stroke-width="1" /><polygon fill="#FFFFFF" points="346.41016151377545,250.0 346.41016151377545,275.0 324.7595264191645,287.5 303.10889132455355,275.0 303.10889132455355,250.0 324.7595264191645,237.5" stroke="black" stroke-width="1" /></svg>