<?xml version="1.0" encoding="utf-8" ?>
<svg baseProfile="basic" height="133.17814692982745cm" version="1.1" viewBox="0,0,1932.2127089449273,799.0688815789647" width="322.03545149082123cm" xmlns="http://www.w3.org/2000/svg" xmlns:ev="http://www.w3.org/2001/xml-events" xmlns:xlink="http://www.w3.org/1999/xlink"><defs /><polygon fill="#FFFFFF" points="51.96152422706631,60.0 51.96152422706631,75.0 38.97114317029973,82.5 25.980762113533153,75.0 25.980762113533153,60.0 38.97114317029973,52.5" stroke="black" stroke-width="1" /><polygon fill="#FFFFFF" points="64.9519052838329,82.5 64.9519052838329,97.5 51.96152422706631,105.0 38.97114317029973,97.5 38.97114317029973,82.5 51.96152422706631,75.0" stroke="black" stroke-width="1" /><polygon fill="#FFFFFF" points="77.94228634059947,60.0 77.94228634059947,75.0 64.95190528383289,82.5 51.961524227066306,75.0 51.961524227066306,60.0 64.95190528383289,52.5" stroke="black" stroke-width="1" /><polygon fill="#FFFFFF" points="77.94228634059947,105.0 77.94228634059947,120.0 64.95190528383289,127.5 51.961524227066306,120.0 51.961524227066306,105.0 64.95190528383289,97.5" stroke="black" stroke-width="1" /><polygon fill="#FFFFFF" points="90.93266739736605,82.5 90.93266739736605,97.5 77.94228634059947,105.0 64.95190528383289,97.5 64.95190528383289,82.5 77.94228634059947,75.0" stroke="black" stroke-width="1" /><polygon fill="#FFFFFF" points="90.93266739736605,127.5 90.93266739736605,142.5 77.94228634059947,150.0 64.95190528383289,142.5 64.95190528383289,127.5 77.94228634059947,120.0" stroke="black" stroke-width="1" /><polygon fill="#FFFFFF" points="103.92304845413263,60.0 103.92304845413263,75.0 90.93266739736605,82.5 77.94228634059947,75.0 77.94228634059947,60.0 90.93266739736605,52.5" stroke="black" stroke-width="1" /><polygon fill="#FFFFFF" points="103.92304845413263,105.0 103.92304845413263,120.0 90.93266739736605,127.5 77.94228634059947,120.0 77.94228634059947,105.0 90.93266739736605,97.5" stroke="black" stroke-width="1" /><polygon fill="#FFFFFF" points="103.92304845413263,150.0 103.92304845413263,165.0 90.93266739736605,172.5 77.94228634059947,165.0 77.94228634059947,150.0 90.93266739736605,142.5" stroke="black" stroke-width="1" /><polygon fill="#FFFFFF" points="116.9134295108992,82.5 116.9134295108992,97.5 103.92304845413263,105.0 90.93266739736605,97.5 90.93266739736605,82.5 103.92304845413263,75.0" stroke="black" stroke-width="1" /><polygon fill="#FFFFFF" points="116.9134295108992,127.5 116.9134295108992,142.5 103.92304845413263,150.0 90.93266739736605,142.5 90.93266739736605,127.5 103.92304845413263,120.0" stroke="black" stroke-width="1" /><polygon fill="#FFFFFF" points="116.9134295108992,172.5 116.9134295108992,187.5 103.92304845413263,195.0 90.93266739736605,187.5 90.93266739736605,172.5 103.92304845413263,165.0" stroke="black" stroke-width="1" /><polygon fill="#FFFFFF" points="129.9038105676658,60.0 129.9038105676658,75.0 116.9134295108992,82.5 103.92304845413263,75.0 103.92304845413263,60.0 116.9134295108992,52.5" stroke="black" stroke-width="1" /><polygon fill="#FFFFFF" points="129.9038105676658,105.0 129.9038105676658,120.0 116.9134295108992,127.5 103.92304845413263,120.0 103.92304845413263,105.0 116.9134295108992,97.5" stroke="black" stroke-width="1" /><polygon fill="#FFFFFF" points="129.9038105676658,150.0 129.9038105676658,165.0 116.9134295108992,172.5 103.92304845413263,165.0 103.92304845413263,150.0 116.9134295108992,142.5" stroke="black" stroke-width="1" /><polygon fill="#FFFFFF" points="142.89419162443235,82.5 142.89419162443235,97.5 129.90381056766577,105.0 116.91342951089919,97.5 116.91342951089919,82.5 129.90381056766577,75.0" stroke="black" stroke-width="1" /><polygon fill="#FFFFFF" points="142.89419162443235,127.5 142.89419162443235,142.5 129.90381056766577,150.0 116.91342951089919,142.5 116.91342951089919,127.5 129.90381056766577,120.0" stroke="black" stroke-width="1" /><polygon fill="#FFFFFF" points="142.89419162443235,172.5 142.89419162443235,187.5 129.90381056766577,195.0 116.91342951089919,187.5 116.91342951089919,172.5 129.90381056766577,165.0" stroke="black" stroke-width="1" /><polygon fill="#FFFFFF" points="155.88457268119893,60.0 155.88457268119893,75.0 142.89419162443235,82.5 129.90381056766577,75.0 129.90381056766577,60.0 142.89419162443235,52.5" stroke="black" stroke-width="1" /><polygon fill="#FFFFFF" points="155.88457268119893,105.0 155.88457268119893,120.0 142.89419162443235,127.5 129.90381056766577,120.0 129.90381056766577,105.0 142.89419162443235,97.5" stroke="black" stroke-width="1" /><polygon fill="#FFFFFF" points="155.88457268119893,150.0 155.88457268119893,165.0 142.89419162443235,172.5 129.90381056766577,165.0 129.90381056766577,150.0 142.89419162443235,142.5" stroke="black" stroke-width="1" /><polygon fill="#FFFFFF" points="168.8749537379655,82.5 168.8749537379655,97.5 155.88457268119893,105.0 142.89419162443235,97.5 142.89419162443235,82.5 155.88457268119893,75.0" stroke="black" stroke-width="1" /><polygon fill="#FFFFFF" points="168.8749537379655,127.5 168.8749537379655,142.5 155.88457268119893,150.0 142.89419162443235,142.5 142.89419162443235,127.5 155.88457268119893,120.0" stroke="black" stroke-width="1" /><polygon fill="#FFFFFF" points="168.8749537379655,172.5 168.8749537379655,187.5 155.88457268119893,195.0 142.89419162443235,187.5 142.89419162443235,172.5 155.88457268119893,165.0" stroke="black" stroke-width="1" /><polygon fill="#FFFFFF" points="181.8653347947321,60.0 181.8653347947321,75.0 168.8749537379655,82.5 155.88457268119893,75.0 155.88457268119893,60.0 168.8749537379655,52.5" stroke="black" stroke-width="1" /><polygon fill="#FFFFFF" points="181.8653347947321,105.0 181.8653347947321,120.0 168.8749537379655,127.5 155.88457268119893,120.0 155.88457268119893,105.0 168.8749537379655,97.5" stroke="black" stroke-width="1" /><polygon fill="#FFFFFF" points="181.8653347947321,150.0 181.8653347947321,165.0 168.8749537379655,172.5 155.88457268119893,165.0 155.88457268119893,150.0 168.8749537379655,142.5" stroke="black" stroke-width="1" /><polygon fill="#FFFFFF" points="194.85571585149867,82.5 194.85571585149867,97.5 181.8653347947321,105.0 168.8749537379655,97.5 168.8749537379655,82.5 181.8653347947321,75.0" stroke="black" stroke-width="1" /><polygon fill="#FFFFFF" points="194.85571585149867,127.5 194.85571585149867,142.5 181.8653347947321,150.0 168.8749537379655,142.5 168.8749537379655,127.5 181.8653347947321,120.0" stroke="black" stroke-width="1" /><polygon fill="#FFFFFF" points="194.85571585149867,172.5 194.85571585149867,187.5 181.8653347947321,195.0 168.8749537379655,187.5 168.8749537379655,172.5 181.8653347947321,165.0" stroke="black" stroke-width="1" /><polygon fill="#FFFFFF" points="207.84609690826525,60.0 207.84609690826525,75.0 194.85571585149867,82.5 181.8653347947321,75.0 181.8653347947321,60.0 194.85571585149867,52.5" stroke="black" stroke-width="1" /><polygon fill="#FFFFFF" points="207.84609690826525,105.0 207.84609690826525,120.0 194.85571585149867,127.5 181.8653347947321,120.0 181.8653347947321,105.0 194.85571585149867,97.5" stroke="black" stroke-width="1" /><polygon fill="#FFFFFF" points="207.84609690826525,150.0 207.84609690826525,165.0 194.85571585149867,172.5 181.8653347947321,165.0 181.8653347947321,150.0 194.85571585149867,142.5" stroke="black" stroke-width="1" /></svg>