<?xml version="1.0" encoding="utf-8" ?>
<svg baseProfile="basic" height="133.17814692982745cm" version="1.1" viewBox="0,0,1932.2127089449273,799.0688815789647" width="322.03545149082123cm" xmlns="http://www.w3.org/2000/svg" xmlns:ev="http://www.w3.org/2001/xml-events" xmlns:xlink="http://www.w3.org/1999/xlink"><defs /><polygon fill="#800080" points="161.8076211353316,443.0 161.8076211353316,458.0 148.817240078565,465.5 135.8268590217984,458.0 135.8268590217984,443.0 148.817240078565,435.5" stroke="black" stroke-width="1" /><polygon fill="#800080" points="161.8076211353316,488.0 161.8076211353316,503.0 148.817240078565,510.5 135.8268590217984,503.0 135.8268590217984,488.0 148.817240078565,480.5" stroke="black" stroke-width="1" /><polygon fill="#800080" points="161.8076211353316,533.0 161.8076211353316,548.0 148.817240078565,555.5 135.8268590217984,548.0 135.8268590217984,533.0 148.817240078565,525.5" stroke="black" stroke-width="1" /><polygon fill="#800080" points="174.79800219209812,465.5 174.79800219209812,480.5 161.80762113533154,488.0 148.81724007856496,480.5 148.81724007856496,465.5 161.80762113533154,458.0" stroke="black" stroke-width="1" /><polygon fill="#800080" points="174.79800219209812,510.5 174.79800219209812,525.5 161.80762113533154,533.0 148.81724007856496,525.5 148.81724007856496,510.5 161.80762113533154,503.0" stroke="black" stroke-width="1" /><polygon fill="#800080" points="174.79800219209812,555.5 174.79800219209812,570.5 161.80762113533154,578.0 148.81724007856496,570.5 148.81724007856496,555.5 161.80762113533154,548.0" stroke="black" stroke-width="1" /><polygon fill="#800080" points="187.7883832488647,443.0 187.7883832488647,458.0 174.79800219209812,465.5 161.80762113533154,458.0 161.80762113533154,443.0 174.79800219209812,435.5" stroke="black" stroke-width="1" /><polygon fill="#800080" points="187.7883832488647,488.0 187.7883832488647,503.0 174.79800219209812,510.5 161.80762113533154,503.0 161.80762113533154,488.0 174.79800219209812,480.5" stroke="black" stroke-width="1" /><polygon fill="#800080" points="187.7883832488647,533.0 187.7883832488647,548.0 174.79800219209812,555.5 161.80762113533154,548.0 161.80762113533154,533.0 174.79800219209812,525.5" stroke="black" stroke-width="1" /><polygon fill="#800080" points="200.77876430563128,465.5 200.77876430563128,480.5 187.7883832488647,488.0 174.79800219209812,480.5 174.79800219209812,465.5 187.7883832488647,458.0" stroke="black" stroke-width="1" /><polygon fill="#800080" points="200.77876430563128,510.5 200.77876430563128,525.5 187.7883832488647,533.0 174.79800219209812,525.5 174.79800219209812,510.5 187.7883832488647,503.0" stroke="black" stroke-width="1" /><polygon fill="#800080" points="200.77876430563128,555.5 200.77876430563128,570.5 187.7883832488647,578.0 174.79800219209812,570.5 174.79800219209812,555.5 187.7883832488647,548.0" stroke="black" stroke-width="1" /><polygon fill="#800080" points="213.76914536239786,443.0 213.76914536239786,458.0 200.77876430563128,465.5 187.7883832488647,458.0 187.7883832488647,443.0 200.77876430563128,435.5" stroke="black" stroke-width="1" /><polygon fill="#800080" points="213.76914536239786,488.0 213.76914536239786,503.0 200.77876430563128,510.5 187.7883832488647,503.0 187.7883832488647,488.0 200.77876430563128,480.5" stroke="black" stroke-width="1" /><polygon fill="#800080" points="213.76914536239786,533.0 213.76914536239786,548.0 200.77876430563128,555.5 187.7883832488647,548.0 187.7883832488647,533.0 200.77876430563128,525.5" stroke="black" stroke-width="1" /><polygon fill="#800080" points="226.75952641916444,465.5 226.75952641916444,480.5 213.76914536239786,488.0 200.77876430563128,480.5 200.77876430563128,465.5 213.76914536239786,458.0" stroke="black" stroke-width="1" /><polygon fill="#800080" points="226.75952641916444,510.5 226.75952641916444,525.5 213.76914536239786,533.0 200.77876430563128,525.5 200.77876430563128,510.5 213.76914536239786,503.0" stroke="black" stroke-width="1" /><polygon fill="#800080" points="226.75952641916444,555.5 226.75952641916444,570.5 213.76914536239786,578.0 200.77876430563128,570.5 200.77876430563128,555.5 213.76914536239786,548.0" stroke="black" stroke-width="1" /><polygon fill="#800080" points="239.74990747593102,443.0 239.74990747593102,458.0 226.75952641916444,465.5 213.76914536239786,458.0 213.76914536239786,443.0 226.75952641916444,435.5" stroke="black" stroke-width="1" /><polygon fill="#800080" points="239.74990747593102,488.0 239.74990747593102,503.0 226.75952641916444,510.5 213.76914536239786,503.0 213.76914536239786,488.0 226.75952641916444,480.5" stroke="black" stroke-width="1" /><polygon fill="#800080" points="239.74990747593102,533.0 239.74990747593102,548.0 226.75952641916444,555.5 213.76914536239786,548.0 213.76914536239786,533.0 226.75952641916444,525.5" stroke="black" stroke-width="1" /><polygon fill="#800080" points="252.7402885326976,465.5 252.7402885326976,480.5 239.74990747593102,488.0 226.75952641916444,480.5 226.75952641916444,465.5 239.74990747593102,458.0" stroke="black" stroke-width="1" /><polygon fill="#800080" points="252.7402885326976,510.5 252.7402885326976,525.5 239.74990747593102,533.0 226.75952641916444,525.5 226.75952641916444,510.5 239.74990747593102,503.0" stroke="black" stroke-width="1" /><polygon fill="#800080" points="252.7402885326976,555.5 252.7402885326976,570.5 239.74990747593102,578.0 226.75952641916444,570.5 226.75952641916444,555.5 239.74990747593102,548.0" stroke="black" stroke-width="1" /><polygon fill="#800080" points="265.7306695894642,443.0 265.7306695894642,458.0 252.7402885326976,465.5 239.74990747593102,458.0 239.74990747593102,443.0 252.7402885326976,435.5" stroke="black" stroke-width="1" /><polygon fill="#800080" points="265.7306695894642,488.0 265.7306695894642,503.0 252.7402885326976,510.5 239.74990747593102,503.0 239.74990747593102,488.0 252.7402885326976,480.5" stroke="black" stroke-width="1" /><polygon fill="#800080" points="265.7306695894642,533.0 265.7306695894642,548.0 252.7402885326976,555.5 239.74990747593102,548.0 239.74990747593102,533.0 252.7402885326976,525.5" stroke="black" stroke-width="1" /><polygon fill="#800080" points="278.72105064623076,465.5 278.72105064623076,480.5 265.7306695894642,488.0 252.7402885326976,480.5 252.7402885326976,465.5 265.7306695894642,458.0" stroke="black" stroke-width="1" /><polygon fill="#800080" points="278.72105064623076,510.5 278.72105064623076,525.5 265.7306695894642,533.0 252.7402885326976,525.5 252.7402885326976,510.5 265.7306695894642,503.0" stroke="black" stroke-width="1" /><polygon fill="#800080" points="291.71143170299734,443.0 291.71143170299734,458.0 278.72105064623076,465.5 265.7306695894642,458.0 265.7306695894642,443.0 278.72105064623076,435.5" stroke="black" stroke-width="1" /><polygon fill="#800080" points="291.71143170299734,488.0 291.71143170299734,503.0 278.72105064623076,510.5 265.7306695894642,503.0 265.7306695894642,488.0 278.72105064623076,480.5" stroke="black" stroke-width="1" /><polygon fill="#800080" points="304.7018127597639,465.5 304.7018127597639,480.5 291.71143170299734,488.0 278.72105064623076,480.5 278.72105064623076,465.5 291.71143170299734,458.0" stroke="black" stroke-width="1" /><polygon fill="#800080" points="317.6921938165305,443.0 317.6921938165305,458.0 304.7018127597639,465.5 291.71143170299734,458.0 291.71143170299734,443.0 304.7018127597639,435.5" stroke="black" stroke-width="1" /></svg>