<?xml version="1.0" encoding="utf-8" ?>
<svg baseProfile="basic" height="133.17814692982745cm" version="1.1" viewBox="0,0,3220.3545149082124,1331.7814692982745" width="322.03545149082123cm" xmlns="http://www.w3.org/2000/svg" xmlns:ev="http://www.w3.org/2001/xml-events" xmlns:xlink="http://www.w3.org/1999/xlink"><defs /><polygon fill="#FFFFFF" points="433.0127018922193,100.0 433.0127018922193,125.0 411.36206679760835,137.5 389.7114317029974,125.0 389.7114317029974,100.0 411.36206679760835,87.5" stroke="black" stroke-width="1" /><polygon fill="#FFFFFF" points="433.0127018922193,175.0 433.0127018922193,200.0 411.36206679760835,212.5 389.7114317029974,200.0 389.7114317029974,175.0 411.36206679760835,162.5" stroke="black" stroke-width="1" /><polygon fill="#FFFFFF" points="433.0127018922193,250.0 433.0127018922193,275.0 411.36206679760835,287.5 389.7114317029974,275.0 389.7114317029974,250.0 411.36206679760835,237.5" stroke="black" stroke-width="1" /><polygon fill="#FFFFFF" points="454.66333698683025,137.5 454.66333698683025,162.5 433.0127018922193,175.0 411.36206679760835,162.5 411.36206679760835,137.5 433.0127018922193,125.0" stroke="black" stroke-width="1" /><polygon fill="#FFFFFF" points="454.66333698683025,212.5 454.66333698683025,237.5 433.0127018922193,250.0 411.36206679760835,237.5 411.36206679760835,212.5 433.0127018922193,200.0" stroke="black" stroke-width="1" /><polygon fill="#FFFFFF" points="454.66333698683025,287.5 454.66333698683025,312.5 433.0127018922193,325.0 411.36206679760835,312.5 411.36206679760835,287.5 433.0127018922193,275.0" stroke="black" stroke-width="1" /><polygon fill="#FFFFFF" points="476.31397208144125,100.0 476.31397208144125,125.0 454.6633369868303,137.5 433.01270189221935,125.0 433.01270189221935,100.0 454.6633369868303,87.5" stroke="black" stroke-width="1" /><polygon fill="#FFFFFF" points="476.31397208144125,175.0 476.31397208144125,200.0 454.6633369868303,212.5 433.01270189221935,200.0 433.01270189221935,175.0 454.6633369868303,162.5" stroke="black" stroke-width="1" /><polygon fill="#FFFFFF" points="476.31397208144125,250.0 476.31397208144125,275.0 454.6633369868303,287.5 433.01270189221935,275.0 433.01270189221935,250.0 454.6633369868303,237.5" stroke="black" stroke-width="1" /><polygon fill="#FFFFFF" points="497.9646071760522,137.5 497.9646071760522,162.5 476.31397208144125,175.0 454.6633369868303,162.5 454.6633369868303,137.5 476.31397208144125,125.0" stroke="black" stroke-width="1" /><polygon fill="#FFFFFF" points="497.9646071760522,212.5 497.9646071760522,237.5 476.31397208144125,250.0 454.6633369868303,237.5 454.6633369868303,212.5 476.31397208144125,200.0" stroke="black" stroke-width="1" /><polygon fill="#FFFFFF" points="497.9646071760522,287.5 497.9646071760522,312.5 476.31397208144125,325.0 454.6633369868303,312.5 454.6633369868303,287.5 476.31397208144125,275.0" stroke="black" stroke-width="1" /><polygon fill="#FFFFFF" points="519.6152422706632,100.0 519.6152422706632,125.0 497.9646071760522,137.5 476.31397208144125,125.0 476.31397208144125,100.0 497.9646071760522,87.5" stroke="black" stroke-width="1" /><polygon fill="#FFFFFF" points="519.6152422706632,175.0 519.6152422706632,200.0 497.9646071760522,212.5 476.31397208144125,200.0 476.31397208144125,175.0 497.9646071760522,162.5" stroke="black" stroke-width="1" /><polygon fill="#FFFFFF" points="519.6152422706632,250.0 519.6152422706632,275.0 497.9646071760522,287.5 476.31397208144125,275.0 476.31397208144125,250.0 497.9646071760522,237.5" stroke="black" stroke-width="1" /><polygon fill="#FFFFFF" points="541.2658773652742,137.5 541.2658773652742,162.5 519.6152422706632,175.0 497.96460717605225,162.5 497.96460717605225,137.5 519.6152422706632,125.0" stroke="black" stroke-width="1" /><polygon fill="#FFFFFF" points="541.2658773652742,212.5 541.2658773652742,237.5 519.6152422706632,250.0 497.96460717605225,237.5 497.96460717605225,212.5 519.6152422706632,200.0" stroke="black" stroke-width="1" /><polygon fill="#FFFFFF" points="541.2658773652742,287.5 541.2658773652742,312.5 519.6152422706632,325.0 497.96460717605225,312.5 497.96460717605225,287.5 519.6152422706632,275.0" stroke="black" stroke-width="1" /><polygon fill="#FFFFFF" points="562.9165124598851,100.0 562.9165124598851,125.0 541.2658773652742,137.5 519.6152422706632,125.0 519.6152422706632,100.0 541.2658773652742,87.5" stroke="black" stroke-width="1" /><polygon fill="#FFFFFF" points="562.9165124598851,175.0 562.9165124598851,200.0 541.2658773652742,212.5 519.6152422706632,200.0 519.6152422706632,175.0 541.2658773652742,162.5" stroke="black" stroke-width="1" /><polygon fill="#FFFFFF" points="562.9165124598851,250.0 562.9165124598851,275.0 541.2658773652742,287.5 519.6152422706632,275.0 519.6152422706632,250.0 541.2658773652742,237.5" stroke="black" stroke-width="1" /><polygon fill="#FFFFFF" points="584.567147554496,137.5 584.567147554496,162.5 562.9165124598851,175.0 541.2658773652742,162.5 541.2658773652742,137.5 562.9165124598851,125.0" stroke="black" stroke-width="1" /><polygon fill="#FFFFFF" points="584.567147554496,212.5 584.567147554496,237.5 562.9165124598851,250.0 541.2658773652742,237.5 541.2658773652742,212.5 562.9165124598851,200.0" stroke="black" stroke-width="1" /><polygon fill="#FFFFFF" points="584.567147554496,287.5 584.567147554496,312.5 562.9165124598851,325.0 541.2658773652742,312.5 541.2658773652742,287.5 562.9165124598851,275.0" stroke="black" stroke-width="1" /><polygon fill="#FFFFFF" points="606.217782649107,100.0 606.217782649107,125.0 584.567147554496,137.5 562.9165124598851,125.0 562.9165124598851,100.0 584.567147554496,87.5" stroke="black" stroke-width="1" /><polygon fill="#FFFFFF" points="606.217782649107,175.0 606.217782649107,200.0 584.567147554496,212.5 562.9165124598851,200.0 562.9165124598851,175.0 584.567147554496,162.5" stroke="black" stroke-width="1" /><polygon fill="#FFFFFF" points="606.217782649107,250.0 606.217782649107,275.0 584.567147554496,287.5 562.9165124598851,275.0 562.9165124598851,250.0 584.567147554496,237.5" stroke="black" stroke-width="1" /><polygon fill="#FFFFFF" points="627.8684177437179,137.5 627.8684177437179,162.5 606.217782649107,175.0 584.567147554496,162.5 584.567147554496,137.5 606.217782649107,125.0" stroke="black" stroke-width="1" /><polygon fill="#FFFFFF" points="627.8684177437179,212.5 627.8684177437179,237.5 606.217782649107,250.0 584.567147554496,237.5 584.567147554496,212.5 606.217782649107,200.0" stroke="black" stroke-width="1" /><polygon fill="#FFFFFF" points="649.519052838329,100.0 649.519052838329,125.0 627.868417743718,137.5 606.2177826491071,125.0 606.2177826491071,100.0 627.868417743718,87.5" stroke="black" stroke-width="1" /><polygon fill="#FFFFFF" points="649.519052838329,175.0 649.519052838329,200.0 627.868417743718,212.5 606.2177826491071,200.0 606.2177826491071,175.0 627.868417743718,162.5" stroke="black" stroke-width="1" /><polygon fill="#FFFFFF" points="671.16968793294,137.5 671.16968793294,162.5 649.519052838329,175.0 627.868417743718,162.5 627.868417743718,137.5 649.519052838329,125.0" stroke="black" stroke-width="1" /></svg>