<?xml version="1.0" encoding="utf-8" ?>
<svg baseProfile="basic" height="133.17814692982745cm" version="1.1" viewBox="0,0,1932.2127089449273,799.0688815789647" width="322.03545149082123cm" xmlns="http://www.w3.org/2000/svg" xmlns:ev="http://www.w3.org/2001/xml-events" xmlns:xlink="http://www.w3.org/1999/xlink"><defs /><polygon fill="#FFFFFF" points="259.8076211353316,60.0 259.8076211353316,75.0 246.817240078565,82.5 233.8268590217984,75.0 233.8268590217984,60.0 246.817240078565,52.5" stroke="black" stroke-width="1" /><polygon fill="#FFFFFF" points="259.8076211353316,105.0 259.8076211353316,120.0 246.817240078565,127.5 233.8268590217984,120.0 233.8268590217984,105.0 246.817240078565,97.5" stroke="black" stroke-width="1" /><polygon fill="#FFFFFF" points="259.8076211353316,150.0 259.8076211353316,165.0 246.817240078565,172.5 233.8268590217984,165.0 233.8268590217984,150.0 246.817240078565,142.5" stroke="black" stroke-width="1" /><polygon fill="#FFFFFF" points="272.7980021920981,82.5 272.7980021920981,97.5 259.80762113533154,105.0 246.81724007856496,97.5 246.81724007856496,82.5 259.80762113533154,75.0" stroke="black" stroke-width="1" /><polygon fill="#FFFFFF" points="272.7980021920981,127.5 272.7980021920981,142.5 259.80762113533154,150.0 246.81724007856496,142.5 246.81724007856496,127.5 259.80762113533154,120.0" stroke="black" stroke-width="1" /><polygon fill="#FFFFFF" points="272.7980021920981,172.5 272.7980021920981,187.5 259.80762113533154,195.0 246.81724007856496,187.5 246.81724007856496,172.5 259.80762113533154,165.0" stroke="black" stroke-width="1" /><polygon fill="#FFFFFF" points="285.7883832488647,60.0 285.7883832488647,75.0 272.7980021920981,82.5 259.80762113533154,75.0 259.80762113533154,60.0 272.7980021920981,52.5" stroke="black" stroke-width="1" /><polygon fill="#FFFFFF" points="285.7883832488647,105.0 285.7883832488647,120.0 272.7980021920981,127.5 259.80762113533154,120.0 259.80762113533154,105.0 272.7980021920981,97.5" stroke="black" stroke-width="1" /><polygon fill="#FFFFFF" points="285.7883832488647,150.0 285.7883832488647,165.0 272.7980021920981,172.5 259.80762113533154,165.0 259.80762113533154,150.0 272.7980021920981,142.5" stroke="black" stroke-width="1" /><polygon fill="#FFFFFF" points="298.7787643056313,82.5 298.7787643056313,97.5 285.7883832488647,105.0 272.7980021920981,97.5 272.7980021920981,82.5 285.7883832488647,75.0" stroke="black" stroke-width="1" /><polygon fill="#FFFFFF" points="298.7787643056313,127.5 298.7787643056313,142.5 285.7883832488647,150.0 272.7980021920981,142.5 272.7980021920981,127.5 285.7883832488647,120.0" stroke="black" stroke-width="1" /><polygon fill="#FFFFFF" points="298.7787643056313,172.5 298.7787643056313,187.5 285.7883832488647,195.0 272.7980021920981,187.5 272.7980021920981,172.5 285.7883832488647,165.0" stroke="black" stroke-width="1" /><polygon fill="#FFFFFF" points="311.76914536239786,60.0 311.76914536239786,75.0 298.7787643056313,82.5 285.7883832488647,75.0 285.7883832488647,60.0 298.7787643056313,52.5" stroke="black" stroke-width="1" /><polygon fill="#FFFFFF" points="311.76914536239786,105.0 311.76914536239786,120.0 298.7787643056313,127.5 285.7883832488647,120.0 285.7883832488647,105.0 298.7787643056313,97.5" stroke="black" stroke-width="1" /><polygon fill="#FFFFFF" points="311.76914536239786,150.0 311.76914536239786,165.0 298.7787643056313,172.5 285.7883832488647,165.0 285.7883832488647,150.0 298.7787643056313,142.5" stroke="black" stroke-width="1" /><polygon fill="#FFFFFF" points="324.75952641916444,82.5 324.75952641916444,97.5 311.76914536239786,105.0 298.7787643056313,97.5 298.7787643056313,82.5 311.76914536239786,75.0" stroke="black" stroke-width="1" /><polygon fill="#FFFFFF" points="324.75952641916444,127.5 324.75952641916444,142.5 311.76914536239786,150.0 298.7787643056313,142.5 298.7787643056313,127.5 311.76914536239786,120.0" stroke="black" stroke-width="1" /><polygon fill="#FFFFFF" points="324.75952641916444,172.5 324.75952641916444,187.5 311.76914536239786,195.0 298.7787643056313,187.5 298.7787643056313,172.5 311.76914536239786,165.0" stroke="black" stroke-width="1" /><polygon fill="#FFFFFF" points="337.749907475931,60.0 337.749907475931,75.0 324.75952641916444,82.5 311.76914536239786,75.0 311.76914536239786,60.0 324.75952641916444,52.5" stroke="black" stroke-width="1" /><polygon fill="#FFFFFF" points="337.749907475931,105.0 337.749907475931,120.0 324.75952641916444,127.5 311.76914536239786,120.0 311.76914536239786,105.0 324.75952641916444,97.5" stroke="black" stroke-width="1" /><polygon fill="#FFFFFF" points="337.749907475931,150.0 337.749907475931,165.0 324.75952641916444,172.5 311.76914536239786,165.0 311.76914536239786,150.0 324.75952641916444,142.5" stroke="black" stroke-width="1" /><polygon fill="#FFFFFF" points="350.7402885326976,82.5 350.7402885326976,97.5 337.749907475931,105.0 324.75952641916444,97.5 324.75952641916444,82.5 337.749907475931,75.0" stroke="black" stroke-width="1" /><polygon fill="#FFFFFF" points="350.7402885326976,127.5 350.7402885326976,142.5 337.749907475931,150.0 324.75952641916444,142.5 324.75952641916444,127.5 337.749907475931,120.0" stroke="black" stroke-width="1" /><polygon fill="#FFFFFF" points="350.7402885326976,172.5 350.7402885326976,187.5 337.749907475931,195.0 324.75952641916444,187.5 324.75952641916444,172.5 337.749907475931,165.0" stroke="black" stroke-width="1" /><polygon fill="#FFFFFF" points="363.7306695894642,60.0 363.7306695894642,75.0 350.7402885326976,82.5 337.749907475931,75.0 337.749907475931,60.0 350.7402885326976,52.5" stroke="black" stroke-width="1" /><polygon fill="#FFFFFF" points="363.7306695894642,105.0 363.7306695894642,120.0 350.7402885326976,127.5 337.749907475931,120.0 337.749907475931,105.0 350.7402885326976,97.5" stroke="black" stroke-width="1" /><polygon fill="#FFFFFF" points="363.7306695894642,150.0 363.7306695894642,165.0 350.7402885326976,172.5 337.749907475931,165.0 337.749907475931,150.0 350.7402885326976,142.5" stroke="black" stroke-width="1" /><polygon fill="#FFFFFF" points="376.72105064623076,82.5 376.72105064623076,97.5 363.7306695894642,105.0 350.7402885326976,97.5 350.7402885326976,82.5 363.7306695894642,75.0" stroke="black" stroke-width="1" /><polygon fill="#FFFFFF" points="376.72105064623076,127.5 376.72105064623076,142.5 363.7306695894642,150.0 350.7402885326976,142.5 350.7402885326976,127.5 363.7306695894642,120.0" stroke="black" stroke-width="1" /><polygon fill="#FFFFFF" points="389.71143170299734,60.0 389.71143170299734,75.0 376.72105064623076,82.5 363.7306695894642,75.0 363.7306695894642,60.0 376.72105064623076,52.5" stroke="black" stroke-width="1" /><polygon fill="#FFFFFF" points="389.71143170299734,105.0 389.71143170299734,120.0 376.72105064623076,127.5 363.7306695894642,120.0 363.7306695894642,105.0 376.72105064623076,97.5" stroke="black" stroke-width="1" /><polygon fill="#FFFFFF" points="402.7018127597639,82.5 402.7018127597639,97.5 389.71143170299734,105.0 376.72105064623076,97.5 376.72105064623076,82.5 389.71143170299734,75.0" stroke="black" stroke-width="1" /><polygon fill="#FFFFFF" points="415.6921938165305,60.0 415.6921938165305,75.0 402.7018127597639,82.5 389.71143170299734,75.0 389.71143170299734,60.0 402.7018127597639,52.5" stroke="black" stroke-width="1" /></svg>