<?xml version="1.0" encoding="utf-8" ?>
<svg baseProfile="basic" height="133.17814692982745cm" version="1.1" viewBox="0,0,1932.2127089449273,799.0688815789647" width="322.03545149082123cm" xmlns="http://www.w3.org/2000/svg" xmlns:ev="http://www.w3.org/2001/xml-events" xmlns:xlink="http://www.w3.org/1999/xlink"><defs /><polygon fill="#FFA500" points="1506.884202584923,150.0 1506.884202584923,165.0 1493.8938215281564,172.5 1480.9034404713898,165.0 1480.9034404713898,150.0 1493.8938215281564,142.5" stroke="black" stroke-width="1" /><polygon fill="#FFA500" points="1506.884202584923,195.0 1506.884202584923,210.0 1493.8938215281564,217.5 1480.9034404713898,210.0 1480.9034404713898,195.0 1493.8938215281564,187.5" stroke="black" stroke-width="1" /><polygon fill="#FFA500" points="1506.884202584923,240.0 1506.884202584923,255.0 1493.8938215281564,262.5 1480.9034404713898,255.0 1480.9034404713898,240.0 1493.8938215281564,232.5" stroke="black" stroke-width="1" /><polygon fill="#FFA500" points="1506.884202584923,285.0 1506.884202584923,300.0 1493.8938215281564,307.5 1480.9034404713898,300.0 1480.9034404713898,285.0 1493.8938215281564,277.5" stroke="black" stroke-width="1" /><polygon fill="#FFA500" points="1506.884202584923,330.0 1506.884202584923,345.0 1493.8938215281564,352.5 1480.9034404713898,345.0 1480.9034404713898,330.0 1493.8938215281564,322.5" stroke="black" stroke-width="1" /><polygon fill="#FFA500" points="1519.8745836416897,172.5 1519.8745836416897,187.5 1506.884202584923,195.0 1493.8938215281564,187.5 1493.8938215281564,172.5 1506.884202584923,165.0" stroke="black" stroke-width="1" /><polygon fill="#FFA500" points="1519.8745836416897,217.5 1519.8745836416897,232.5 1506.884202584923,240.0 1493.8938215281564,232.5 1493.8938215281564,217.5 1506.884202584923,210.0" stroke="black" stroke-width="1" /><polygon fill="#FFA500" points="1519.8745836416897,262.5 1519.8745836416897,277.5 1506.884202584923,285.0 1493.8938215281564,277.5 1493.8938215281564,262.5 1506.884202584923,255.0" stroke="black" stroke-width="1" /><polygon fill="#FFA500" points="1519.8745836416897,307.5 1519.8745836416897,322.5 1506.884202584923,330.0 1493.8938215281564,322.5 1493.8938215281564,307.5 1506.884202584923,300.0" stroke="black" stroke-width="1" /><polygon fill="#FFA500" points="1519.8745836416897,352.5 1519.8745836416897,367.5 1506.884202584923,375.0 1493.8938215281564,367.5 1493.8938215281564,352.5 1506.884202584923,345.0" stroke="black" stroke-width="1" /><polygon fill="#FFA500" points="1532.8649646984563,150.0 1532.8649646984563,165.0 1519.8745836416897,172.5 1506.884202584923,165.0 1506.884202584923,150.0 1519.8745836416897,142.5" stroke="black" stroke-width="1" /><polygon fill="#FFA500" points="1532.8649646984563,195.0 1532.8649646984563,210.0 1519.8745836416897,217.5 1506.884202584923,210.0 1506.884202584923,195.0 1519.8745836416897,187.5" stroke="black" stroke-width="1" /><polygon fill="#FFA500" points="1532.8649646984563,240.0 1532.8649646984563,255.0 1519.8745836416897,262.5 1506.884202584923,255.0 1506.884202584923,240.0 1519.8745836416897,232.5" stroke="black" stroke-width="1" /><polygon fill="#FFA500" points="1532.8649646984563,285.0 1532.8649646984563,300.0 1519.8745836416897,307.5 1506.884202584923,300.0 1506.884202584923,285.0 1519.8745836416897,277.5" stroke="black" stroke-width="1" /><polygon fill="#FFA500" points="1532.8649646984563,330.0 1532.8649646984563,345.0 1519.8745836416897,352.5 1506.884202584923,345.0 1506.884202584923,330.0 1519.8745836416897,322.5" stroke="black" stroke-width="1" /><polygon fill="#FFA500" points="1545.855345755223,127.5 1545.855345755223,142.5 1532.8649646984563,150.0 1519.8745836416897,142.5 1519.8745836416897,127.5 1532.8649646984563,120.0" stroke="black" stroke-width="1" /><polygon fill="#FFA500" points="1545.855345755223,172.5 1545.855345755223,187.5 1532.8649646984563,195.0 1519.8745836416897,187.5 1519.8745836416897,172.5 1532.8649646984563,165.0" stroke="black" stroke-width="1" /><polygon fill="#FFA500" points="1545.855345755223,217.5 1545.855345755223,232.5 1532.8649646984563,240.0 1519.8745836416897,232.5 1519.8745836416897,217.5 1532.8649646984563,210.0" stroke="black" stroke-width="1" /><polygon fill="#FFA500" points="1545.855345755223,262.5 1545.855345755223,277.5 1532.8649646984563,285.0 1519.8745836416897,277.5 1519.8745836416897,262.5 1532.8649646984563,255.0" stroke="black" stroke-width="1" /><polygon fill="#FFA500" points="1545.855345755223,307.5 1545.855345755223,322.5 1532.8649646984563,330.0 1519.8745836416897,322.5 1519.8745836416897,307.5 1532.8649646984563,300.0" stroke="black" stroke-width="1" /><polygon fill="#FFA500" points="1545.855345755223,352.5 1545.855345755223,367.5 1532.8649646984563,375.0 1519.8745836416897,367.5 1519.8745836416897,352.5 1532.8649646984563,345.0" stroke="black" stroke-width="1" /><polygon fill="#FFA500" points="1558.8457268119894,60.0 1558.8457268119894,75.0 1545.8553457552227,82.5 1532.864964698456,75.0 1532.864964698456,60.0 1545.8553457552227,52.5" stroke="black" stroke-width="1" /><polygon fill="#FFA500" points="1558.8457268119894,105.0 1558.8457268119894,120.0 1545.8553457552227,127.5 1532.864964698456,120.0 1532.864964698456,105.0 1545.8553457552227,97.5" stroke="black" stroke-width="1" /><polygon fill="#FFA500" points="1558.8457268119894,150.0 1558.8457268119894,165.0 1545.8553457552227,172.5 1532.864964698456,165.0 1532.864964698456,150.0 1545.8553457552227,142.5" stroke="black" stroke-width="1" /><polygon fill="#FFA500" points="1558.8457268119894,195.0 1558.8457268119894,210.0 1545.8553457552227,217.5 1532.864964698456,210.0 1532.864964698456,195.0 1545.8553457552227,187.5" stroke="black" stroke-width="1" /><polygon fill="#FFA500" points="1558.8457268119894,240.0 1558.8457268119894,255.0 1545.8553457552227,262.5 1532.864964698456,255.0 1532.864964698456,240.0 1545.8553457552227,232.5" stroke="black" stroke-width="1" /><polygon fill="#FFA500" points="1558.8457268119894,285.0 1558.8457268119894,300.0 1545.8553457552227,307.5 1532.864964698456,300.0 1532.864964698456,285.0 1545.8553457552227,277.5" stroke="black" stroke-width="1" /><polygon fill="#FFA500" points="1558.8457268119894,330.0 1558.8457268119894,345.0 1545.8553457552227,352.5 1532.864964698456,345.0 1532.864964698456,330.0 1545.8553457552227,322.5" stroke="black" stroke-width="1" /><polygon fill="#FFA500" points="1571.836107868756,82.5 1571.836107868756,97.5 1558.8457268119894,105.0 1545.8553457552227,97.5 1545.8553457552227,82.5 1558.8457268119894,75.0" stroke="black" stroke-width="1" /><polygon fill="#FFA500" points="1571.836107868756,127.5 1571.836107868756,142.5 1558.8457268119894,150.0 1545.8553457552227,142.5 1545.8553457552227,127.5 1558.8457268119894,120.0" stroke="black" stroke-width="1" /><polygon fill="#FFA500" points="1571.836107868756,172.5 1571.836107868756,187.5 1558.8457268119894,195.0 1545.8553457552227,187.5 1545.8553457552227,172.5 1558.8457268119894,165.0" stroke="black" stroke-width="1" /><polygon fill="#FFA500" points="1571.836107868756,217.5 1571.836107868756,232.5 1558.8457268119894,240.0 1545.8553457552227,232.5 1545.8553457552227,217.5 1558.8457268119894,210.0" stroke="black" stroke-width="1" /><polygon fill="#FFA500" points="1571.836107868756,262.5 1571.836107868756,277.5 1558.8457268119894,285.0 1545.8553457552227,277.5 1545.8553457552227,262.5 1558.8457268119894,255.0" stroke="black" stroke-width="1" /><polygon fill="#FFA500" points="1571.836107868756,307.5 1571.836107868756,322.5 1558.8457268119894,330.0 1545.8553457552227,322.5 1545.8553457552227,307.5 1558.8457268119894,300.0" stroke="black" stroke-width="1" /><polygon fill="#FFA500" points="1571.836107868756,352.5 1571.836107868756,367.5 1558.8457268119894,375.0 1545.8553457552227,367.5 1545.8553457552227,352.5 1558.8457268119894,345.0" stroke="black" stroke-width="1" /><polygon fill="#FFA500" points="1584.8264889255227,60.0 1584.8264889255227,75.0 1571.836107868756,82.5 1558.8457268119894,75.0 1558.8457268119894,60.0 1571.836107868756,52.5" stroke="black" stroke-width="1" /><polygon fill="#FFA500" points="1584.8264889255227,105.0 1584.8264889255227,120.0 1571.836107868756,127.5 1558.8457268119894,120.0 1558.8457268119894,105.0 1571.836107868756,97.5" stroke="black" stroke-width="1" /><polygon fill="#FFA500" points="1584.8264889255227,150.0 1584.8264889255227,165.0 1571.836107868756,172.5 1558.8457268119894,165.0 1558.8457268119894,150.0 1571.836107868756,142.5" stroke="black" stroke-width="1" /><polygon fill="#FFA500" points="1584.8264889255227,195.0 1584.8264889255227,210.0 1571.836107868756,217.5 1558.8457268119894,210.0 1558.8457268119894,195.0 1571.836107868756,187.5" stroke="black" stroke-width="1" /><polygon fill="#FFA500" points="1584.8264889255227,240.0 1584.8264889255227,255.0 1571.836107868756,262.5 1558.8457268119894,255.0 1558.8457268119894,240.0 1571.836107868756,232.5" stroke="black" stroke-width="1" /><polygon fill="#FFA500" points="1584.8264889255227,285.0 1584.8264889255227,300.0 1571.836107868756,307.5 1558.8457268119894,300.0 1558.8457268119894,285.0 1571.836107868756,277.5" stroke="black" stroke-width="1" /><polygon fill="#FFA500" points="1584.8264889255227,330.0 1584.8264889255227,345.0 1571.836107868756,352.5 1558.8457268119894,345.0 1558.8457268119894,330.0 1571.836107868756,322.5" stroke="black" stroke-width="1" /><polygon fill="#FFA500" points="1597.8168699822893,82.5 1597.8168699822893,97.5 1584.8264889255227,105.0 1571.836107868756,97.5 1571.836107868756,82.5 1584.8264889255227,75.0" stroke="black" stroke-width="1" /><polygon fill="#FFA500" points="1597.8168699822893,127.5 1597.8168699822893,142.5 1584.8264889255227,150.0 1571.836107868756,142.5 1571.836107868756,127.5 1584.8264889255227,120.0" stroke="black" stroke-width="1" /><polygon fill="#FFA500" points="1597.8168699822893,172.5 1597.8168699822893,187.5 1584.8264889255227,195.0 1571.836107868756,187.5 1571.836107868756,172.5 1584.8264889255227,165.0" stroke="black" stroke-width="1" /><polygon fill="#FFA500" points="1597.8168699822893,217.5 1597.8168699822893,232.5 1584.8264889255227,240.0 1571.836107868756,232.5 1571.836107868756,217.5 1584.8264889255227,210.0" stroke="black" stroke-width="1" /><polygon fill="#FFA500" points="1597.8168699822893,262.5 1597.8168699822893,277.5 1584.8264889255227,285.0 1571.836107868756,277.5 1571.836107868756,262.5 1584.8264889255227,255.0" stroke="black" stroke-width="1" /><polygon fill="#FFA500" points="1597.8168699822893,307.5 1597.8168699822893,322.5 1584.8264889255227,330.0 1571.836107868756,322.5 1571.836107868756,307.5 1584.8264889255227,300.0" stroke="black" stroke-width="1" /><polygon fill="#FFA500" points="1597.8168699822893,352.5 1597.8168699822893,367.5 1584.8264889255227,375.0 1571.836107868756,367.5 1571.836107868756,352.5 1584.8264889255227,345.0" stroke="black" stroke-width="1" /><polygon fill="#FFA500" points="1610.8072510390557,105.0 1610.8072510390557,120.0 1597.816869982289,127.5 1584.8264889255224,120.0 1584.8264889255224,105.0 1597.816869982289,97.5" stroke="black" stroke-width="1" /><polygon fill="#FFA500" points="1610.8072510390557,150.0 1610.8072510390557,165.0 1597.816869982289,172.5 1584.8264889255224,165.0 1584.8264889255224,150.0 1597.816869982289,142.5" stroke="black" stroke-width="1" /><polygon fill="#FFA500" points="1610.8072510390557,195.0 1610.8072510390557,210.0 1597.816869982289,217.5 1584.8264889255224,210.0 1584.8264889255224,195.0 1597.816869982289,187.5" stroke="black" stroke-width="1" /><polygon fill="#FFA500" points="1610.8072510390557,240.0 1610.8072510390557,255.0 1597.816869982289,262.5 1584.8264889255224,255.0 1584.8264889255224,240.0 1597.816869982289,232.5" stroke="black" stroke-width="1" /><polygon fill="#FFA500" points="1610.8072510390557,285.0 1610.8072510390557,300.0 1597.816869982289,307.5 1584.8264889255224,300.0 1584.8264889255224,285.0 1597.816869982289,277.5" stroke="black" stroke-width="1" /><polygon fill="#FFA500" points="1610.8072510390557,330.0 1610.8072510390557,345.0 1597.816869982289,352.5 1584.8264889255224,345.0 1584.8264889255224,330.0 1597.816869982289,322.5" stroke="black" stroke-width="1" /><polygon fill="#FFA500" points="1623.7976320958223,127.5 1623.7976320958223,142.5 1610.8072510390557,150.0 1597.816869982289,142.5 1597.816869982289,127.5 1610.8072510390557,120.0" stroke="black" stroke-width="1" /><polygon fill="#FFA500" points="1623.7976320958223,172.5 1623.7976320958223,187.5 1610.8072510390557,195.0 1597.816869982289,187.5 1597.816869982289,172.5 1610.8072510390557,165.0" stroke="black" stroke-width="1" /><polygon fill="#FFA500" points="1623.7976320958223,217.5 1623.7976320958223,232.5 1610.8072510390557,240.0 1597.816869982289,232.5 1597.816869982289,217.5 1610.8072510390557,210.0" stroke="black" stroke-width="1" /><polygon fill="#FFA500" points="1623.7976320958223,262.5 1623.7976320958223,277.5 1610.8072510390557,285.0 1597.816869982289,277.5 1597.816869982289,262.5 1610.8072510390557,255.0" stroke="black" stroke-width="1" /><polygon fill="#FFA500" points="1623.7976320958223,307.5 1623.7976320958223,322.5 1610.8072510390557,330.0 1597.816869982289,322.5 1597.816869982289,307.5 1610.8072510390557,300.0" stroke="black" stroke-width="1" /><polygon fill="#FFA500" points="1623.7976320958223,352.5 1623.7976320958223,367.5 1610.8072510390557,375.0 1597.816869982289,367.5 1597.816869982289,352.5 1610.8072510390557,345.0" stroke="black" stroke-width="1" /><polygon fill="#FFA500" points="1636.788013152589,150.0 1636.788013152589,165.0 1623.7976320958223,172.5 1610.8072510390557,165.0 1610.8072510390557,150.0 1623.7976320958223,142.5" stroke="black" stroke-width="1" /><polygon fill="#FFA500" points="1636.788013152589,195.0 1636.788013152589,210.0 1623.7976320958223,217.5 1610.8072510390557,210.0 1610.8072510390557,195.0 1623.7976320958223,187.5" stroke="black" stroke-width="1" /><polygon fill="#FFA500" points="1636.788013152589,240.0 1636.788013152589,255.0 1623.7976320958223,262.5 1610.8072510390557,255.0 1610.8072510390557,240.0 1623.7976320958223,232.5" stroke="black" stroke-width="1" /><polygon fill="#FFA500" points="1636.788013152589,285.0 1636.788013152589,300.0 1623.7976320958223,307.5 1610.8072510390557,300.0 1610.8072510390557,285.0 1623.7976320958223,277.5" stroke="black" stroke-width="1" /><polygon fill="#FFA500" points="1636.788013152589,330.0 1636.788013152589,345.0 1623.7976320958223,352.5 1610.8072510390557,345.0 1610.8072510390557,330.0 1623.7976320958223,322.5" stroke="black" stroke-width="1" /><polygon fill="#FFA500" points="1649.7783942093556,172.5 1649.7783942093556,187.5 1636.788013152589,195.0 1623.7976320958223,187.5 1623.7976320958223,172.5 1636.788013152589,165.0" stroke="black" stroke-width="1" /><polygon fill="#FFA500" points="1649.7783942093556,217.5 1649.7783942093556,232.5 1636.788013152589,240.0 1623.7976320958223,232.5 1623.7976320958223,217.5 1636.788013152589,210.0" stroke="black" stroke-width="1" /><polygon fill="#FFA500" points="1649.7783942093556,262.5 1649.7783942093556,277.5 1636.788013152589,285.0 1623.7976320958223,277.5 1623.7976320958223,262.5 1636.788013152589,255.0" stroke="black" stroke-width="1" /><polygon fill="#FFA500" points="1649.7783942093556,307.5 1649.7783942093556,322.5 1636.788013152589,330.0 1623.7976320958223,322.5 1623.7976320958223,307.5 1636.788013152589,300.0" stroke="black" stroke-width="1" /><polygon fill="#FFA500" points="1649.7783942093556,352.5 1649.7783942093556,367.5 1636.788013152589,375.0 1623.7976320958223,367.5 1623.7976320958223,352.5 1636.788013152589,345.0" stroke="black" stroke-width="1" /><polygon fill="#FFA500" points="1662.768775266122,195.0 1662.768775266122,210.0 1649.7783942093554,217.5 1636.7880131525887,210.0 1636.7880131525887,195.0 1649.7783942093554,187.5" stroke="black" stroke-width="1" /><polygon fill="#FFA500" points="1662.768775266122,240.0 1662.768775266122,255.0 1649.7783942093554,262.5 1636.7880131525887,255.0 1636.7880131525887,240.0 1649.7783942093554,232.5" stroke="black" stroke-width="1" /><polygon fill="#FFA500" points="1662.768775266122,285.0 1662.768775266122,300.0 1649.7783942093554,307.5 1636.7880131525887,300.0 1636.7880131525887,285.0 1649.7783942093554,277.5" stroke="black" stroke-width="1" /><polygon fill="#FFA500" points="1662.768775266122,330.0 1662.768775266122,345.0 1649.7783942093554,352.5 1636.7880131525887,345.0 1636.7880131525887,330.0 1649.7783942093554,322.5" stroke="black" stroke-width="1" /></svg>