<?xml version="1.0" encoding="utf-8" ?>
<svg baseProfile="basic" height="133.17814692982745cm" version="1.1" viewBox="0,0,3220.3545149082124,1331.7814692982745" width="322.03545149082123cm" xmlns="http://www.w3.org/2000/svg" xmlns:ev="http://www.w3.org/2001/xml-events" xmlns:xlink="http://www.w3.org/1999/xlink"><defs /><polygon fill="#FFFFFF" points="2511.473670974872,250.0 2511.473670974872,275.0 2489.823035880261,287.5 2468.17240078565,275.0 2468.17240078565,250.0 2489.823035880261,237.5" stroke="black" stroke-width="1" /><polygon fill="#FFFFFF" points="2511.473670974872,325.0 2511.473670974872,350.0 2489.823035880261,362.5 2468.17240078565,350.0 2468.17240078565,325.0 2489.823035880261,312.5" stroke="black" stroke-width="1" /><polygon fill="#FFFFFF" points="2511.473670974872,400.0 2511.473670974872,425.0 2489.823035880261,437.5 2468.17240078565,425.0 2468.17240078565,400.0 2489.823035880261,387.5" stroke="black" stroke-width="1" /><polygon fill="#FFFFFF" points="2511.473670974872,475.0 2511.473670974872,500.0 2489.823035880261,512.5 2468.17240078565,500.0 2468.17240078565,475.0 2489.823035880261,462.5" stroke="black" stroke-width="1" /><polygon fill="#FFFFFF" points="2511.473670974872,550.0 2511.473670974872,575.0 2489.823035880261,587.5 2468.17240078565,575.0 2468.17240078565,550.0 2489.823035880261,537.5" stroke="black" stroke-width="1" /><polygon fill="#FFFFFF" points="2533.1243060694833,212.5 2533.1243060694833,237.5 2511.473670974872,250.0 2489.823035880261,237.5 2489.823035880261,212.5 2511.473670974872,200.0" stroke="black" stroke-width="1" /><polygon fill="#FFFFFF" points="2533.1243060694833,287.5 2533.1243060694833,312.5 2511.473670974872,325.0 2489.823035880261,312.5 2489.823035880261,287.5 2511.473670974872,275.0" stroke="black" stroke-width="1" /><polygon fill="#FFFFFF" points="2533.1243060694833,362.5 2533.1243060694833,387.5 2511.473670974872,400.0 2489.823035880261,387.5 2489.823035880261,362.5 2511.473670974872,350.0" stroke="black" stroke-width="1" /><polygon fill="#FFFFFF" points="2533.1243060694833,437.5 2533.1243060694833,462.5 2511.473670974872,475.0 2489.823035880261,462.5 2489.823035880261,437.5 2511.473670974872,425.0" stroke="black" stroke-width="1" /><polygon fill="#FFFFFF" points="2533.1243060694833,512.5 2533.1243060694833,537.5 2511.473670974872,550.0 2489.823035880261,537.5 2489.823035880261,512.5 2511.473670974872,500.0" stroke="black" stroke-width="1" /><polygon fill="#FFFFFF" points="2533.1243060694833,587.5 2533.1243060694833,612.5 2511.473670974872,625.0 2489.823035880261,612.5 2489.823035880261,587.5 2511.473670974872,575.0" stroke="black" stroke-width="1" /><polygon fill="#FFFFFF" points="2554.774941164094,250.0 2554.774941164094,275.0 2533.124306069483,287.5 2511.4736709748718,275.0 2511.4736709748718,250.0 2533.124306069483,237.5" stroke="black" stroke-width="1" /><polygon fill="#FFFFFF" points="2554.774941164094,325.0 2554.774941164094,350.0 2533.124306069483,362.5 2511.4736709748718,350.0 2511.4736709748718,325.0 2533.124306069483,312.5" stroke="black" stroke-width="1" /><polygon fill="#FFFFFF" points="2554.774941164094,400.0 2554.774941164094,425.0 2533.124306069483,437.5 2511.4736709748718,425.0 2511.4736709748718,400.0 2533.124306069483,387.5" stroke="black" stroke-width="1" /><polygon fill="#FFFFFF" points="2554.774941164094,475.0 2554.774941164094,500.0 2533.124306069483,512.5 2511.4736709748718,500.0 2511.4736709748718,475.0 2533.124306069483,462.5" stroke="black" stroke-width="1" /><polygon fill="#FFFFFF" points="2554.774941164094,550.0 2554.774941164094,575.0 2533.124306069483,587.5 2511.4736709748718,575.0 2511.4736709748718,550.0 2533.124306069483,537.5" stroke="black" stroke-width="1" /><polygon fill="#FFFFFF" points="2576.425576258705,212.5 2576.425576258705,237.5 2554.774941164094,250.0 2533.124306069483,237.5 2533.124306069483,212.5 2554.774941164094,200.0" stroke="black" stroke-width="1" /><polygon fill="#FFFFFF" points="2576.425576258705,287.5 2576.425576258705,312.5 2554.774941164094,325.0 2533.124306069483,312.5 2533.124306069483,287.5 2554.774941164094,275.0" stroke="black" stroke-width="1" /><polygon fill="#FFFFFF" points="2576.425576258705,362.5 2576.425576258705,387.5 2554.774941164094,400.0 2533.124306069483,387.5 2533.124306069483,362.5 2554.774941164094,350.0" stroke="black" stroke-width="1" /><polygon fill="#FFFFFF" points="2576.425576258705,437.5 2576.425576258705,462.5 2554.774941164094,475.0 2533.124306069483,462.5 2533.124306069483,437.5 2554.774941164094,425.0" stroke="black" stroke-width="1" /><polygon fill="#FFFFFF" points="2576.425576258705,512.5 2576.425576258705,537.5 2554.774941164094,550.0 2533.124306069483,537.5 2533.124306069483,512.5 2554.774941164094,500.0" stroke="black" stroke-width="1" /><polygon fill="#FFFFFF" points="2576.425576258705,587.5 2576.425576258705,612.5 2554.774941164094,625.0 2533.124306069483,612.5 2533.124306069483,587.5 2554.774941164094,575.0" stroke="black" stroke-width="1" /><polygon fill="#FFFFFF" points="2598.076211353316,100.0 2598.076211353316,125.0 2576.425576258705,137.5 2554.774941164094,125.0 2554.774941164094,100.0 2576.425576258705,87.5" stroke="black" stroke-width="1" /><polygon fill="#FFFFFF" points="2598.076211353316,175.0 2598.076211353316,200.0 2576.425576258705,212.5 2554.774941164094,200.0 2554.774941164094,175.0 2576.425576258705,162.5" stroke="black" stroke-width="1" /><polygon fill="#FFFFFF" points="2598.076211353316,250.0 2598.076211353316,275.0 2576.425576258705,287.5 2554.774941164094,275.0 2554.774941164094,250.0 2576.425576258705,237.5" stroke="black" stroke-width="1" /><polygon fill="#FFFFFF" points="2598.076211353316,325.0 2598.076211353316,350.0 2576.425576258705,362.5 2554.774941164094,350.0 2554.774941164094,325.0 2576.425576258705,312.5" stroke="black" stroke-width="1" /><polygon fill="#FFFFFF" points="2598.076211353316,400.0 2598.076211353316,425.0 2576.425576258705,437.5 2554.774941164094,425.0 2554.774941164094,400.0 2576.425576258705,387.5" stroke="black" stroke-width="1" /><polygon fill="#FFFFFF" points="2598.076211353316,475.0 2598.076211353316,500.0 2576.425576258705,512.5 2554.774941164094,500.0 2554.774941164094,475.0 2576.425576258705,462.5" stroke="black" stroke-width="1" /><polygon fill="#FFFFFF" points="2598.076211353316,550.0 2598.076211353316,575.0 2576.425576258705,587.5 2554.774941164094,575.0 2554.774941164094,550.0 2576.425576258705,537.5" stroke="black" stroke-width="1" /><polygon fill="#FFFFFF" points="2619.726846447927,137.5 2619.726846447927,162.5 2598.076211353316,175.0 2576.425576258705,162.5 2576.425576258705,137.5 2598.076211353316,125.0" stroke="black" stroke-width="1" /><polygon fill="#FFFFFF" points="2619.726846447927,212.5 2619.726846447927,237.5 2598.076211353316,250.0 2576.425576258705,237.5 2576.425576258705,212.5 2598.076211353316,200.0" stroke="black" stroke-width="1" /><polygon fill="#FFFFFF" points="2619.726846447927,287.5 2619.726846447927,312.5 2598.076211353316,325.0 2576.425576258705,312.5 2576.425576258705,287.5 2598.076211353316,275.0" stroke="black" stroke-width="1" /><polygon fill="#FFFFFF" points="2619.726846447927,362.5 2619.726846447927,387.5 2598.076211353316,400.0 2576.425576258705,387.5 2576.425576258705,362.5 2598.076211353316,350.0" stroke="black" stroke-width="1" /><polygon fill="#FFFFFF" points="2619.726846447927,437.5 2619.726846447927,462.5 2598.076211353316,475.0 2576.425576258705,462.5 2576.425576258705,437.5 2598.076211353316,425.0" stroke="black" stroke-width="1" /><polygon fill="#FFFFFF" points="2619.726846447927,512.5 2619.726846447927,537.5 2598.076211353316,550.0 2576.425576258705,537.5 2576.425576258705,512.5 2598.076211353316,500.0" stroke="black" stroke-width="1" /><polygon fill="#FFFFFF" points="2619.726846447927,587.5 2619.726846447927,612.5 2598.076211353316,625.0 2576.425576258705,612.5 2576.425576258705,587.5 2598.076211353316,575.0" stroke="black" stroke-width="1" /><polygon fill="#FFFFFF" points="2641.3774815425377,100.0 2641.3774815425377,125.0 2619.7268464479266,137.5 2598.0762113533156,125.0 2598.0762113533156,100.0 2619.7268464479266,87.5" stroke="black" stroke-width="1" /><polygon fill="#FFFFFF" points="2641.3774815425377,175.0 2641.3774815425377,200.0 2619.7268464479266,212.5 2598.0762113533156,200.0 2598.0762113533156,175.0 2619.7268464479266,162.5" stroke="black" stroke-width="1" /><polygon fill="#FFFFFF" points="2641.3774815425377,250.0 2641.3774815425377,275.0 2619.7268464479266,287.5 2598.0762113533156,275.0 2598.0762113533156,250.0 2619.7268464479266,237.5" stroke="black" stroke-width="1" /><polygon fill="#FFFFFF" points="2641.3774815425377,325.0 2641.3774815425377,350.0 2619.7268464479266,362.5 2598.0762113533156,350.0 2598.0762113533156,325.0 2619.7268464479266,312.5" stroke="black" stroke-width="1" /><polygon fill="#FFFFFF" points="2641.3774815425377,400.0 2641.3774815425377,425.0 2619.7268464479266,437.5 2598.0762113533156,425.0 2598.0762113533156,400.0 2619.7268464479266,387.5" stroke="black" stroke-width="1" /><polygon fill="#FFFFFF" points="2641.3774815425377,475.0 2641.3774815425377,500.0 2619.7268464479266,512.5 2598.0762113533156,500.0 2598.0762113533156,475.0 2619.7268464479266,462.5" stroke="black" stroke-width="1" /><polygon fill="#FFFFFF" points="2641.3774815425377,550.0 2641.3774815425377,575.0 2619.7268464479266,587.5 2598.0762113533156,575.0 2598.0762113533156,550.0 2619.7268464479266,537.5" stroke="black" stroke-width="1" /><polygon fill="#FFFFFF" points="2663.0281166371487,137.5 2663.0281166371487,162.5 2641.3774815425377,175.0 2619.7268464479266,162.5 2619.7268464479266,137.5 2641.3774815425377,125.0" stroke="black" stroke-width="1" /><polygon fill="#FFFFFF" points="2663.0281166371487,212.5 2663.0281166371487,237.5 2641.3774815425377,250.0 2619.7268464479266,237.5 2619.7268464479266,212.5 2641.3774815425377,200.0" stroke="black" stroke-width="1" /><polygon fill="#FFFFFF" points="2663.0281166371487,287.5 2663.0281166371487,312.5 2641.3774815425377,325.0 2619.7268464479266,312.5 2619.7268464479266,287.5 2641.3774815425377,275.0" stroke="black" stroke-width="1" /><polygon fill="#FFFFFF" points="2663.0281166371487,362.5 2663.0281166371487,387.5 2641.3774815425377,400.0 2619.7268464479266,387.5 2619.7268464479266,362.5 2641.3774815425377,350.0" stroke="black" stroke-width="1" /><polygon fill="#FFFFFF" points="2663.0281166371487,437.5 2663.0281166371487,462.5 2641.3774815425377,475.0 2619.7268464479266,462.5 2619.7268464479266,437.5 2641.3774815425377,425.0" stroke="black" stroke-width="1" /><polygon fill="#FFFFFF" points="2663.0281166371487,512.5 2663.0281166371487,537.5 2641.3774815425377,550.0 2619.7268464479266,537.5 2619.7268464479266,512.5 2641.3774815425377,500.0" stroke="black" stroke-width="1" /><polygon fill="#FFFFFF" points="2663.0281166371487,587.5 2663.0281166371487,612.5 2641.3774815425377,625.0 2619.7268464479266,612.5 2619.7268464479266,587.5 2641.3774815425377,575.0" stroke="black" stroke-width="1" /><polygon fill="#FFFFFF" points="2684.67875173176,175.0 2684.67875173176,200.0 2663.0281166371487,212.5 2641.3774815425377,200.0 2641.3774815425377,175.0 2663.0281166371487,162.5" stroke="black" stroke-width="1" /><polygon fill="#FFFFFF" points="2684.67875173176,250.0 2684.67875173176,275.0 2663.0281166371487,287.5 2641.3774815425377,275.0 2641.3774815425377,250.0 2663.0281166371487,237.5" stroke="black" stroke-width="1" /><polygon fill="#FFFFFF" points="2684.67875173176,325.0 2684.67875173176,350.0 2663.0281166371487,362.5 2641.3774815425377,350.0 2641.3774815425377,325.0 2663.0281166371487,312.5" stroke="black" stroke-width="1" /><polygon fill="#FFFFFF" points="2684.67875173176,400.0 2684.67875173176,425.0 2663.0281166371487,437.5 2641.3774815425377,425.0 2641.3774815425377,400.0 2663.0281166371487,387.5" stroke="black" stroke-width="1" /><polygon fill="#FFFFFF" points="2684.67875173176,475.0 2684.67875173176,500.0 2663.0281166371487,512.5 2641.3774815425377,500.0 2641.3774815425377,475.0 2663.0281166371487,462.5" stroke="black" stroke-width="1" /><polygon fill="#FFFFFF" points="2684.67875173176,550.0 2684.67875173176,575.0 2663.0281166371487,587.5 2641.3774815425377,575.0 2641.3774815425377,550.0 2663.0281166371487,537.5" stroke="black" stroke-width="1" /><polygon fill="#FFFFFF" points="2706.329386826371,287.5 2706.329386826371,312.5 2684.67875173176,325.0 2663.0281166371487,312.5 2663.0281166371487,287.5 2684.67875173176,275.0" stroke="black" stroke-width="1" /><polygon fill="#FFFFFF" points="2706.329386826371,362.5 2706.329386826371,387.5 2684.67875173176,400.0 2663.0281166371487,387.5 2663.0281166371487,362.5 2684.67875173176,350.0" stroke="black" stroke-width="1" /><polygon fill="#FFFFFF" points="2706.329386826371,437.5 2706.329386826371,462.5 2684.67875173176,475.0 2663.0281166371487,462.5 2663.0281166371487,437.5 2684.67875173176,425.0" stroke="black" stroke-width="1" /><polygon fill="#FFFFFF" points="2706.329386826371,512.5 2706.329386826371,537.5 2684.67875173176,550.0 2663.0281166371487,537.5 2663.0281166371487,512.5 2684.67875173176,500.0" stroke="black" stroke-width="1" /><polygon fill="#FFFFFF" points="2706.329386826371,587.5 2706.329386826371,612.5 2684.67875173176,625.0 2663.0281166371487,612.5 2663.0281166371487,587.5 2684.67875173176,575.0" stroke="black" stroke-width="1" /><polygon fill="#FFFFFF" points="2727.980021920982,325.0 2727.980021920982,350.0 2706.329386826371,362.5 2684.67875173176,350.0 2684.67875173176,325.0 2706.329386826371,312.5" stroke="black" stroke-width="1" /><polygon fill="#FFFFFF" points="2727.980021920982,400.0 2727.980021920982,425.0 2706.329386826371,437.5 2684.67875173176,425.0 2684.67875173176,400.0 2706.329386826371,387.5" stroke="black" stroke-width="1" /><polygon fill="#FFFFFF" points="2727.980021920982,475.0 2727.980021920982,500.0 2706.329386826371,512.5 2684.67875173176,500.0 2684.67875173176,475.0 2706.329386826371,462.5" stroke="black" stroke-width="1" /><polygon fill="#FFFFFF" points="2727.980021920982,550.0 2727.980021920982,575.0 2706.329386826371,587.5 2684.67875173176,575.0 2684.67875173176,550.0 2706.329386826371,537.5" stroke="black" stroke-width="1" /><polygon fill="#FFFFFF" points="2749.6306570155925,287.5 2749.6306570155925,312.5 2727.9800219209815,325.0 2706.3293868263704,312.5 2706.3293868263704,287.5 2727.9800219209815,275.0" stroke="black" stroke-width="1" /><polygon fill="#FFFFFF" points="2749.6306570155925,362.5 2749.6306570155925,387.5 2727.9800219209815,400.0 2706.3293868263704,387.5 2706.3293868263704,362.5 2727.9800219209815,350.0" stroke="black" stroke-width="1" /><polygon fill="#FFFFFF" points="2749.6306570155925,437.5 2749.6306570155925,462.5 2727.9800219209815,475.0 2706.3293868263704,462.5 2706.3293868263704,437.5 2727.9800219209815,425.0" stroke="black" stroke-width="1" /><polygon fill="#FFFFFF" points="2749.6306570155925,512.5 2749.6306570155925,537.5 2727.9800219209815,550.0 2706.3293868263704,537.5 2706.3293868263704,512.5 2727.9800219209815,500.0" stroke="black" stroke-width="1" /><polygon fill="#FFFFFF" points="2749.6306570155925,587.5 2749.6306570155925,612.5 2727.9800219209815,625.0 2706.3293868263704,612.5 2706.3293868263704,587.5 2727.9800219209815,575.0" stroke="black" stroke-width="1" /><polygon fill="#FFFFFF" points="2771.2812921102036,325.0 2771.2812921102036,350.0 2749.6306570155925,362.5 2727.9800219209815,350.0 2727.9800219209815,325.0 2749.6306570155925,312.5" stroke="black" stroke-width="1" /><polygon fill="#FFFFFF" points="2771.2812921102036,400.0 2771.2812921102036,425.0 2749.6306570155925,437.5 2727.9800219209815,425.0 2727.9800219209815,400.0 2749.6306570155925,387.5" stroke="black" stroke-width="1" /><polygon fill="#FFFFFF" points="2771.2812921102036,475.0 2771.2812921102036,500.0 2749.6306570155925,512.5 2727.9800219209815,500.0 2727.9800219209815,475.0 2749.6306570155925,462.5" stroke="black" stroke-width="1" /><polygon fill="#FFFFFF" points="2771.2812921102036,550.0 2771.2812921102036,575.0 2749.6306570155925,587.5 2727.9800219209815,575.0 2727.9800219209815,550.0 2749.6306570155925,537.5" stroke="black" stroke-width="1" /></svg>