<?xml version="1.0" encoding="utf-8" ?>
<svg baseProfile="basic" height="133.17814692982745cm" version="1.1" viewBox="0,0,1932.2127089449273,799.0688815789647" width="322.03545149082123cm" xmlns="http://www.w3.org/2000/svg" xmlns:ev="http://www.w3.org/2001/xml-events" xmlns:xlink="http://www.w3.org/1999/xlink"><defs /><polygon fill="#00FFFF" points="1616.4132444627612,56.5 1616.4132444627612,71.5 1603.4228634059946,79.0 1590.4324823492282,71.5 1590.4324823492282,56.5 1603.4228634059946,49.0" stroke="black" stroke-width="1" /><polygon fill="#00FFFF" points="1629.4036255195278,79.0 1629.4036255195278,94.0 1616.4132444627612,101.5 1603.4228634059948,94.0 1603.4228634059948,79.0 1616.4132444627612,71.5" stroke="black" stroke-width="1" /><polygon fill="#00FFFF" points="1642.3940065762945,56.5 1642.3940065762945,71.5 1629.4036255195278,79.0 1616.4132444627612,71.5 1616.4132444627612,56.5 1629.4036255195278,49.0" stroke="black" stroke-width="1" /><polygon fill="#00FFFF" points="1642.3940065762945,101.5 1642.3940065762945,116.5 1629.4036255195278,124.0 1616.4132444627612,116.5 1616.4132444627612,101.5 1629.4036255195278,94.0" stroke="black" stroke-width="1" /><polygon fill="#00FFFF" points="1655.3843876330611,79.0 1655.3843876330611,94.0 1642.3940065762945,101.5 1629.4036255195278,94.0 1629.4036255195278,79.0 1642.3940065762945,71.5" stroke="black" stroke-width="1" /><polygon fill="#00FFFF" points="1655.3843876330611,124.0 1655.3843876330611,139.0 1642.3940065762945,146.5 1629.4036255195278,139.0 1629.4036255195278,124.0 1642.3940065762945,116.5" stroke="black" stroke-width="1" /><polygon fill="#00FFFF" points="1668.3747686898275,56.5 1668.3747686898275,71.5 1655.3843876330611,79.0 1642.3940065762945,71.5 1642.3940065762945,56.5 1655.3843876330611,49.0" stroke="black" stroke-width="1" /><polygon fill="#00FFFF" points="1668.3747686898275,101.5 1668.3747686898275,116.5 1655.3843876330611,124.0 1642.3940065762945,116.5 1642.3940065762945,101.5 1655.3843876330611,94.0" stroke="black" stroke-width="1" /><polygon fill="#00FFFF" points="1668.3747686898275,146.5 1668.3747686898275,161.5 1655.3843876330611,169.0 1642.3940065762945,161.5 1642.3940065762945,146.5 1655.3843876330611,139.0" stroke="black" stroke-width="1" /><polygon fill="#00FFFF" points="1681.3651497465942,79.0 1681.3651497465942,94.0 1668.3747686898275,101.5 1655.384387633061,94.0 1655.3843876330611,79.0 1668.3747686898275,71.5" stroke="black" stroke-width="1" /><polygon fill="#00FFFF" points="1681.3651497465942,124.0 1681.3651497465942,139.0 1668.3747686898275,146.5 1655.384387633061,139.0 1655.3843876330611,124.0 1668.3747686898275,116.5" stroke="black" stroke-width="1" /><polygon fill="#00FFFF" points="1681.3651497465942,169.0 1681.3651497465942,184.0 1668.3747686898275,191.5 1655.384387633061,184.0 1655.3843876330611,169.0 1668.3747686898275,161.5" stroke="black" stroke-width="1" /><polygon fill="#00FFFF" points="1694.3555308033608,56.5 1694.3555308033608,71.5 1681.3651497465942,79.0 1668.3747686898275,71.5 1668.3747686898278,56.5 1681.3651497465942,49.0" stroke="black" stroke-width="1" /><polygon fill="#00FFFF" points="1694.3555308033608,101.5 1694.3555308033608,116.5 1681.3651497465942,124.0 1668.3747686898275,116.5 1668.3747686898278,101.5 1681.3651497465942,94.0" stroke="black" stroke-width="1" /><polygon fill="#00FFFF" points="1694.3555308033608,146.5 1694.3555308033608,161.5 1681.3651497465942,169.0 1668.3747686898275,161.5 1668.3747686898278,146.5 1681.3651497465942,139.0" stroke="black" stroke-width="1" /><polygon fill="#00FFFF" points="1707.3459118601272,79.0 1707.3459118601272,94.0 1694.3555308033606,101.5 1681.3651497465942,94.0 1681.3651497465942,79.0 1694.3555308033606,71.5" stroke="black" stroke-width="1" /><polygon fill="#00FFFF" points="1707.3459118601272,124.0 1707.3459118601272,139.0 1694.3555308033606,146.5 1681.3651497465942,139.0 1681.3651497465942,124.0 1694.3555308033606,116.5" stroke="black" stroke-width="1" /><polygon fill="#00FFFF" points="1707.3459118601272,169.0 1707.3459118601272,184.0 1694.3555308033606,191.5 1681.3651497465942,184.0 1681.3651497465942,169.0 1694.3555308033606,161.5" stroke="black" stroke-width="1" /><polygon fill="#00FFFF" points="1720.3362929168939,56.5 1720.3362929168939,71.5 1707.3459118601272,79.0 1694.3555308033608,71.5 1694.3555308033608,56.5 1707.3459118601272,49.0" stroke="black" stroke-width="1" /><polygon fill="#00FFFF" points="1720.3362929168939,101.5 1720.3362929168939,116.5 1707.3459118601272,124.0 1694.3555308033608,116.5 1694.3555308033608,101.5 1707.3459118601272,94.0" stroke="black" stroke-width="1" /><polygon fill="#00FFFF" points="1720.3362929168939,146.5 1720.3362929168939,161.5 1707.3459118601272,169.0 1694.3555308033608,161.5 1694.3555308033608,146.5 1707.3459118601272,139.0" stroke="black" stroke-width="1" /><polygon fill="#00FFFF" points="1733.3266739736605,79.0 1733.3266739736605,94.0 1720.3362929168939,101.5 1707.3459118601272,94.0 1707.3459118601272,79.0 1720.3362929168939,71.5" stroke="black" stroke-width="1" /><polygon fill="#00FFFF" points="1733.3266739736605,124.0 1733.3266739736605,139.0 1720.3362929168939,146.5 1707.3459118601272,139.0 1707.3459118601272,124.0 1720.3362929168939,116.5" stroke="black" stroke-width="1" /><polygon fill="#00FFFF" points="1733.3266739736605,169.0 1733.3266739736605,184.0 1720.3362929168939,191.5 1707.3459118601272,184.0 1707.3459118601272,169.0 1720.3362929168939,161.5" stroke="black" stroke-width="1" /><polygon fill="#00FFFF" points="1746.3170550304271,56.5 1746.3170550304271,71.5 1733.3266739736605,79.0 1720.3362929168939,71.5 1720.3362929168939,56.5 1733.3266739736605,49.0" stroke="black" stroke-width="1" /><polygon fill="#00FFFF" points="1746.3170550304271,101.5 1746.3170550304271,116.5 1733.3266739736605,124.0 1720.3362929168939,116.5 1720.3362929168939,101.5 1733.3266739736605,94.0" stroke="black" stroke-width="1" /><polygon fill="#00FFFF" points="1746.3170550304271,146.5 1746.3170550304271,161.5 1733.3266739736605,169.0 1720.3362929168939,161.5 1720.3362929168939,146.5 1733.3266739736605,139.0" stroke="black" stroke-width="1" /></svg>