<?xml version="1.0" encoding="utf-8" ?>
<svg baseProfile="basic" height="133.17814692982745cm" version="1.1" viewBox="0,0,3220.3545149082124,1331.7814692982745" width="322.03545149082123cm" xmlns="http://www.w3.org/2000/svg" xmlns:ev="http://www.w3.org/2001/xml-events" xmlns:xlink="http://www.w3.org/1999/xlink"><defs /><polygon fill="#FFFFFF" points="1320.688740771269,737.5 1320.688740771269,762.5 1299.038105676658,775.0 1277.387470582047,762.5 1277.387470582047,737.5 1299.038105676658,725.0" stroke="black" stroke-width="1" /><polygon fill="#FFFFFF" points="1342.33937586588,700.0 1342.33937586588,725.0 1320.6887407712688,737.5 1299.0381056766578,725.0 1299.0381056766578,700.0 1320.6887407712688,687.5" stroke="black" stroke-width="1" /><polygon fill="#FFFFFF" points="1342.33937586588,775.0 1342.33937586588,800.0 1320.6887407712688,812.5 1299.0381056766578,800.0 1299.0381056766578,775.0 1320.6887407712688,762.5" stroke="black" stroke-width="1" /><polygon fill="#FFFFFF" points="1363.990010960491,737.5 1363.990010960491,762.5 1342.33937586588,775.0 1320.6887407712688,762.5 1320.6887407712688,737.5 1342.33937586588,725.0" stroke="black" stroke-width="1" /><polygon fill="#FFFFFF" points="1363.990010960491,812.5 1363.990010960491,837.5 1342.33937586588,850.0 1320.6887407712688,837.5 1320.6887407712688,812.5 1342.33937586588,800.0" stroke="black" stroke-width="1" /><polygon fill="#FFFFFF" points="1385.6406460551018,700.0 1385.6406460551018,725.0 1363.9900109604907,737.5 1342.3393758658797,725.0 1342.3393758658797,700.0 1363.9900109604907,687.5" stroke="black" stroke-width="1" /><polygon fill="#FFFFFF" points="1385.6406460551018,775.0 1385.6406460551018,800.0 1363.9900109604907,812.5 1342.3393758658797,800.0 1342.3393758658797,775.0 1363.9900109604907,762.5" stroke="black" stroke-width="1" /><polygon fill="#FFFFFF" points="1385.6406460551018,850.0 1385.6406460551018,875.0 1363.9900109604907,887.5 1342.3393758658797,875.0 1342.3393758658797,850.0 1363.9900109604907,837.5" stroke="black" stroke-width="1" /><polygon fill="#FFFFFF" points="1407.2912811497129,737.5 1407.2912811497129,762.5 1385.6406460551018,775.0 1363.9900109604907,762.5 1363.9900109604907,737.5 1385.6406460551018,725.0" stroke="black" stroke-width="1" /><polygon fill="#FFFFFF" points="1407.2912811497129,812.5 1407.2912811497129,837.5 1385.6406460551018,850.0 1363.9900109604907,837.5 1363.9900109604907,812.5 1385.6406460551018,800.0" stroke="black" stroke-width="1" /><polygon fill="#FFFFFF" points="1407.2912811497129,887.5 1407.2912811497129,912.5 1385.6406460551018,925.0 1363.9900109604907,912.5 1363.9900109604907,887.5 1385.6406460551018,875.0" stroke="black" stroke-width="1" /><polygon fill="#FFFFFF" points="1428.941916244324,700.0 1428.941916244324,725.0 1407.2912811497129,737.5 1385.6406460551018,725.0 1385.6406460551018,700.0 1407.2912811497129,687.5" stroke="black" stroke-width="1" /><polygon fill="#FFFFFF" points="1428.941916244324,775.0 1428.941916244324,800.0 1407.2912811497129,812.5 1385.6406460551018,800.0 1385.6406460551018,775.0 1407.2912811497129,762.5" stroke="black" stroke-width="1" /><polygon fill="#FFFFFF" points="1428.941916244324,850.0 1428.941916244324,875.0 1407.2912811497129,887.5 1385.6406460551018,875.0 1385.6406460551018,850.0 1407.2912811497129,837.5" stroke="black" stroke-width="1" /><polygon fill="#FFFFFF" points="1428.941916244324,925.0 1428.941916244324,950.0 1407.2912811497129,962.5 1385.6406460551018,950.0 1385.6406460551018,925.0 1407.2912811497129,912.5" stroke="black" stroke-width="1" /><polygon fill="#FFFFFF" points="1450.5925513389348,737.5 1450.5925513389348,762.5 1428.9419162443237,775.0 1407.2912811497126,762.5 1407.2912811497126,737.5 1428.9419162443237,725.0" stroke="black" stroke-width="1" /><polygon fill="#FFFFFF" points="1450.5925513389348,812.5 1450.5925513389348,837.5 1428.9419162443237,850.0 1407.2912811497126,837.5 1407.2912811497126,812.5 1428.9419162443237,800.0" stroke="black" stroke-width="1" /><polygon fill="#FFFFFF" points="1450.5925513389348,887.5 1450.5925513389348,912.5 1428.9419162443237,925.0 1407.2912811497126,912.5 1407.2912811497126,887.5 1428.9419162443237,875.0" stroke="black" stroke-width="1" /><polygon fill="#FFFFFF" points="1472.2431864335458,700.0 1472.2431864335458,725.0 1450.5925513389348,737.5 1428.9419162443237,725.0 1428.9419162443237,700.0 1450.5925513389348,687.5" stroke="black" stroke-width="1" /><polygon fill="#FFFFFF" points="1472.2431864335458,775.0 1472.2431864335458,800.0 1450.5925513389348,812.5 1428.9419162443237,800.0 1428.9419162443237,775.0 1450.5925513389348,762.5" stroke="black" stroke-width="1" /><polygon fill="#FFFFFF" points="1472.2431864335458,850.0 1472.2431864335458,875.0 1450.5925513389348,887.5 1428.9419162443237,875.0 1428.9419162443237,850.0 1450.5925513389348,837.5" stroke="black" stroke-width="1" /><polygon fill="#FFFFFF" points="1472.2431864335458,925.0 1472.2431864335458,950.0 1450.5925513389348,962.5 1428.9419162443237,950.0 1428.9419162443237,925.0 1450.5925513389348,912.5" stroke="black" stroke-width="1" /><polygon fill="#FFFFFF" points="1493.8938215281566,737.5 1493.8938215281566,762.5 1472.2431864335456,775.0 1450.5925513389345,762.5 1450.5925513389345,737.5 1472.2431864335456,725.0" stroke="black" stroke-width="1" /><polygon fill="#FFFFFF" points="1493.8938215281566,812.5 1493.8938215281566,837.5 1472.2431864335456,850.0 1450.5925513389345,837.5 1450.5925513389345,812.5 1472.2431864335456,800.0" stroke="black" stroke-width="1" /><polygon fill="#FFFFFF" points="1493.8938215281566,887.5 1493.8938215281566,912.5 1472.2431864335456,925.0 1450.5925513389345,912.5 1450.5925513389345,887.5 1472.2431864335456,875.0" stroke="black" stroke-width="1" /><polygon fill="#FFFFFF" points="1515.5444566227677,700.0 1515.5444566227677,725.0 1493.8938215281566,737.5 1472.2431864335456,725.0 1472.2431864335456,700.0 1493.8938215281566,687.5" stroke="black" stroke-width="1" /><polygon fill="#FFFFFF" points="1515.5444566227677,775.0 1515.5444566227677,800.0 1493.8938215281566,812.5 1472.2431864335456,800.0 1472.2431864335456,775.0 1493.8938215281566,762.5" stroke="black" stroke-width="1" /><polygon fill="#FFFFFF" points="1515.5444566227677,850.0 1515.5444566227677,875.0 1493.8938215281566,887.5 1472.2431864335456,875.0 1472.2431864335456,850.0 1493.8938215281566,837.5" stroke="black" stroke-width="1" /><polygon fill="#FFFFFF" points="1515.5444566227677,925.0 1515.5444566227677,950.0 1493.8938215281566,962.5 1472.2431864335456,950.0 1472.2431864335456,925.0 1493.8938215281566,912.5" stroke="black" stroke-width="1" /><polygon fill="#FFFFFF" points="1537.1950917173785,737.5 1537.1950917173785,762.5 1515.5444566227675,775.0 1493.8938215281564,762.5 1493.8938215281564,737.5 1515.5444566227675,725.0" stroke="black" stroke-width="1" /><polygon fill="#FFFFFF" points="1537.1950917173785,812.5 1537.1950917173785,837.5 1515.5444566227675,850.0 1493.8938215281564,837.5 1493.8938215281564,812.5 1515.5444566227675,800.0" stroke="black" stroke-width="1" /><polygon fill="#FFFFFF" points="1537.1950917173785,887.5 1537.1950917173785,912.5 1515.5444566227675,925.0 1493.8938215281564,912.5 1493.8938215281564,887.5 1515.5444566227675,875.0" stroke="black" stroke-width="1" /></svg>