<?xml version="1.0" encoding="utf-8" ?>
<svg baseProfile="basic" height="133.17814692982745cm" version="1.1" viewBox="0,0,1932.2127089449273,799.0688815789647" width="322.03545149082123cm" xmlns="http://www.w3.org/2000/svg" xmlns:ev="http://www.w3.org/2001/xml-events" xmlns:xlink="http://www.w3.org/1999/xlink"><defs /><polygon fill="#FFFFFF" points="792.4132444627612,442.5 792.4132444627612,457.5 779.4228634059947,465.0 766.4324823492282,457.5 766.4324823492282,442.5 779.4228634059947,435.0" stroke="black" stroke-width="1" /><polygon fill="#FFFFFF" points="805.4036255195278,465.0 805.4036255195278,480.0 792.4132444627613,487.5 779.4228634059948,480.0 779.4228634059948,465.0 792.4132444627613,457.5" stroke="black" stroke-width="1" /><polygon fill="#FFFFFF" points="818.3940065762945,442.5 818.3940065762945,457.5 805.4036255195278,465.0 792.4132444627612,457.5 792.4132444627613,442.5 805.4036255195278,435.0" stroke="black" stroke-width="1" /><polygon fill="#FFFFFF" points="818.3940065762945,487.5 818.3940065762945,502.5 805.4036255195278,510.0 792.4132444627612,502.5 792.4132444627613,487.5 805.4036255195278,480.0" stroke="black" stroke-width="1" /><polygon fill="#FFFFFF" points="831.3843876330611,465.0 831.3843876330611,480.0 818.3940065762945,487.5 805.4036255195278,480.0 805.403625519528,465.0 818.3940065762945,457.5" stroke="black" stroke-width="1" /><polygon fill="#FFFFFF" points="831.3843876330611,510.0 831.3843876330611,525.0 818.3940065762945,532.5 805.4036255195278,525.0 805.403625519528,510.0 818.3940065762945,502.5" stroke="black" stroke-width="1" /><polygon fill="#FFFFFF" points="844.3747686898275,442.5 844.3747686898275,457.5 831.384387633061,465.0 818.3940065762945,457.5 818.3940065762945,442.5 831.384387633061,435.0" stroke="black" stroke-width="1" /><polygon fill="#FFFFFF" points="844.3747686898275,487.5 844.3747686898275,502.5 831.384387633061,510.0 818.3940065762945,502.5 818.3940065762945,487.5 831.384387633061,480.0" stroke="black" stroke-width="1" /><polygon fill="#FFFFFF" points="844.3747686898275,532.5 844.3747686898275,547.5 831.384387633061,555.0 818.3940065762945,547.5 818.3940065762945,532.5 831.384387633061,525.0" stroke="black" stroke-width="1" /><polygon fill="#FFFFFF" points="857.3651497465942,465.0 857.3651497465942,480.0 844.3747686898275,487.5 831.3843876330609,480.0 831.384387633061,465.0 844.3747686898275,457.5" stroke="black" stroke-width="1" /><polygon fill="#FFFFFF" points="857.3651497465942,510.0 857.3651497465942,525.0 844.3747686898275,532.5 831.3843876330609,525.0 831.384387633061,510.0 844.3747686898275,502.5" stroke="black" stroke-width="1" /><polygon fill="#FFFFFF" points="857.3651497465942,555.0 857.3651497465942,570.0 844.3747686898275,577.5 831.3843876330609,570.0 831.384387633061,555.0 844.3747686898275,547.5" stroke="black" stroke-width="1" /><polygon fill="#FFFFFF" points="870.3555308033608,442.5 870.3555308033608,457.5 857.3651497465942,465.0 844.3747686898275,457.5 844.3747686898276,442.5 857.3651497465942,435.0" stroke="black" stroke-width="1" /><polygon fill="#FFFFFF" points="870.3555308033608,487.5 870.3555308033608,502.5 857.3651497465942,510.0 844.3747686898275,502.5 844.3747686898276,487.5 857.3651497465942,480.0" stroke="black" stroke-width="1" /><polygon fill="#FFFFFF" points="870.3555308033608,532.5 870.3555308033608,547.5 857.3651497465942,555.0 844.3747686898275,547.5 844.3747686898276,532.5 857.3651497465942,525.0" stroke="black" stroke-width="1" /><polygon fill="#FFFFFF" points="883.3459118601272,465.0 883.3459118601272,480.0 870.3555308033607,487.5 857.3651497465942,480.0 857.3651497465942,465.0 870.3555308033607,457.5" stroke="black" stroke-width="1" /><polygon fill="#FFFFFF" points="883.3459118601272,510.0 883.3459118601272,525.0 870.3555308033607,532.5 857.3651497465942,525.0 857.3651497465942,510.0 870.3555308033607,502.5" stroke="black" stroke-width="1" /><polygon fill="#FFFFFF" points="883.3459118601272,555.0 883.3459118601272,570.0 870.3555308033607,577.5 857.3651497465942,570.0 857.3651497465942,555.0 870.3555308033607,547.5" stroke="black" stroke-width="1" /><polygon fill="#FFFFFF" points="896.3362929168939,442.5 896.3362929168939,457.5 883.3459118601273,465.0 870.3555308033608,457.5 870.3555308033608,442.5 883.3459118601273,435.0" stroke="black" stroke-width="1" /><polygon fill="#FFFFFF" points="896.3362929168939,487.5 896.3362929168939,502.5 883.3459118601273,510.0 870.3555308033608,502.5 870.3555308033608,487.5 883.3459118601273,480.0" stroke="black" stroke-width="1" /><polygon fill="#FFFFFF" points="896.3362929168939,532.5 896.3362929168939,547.5 883.3459118601273,555.0 870.3555308033608,547.5 870.3555308033608,532.5 883.3459118601273,525.0" stroke="black" stroke-width="1" /><polygon fill="#FFFFFF" points="909.3266739736605,465.0 909.3266739736605,480.0 896.3362929168939,487.5 883.3459118601272,480.0 883.3459118601273,465.0 896.3362929168939,457.5" stroke="black" stroke-width="1" /><polygon fill="#FFFFFF" points="909.3266739736605,510.0 909.3266739736605,525.0 896.3362929168939,532.5 883.3459118601272,525.0 883.3459118601273,510.0 896.3362929168939,502.5" stroke="black" stroke-width="1" /><polygon fill="#FFFFFF" points="909.3266739736605,555.0 909.3266739736605,570.0 896.3362929168939,577.5 883.3459118601272,570.0 883.3459118601273,555.0 896.3362929168939,547.5" stroke="black" stroke-width="1" /><polygon fill="#FFFFFF" points="922.3170550304271,442.5 922.3170550304271,457.5 909.3266739736605,465.0 896.3362929168939,457.5 896.336292916894,442.5 909.3266739736605,435.0" stroke="black" stroke-width="1" /><polygon fill="#FFFFFF" points="922.3170550304271,487.5 922.3170550304271,502.5 909.3266739736605,510.0 896.3362929168939,502.5 896.336292916894,487.5 909.3266739736605,480.0" stroke="black" stroke-width="1" /><polygon fill="#FFFFFF" points="922.3170550304271,532.5 922.3170550304271,547.5 909.3266739736605,555.0 896.3362929168939,547.5 896.336292916894,532.5 909.3266739736605,525.0" stroke="black" stroke-width="1" /></svg>