<?xml version="1.0" encoding="utf-8" ?>
<svg baseProfile="basic" height="133.17814692982745cm" version="1.1" viewBox="0,0,3220.3545149082124,1331.7814692982745" width="322.03545149082123cm" xmlns="http://www.w3.org/2000/svg" xmlns:ev="http://www.w3.org/2001/xml-events" xmlns:xlink="http://www.w3.org/1999/xlink"><defs /><polygon fill="#FFFFFF" points="1623.7976320958226,737.5 1623.7976320958226,762.5 1602.1469970012115,775.0 1580.4963619066004,762.5 1580.4963619066004,737.5 1602.1469970012115,725.0" stroke="black" stroke-width="1" /><polygon fill="#FFFFFF" points="1623.7976320958226,812.5 1623.7976320958226,837.5 1602.1469970012115,850.0 1580.4963619066004,837.5 1580.4963619066004,812.5 1602.1469970012115,800.0" stroke="black" stroke-width="1" /><polygon fill="#FFFFFF" points="1623.7976320958226,887.5 1623.7976320958226,912.5 1602.1469970012115,925.0 1580.4963619066004,912.5 1580.4963619066004,887.5 1602.1469970012115,875.0" stroke="black" stroke-width="1" /><polygon fill="#FFFFFF" points="1645.4482671904334,700.0 1645.4482671904334,725.0 1623.7976320958223,737.5 1602.1469970012113,725.0 1602.1469970012113,700.0 1623.7976320958223,687.5" stroke="black" stroke-width="1" /><polygon fill="#FFFFFF" points="1645.4482671904334,775.0 1645.4482671904334,800.0 1623.7976320958223,812.5 1602.1469970012113,800.0 1602.1469970012113,775.0 1623.7976320958223,762.5" stroke="black" stroke-width="1" /><polygon fill="#FFFFFF" points="1645.4482671904334,850.0 1645.4482671904334,875.0 1623.7976320958223,887.5 1602.1469970012113,875.0 1602.1469970012113,850.0 1623.7976320958223,837.5" stroke="black" stroke-width="1" /><polygon fill="#FFFFFF" points="1645.4482671904334,925.0 1645.4482671904334,950.0 1623.7976320958223,962.5 1602.1469970012113,950.0 1602.1469970012113,925.0 1623.7976320958223,912.5" stroke="black" stroke-width="1" /><polygon fill="#FFFFFF" points="1667.0989022850445,737.5 1667.0989022850445,762.5 1645.4482671904334,775.0 1623.7976320958223,762.5 1623.7976320958223,737.5 1645.4482671904334,725.0" stroke="black" stroke-width="1" /><polygon fill="#FFFFFF" points="1667.0989022850445,812.5 1667.0989022850445,837.5 1645.4482671904334,850.0 1623.7976320958223,837.5 1623.7976320958223,812.5 1645.4482671904334,800.0" stroke="black" stroke-width="1" /><polygon fill="#FFFFFF" points="1667.0989022850445,887.5 1667.0989022850445,912.5 1645.4482671904334,925.0 1623.7976320958223,912.5 1623.7976320958223,887.5 1645.4482671904334,875.0" stroke="black" stroke-width="1" /><polygon fill="#FFFFFF" points="1688.7495373796555,700.0 1688.7495373796555,725.0 1667.0989022850445,737.5 1645.4482671904334,725.0 1645.4482671904334,700.0 1667.0989022850445,687.5" stroke="black" stroke-width="1" /><polygon fill="#FFFFFF" points="1688.7495373796555,775.0 1688.7495373796555,800.0 1667.0989022850445,812.5 1645.4482671904334,800.0 1645.4482671904334,775.0 1667.0989022850445,762.5" stroke="black" stroke-width="1" /><polygon fill="#FFFFFF" points="1688.7495373796555,850.0 1688.7495373796555,875.0 1667.0989022850445,887.5 1645.4482671904334,875.0 1645.4482671904334,850.0 1667.0989022850445,837.5" stroke="black" stroke-width="1" /><polygon fill="#FFFFFF" points="1688.7495373796555,925.0 1688.7495373796555,950.0 1667.0989022850445,962.5 1645.4482671904334,950.0 1645.4482671904334,925.0 1667.0989022850445,912.5" stroke="black" stroke-width="1" /><polygon fill="#FFFFFF" points="1710.4001724742664,737.5 1710.4001724742664,762.5 1688.7495373796553,775.0 1667.0989022850442,762.5 1667.0989022850442,737.5 1688.7495373796553,725.0" stroke="black" stroke-width="1" /><polygon fill="#FFFFFF" points="1710.4001724742664,812.5 1710.4001724742664,837.5 1688.7495373796553,850.0 1667.0989022850442,837.5 1667.0989022850442,812.5 1688.7495373796553,800.0" stroke="black" stroke-width="1" /><polygon fill="#FFFFFF" points="1710.4001724742664,887.5 1710.4001724742664,912.5 1688.7495373796553,925.0 1667.0989022850442,912.5 1667.0989022850442,887.5 1688.7495373796553,875.0" stroke="black" stroke-width="1" /><polygon fill="#FFFFFF" points="1732.0508075688774,700.0 1732.0508075688774,725.0 1710.4001724742664,737.5 1688.7495373796553,725.0 1688.7495373796553,700.0 1710.4001724742664,687.5" stroke="black" stroke-width="1" /><polygon fill="#FFFFFF" points="1732.0508075688774,775.0 1732.0508075688774,800.0 1710.4001724742664,812.5 1688.7495373796553,800.0 1688.7495373796553,775.0 1710.4001724742664,762.5" stroke="black" stroke-width="1" /><polygon fill="#FFFFFF" points="1732.0508075688774,850.0 1732.0508075688774,875.0 1710.4001724742664,887.5 1688.7495373796553,875.0 1688.7495373796553,850.0 1710.4001724742664,837.5" stroke="black" stroke-width="1" /><polygon fill="#FFFFFF" points="1732.0508075688774,925.0 1732.0508075688774,950.0 1710.4001724742664,962.5 1688.7495373796553,950.0 1688.7495373796553,925.0 1710.4001724742664,912.5" stroke="black" stroke-width="1" /><polygon fill="#FFFFFF" points="1753.7014426634883,737.5 1753.7014426634883,762.5 1732.0508075688772,775.0 1710.4001724742661,762.5 1710.4001724742661,737.5 1732.0508075688772,725.0" stroke="black" stroke-width="1" /><polygon fill="#FFFFFF" points="1753.7014426634883,812.5 1753.7014426634883,837.5 1732.0508075688772,850.0 1710.4001724742661,837.5 1710.4001724742661,812.5 1732.0508075688772,800.0" stroke="black" stroke-width="1" /><polygon fill="#FFFFFF" points="1753.7014426634883,887.5 1753.7014426634883,912.5 1732.0508075688772,925.0 1710.4001724742661,912.5 1710.4001724742661,887.5 1732.0508075688772,875.0" stroke="black" stroke-width="1" /><polygon fill="#FFFFFF" points="1775.3520777580993,700.0 1775.3520777580993,725.0 1753.7014426634883,737.5 1732.0508075688772,725.0 1732.0508075688772,700.0 1753.7014426634883,687.5" stroke="black" stroke-width="1" /><polygon fill="#FFFFFF" points="1775.3520777580993,775.0 1775.3520777580993,800.0 1753.7014426634883,812.5 1732.0508075688772,800.0 1732.0508075688772,775.0 1753.7014426634883,762.5" stroke="black" stroke-width="1" /><polygon fill="#FFFFFF" points="1775.3520777580993,850.0 1775.3520777580993,875.0 1753.7014426634883,887.5 1732.0508075688772,875.0 1732.0508075688772,850.0 1753.7014426634883,837.5" stroke="black" stroke-width="1" /><polygon fill="#FFFFFF" points="1797.0027128527101,737.5 1797.0027128527101,762.5 1775.352077758099,775.0 1753.701442663488,762.5 1753.701442663488,737.5 1775.352077758099,725.0" stroke="black" stroke-width="1" /><polygon fill="#FFFFFF" points="1797.0027128527101,812.5 1797.0027128527101,837.5 1775.352077758099,850.0 1753.701442663488,837.5 1753.701442663488,812.5 1775.352077758099,800.0" stroke="black" stroke-width="1" /><polygon fill="#FFFFFF" points="1818.6533479473212,700.0 1818.6533479473212,725.0 1797.0027128527101,737.5 1775.352077758099,725.0 1775.352077758099,700.0 1797.0027128527101,687.5" stroke="black" stroke-width="1" /><polygon fill="#FFFFFF" points="1818.6533479473212,775.0 1818.6533479473212,800.0 1797.0027128527101,812.5 1775.352077758099,800.0 1775.352077758099,775.0 1797.0027128527101,762.5" stroke="black" stroke-width="1" /><polygon fill="#FFFFFF" points="1840.3039830419323,737.5 1840.3039830419323,762.5 1818.6533479473212,775.0 1797.0027128527101,762.5 1797.0027128527101,737.5 1818.6533479473212,725.0" stroke="black" stroke-width="1" /></svg>