<?xml version="1.0" encoding="utf-8" ?>
<svg baseProfile="basic" height="133.17814692982745cm" version="1.1" viewBox="0,0,1932.2127089449273,799.0688815789647" width="322.03545149082123cm" xmlns="http://www.w3.org/2000/svg" xmlns:ev="http://www.w3.org/2001/xml-events" xmlns:xlink="http://www.w3.org/1999/xlink"><defs /><polygon fill="#A52A2A" points="1235.2785792574934,60.5 1235.2785792574934,75.5 1222.2881982007268,83.0 1209.2978171439602,75.5 1209.2978171439604,60.5 1222.2881982007268,53.0" stroke="black" stroke-width="1" /><polygon fill="#A52A2A" points="1235.2785792574934,105.5 1235.2785792574934,120.5 1222.2881982007268,128.0 1209.2978171439602,120.5 1209.2978171439604,105.5 1222.2881982007268,98.0" stroke="black" stroke-width="1" /><polygon fill="#A52A2A" points="1235.2785792574934,150.5 1235.2785792574934,165.5 1222.2881982007268,173.0 1209.2978171439602,165.5 1209.2978171439604,150.5 1222.2881982007268,143.0" stroke="black" stroke-width="1" /><polygon fill="#A52A2A" points="1248.2689603142599,83.0 1248.2689603142599,98.0 1235.2785792574932,105.5 1222.2881982007268,98.0 1222.2881982007268,83.0 1235.2785792574932,75.5" stroke="black" stroke-width="1" /><polygon fill="#A52A2A" points="1248.2689603142599,128.0 1248.2689603142599,143.0 1235.2785792574932,150.5 1222.2881982007268,143.0 1222.2881982007268,128.0 1235.2785792574932,120.5" stroke="black" stroke-width="1" /><polygon fill="#A52A2A" points="1248.2689603142599,173.0 1248.2689603142599,188.0 1235.2785792574932,195.5 1222.2881982007268,188.0 1222.2881982007268,173.0 1235.2785792574932,165.5" stroke="black" stroke-width="1" /><polygon fill="#A52A2A" points="1261.2593413710265,60.5 1261.2593413710265,75.5 1248.2689603142599,83.0 1235.2785792574934,75.5 1235.2785792574934,60.5 1248.2689603142599,53.0" stroke="black" stroke-width="1" /><polygon fill="#A52A2A" points="1261.2593413710265,105.5 1261.2593413710265,120.5 1248.2689603142599,128.0 1235.2785792574934,120.5 1235.2785792574934,105.5 1248.2689603142599,98.0" stroke="black" stroke-width="1" /><polygon fill="#A52A2A" points="1261.2593413710265,150.5 1261.2593413710265,165.5 1248.2689603142599,173.0 1235.2785792574934,165.5 1235.2785792574934,150.5 1248.2689603142599,143.0" stroke="black" stroke-width="1" /><polygon fill="#A52A2A" points="1274.2497224277931,83.0 1274.2497224277931,98.0 1261.2593413710265,105.5 1248.2689603142599,98.0 1248.2689603142599,83.0 1261.2593413710265,75.5" stroke="black" stroke-width="1" /><polygon fill="#A52A2A" points="1274.2497224277931,128.0 1274.2497224277931,143.0 1261.2593413710265,150.5 1248.2689603142599,143.0 1248.2689603142599,128.0 1261.2593413710265,120.5" stroke="black" stroke-width="1" /><polygon fill="#A52A2A" points="1274.2497224277931,173.0 1274.2497224277931,188.0 1261.2593413710265,195.5 1248.2689603142599,188.0 1248.2689603142599,173.0 1261.2593413710265,165.5" stroke="black" stroke-width="1" /><polygon fill="#A52A2A" points="1287.2401034845598,60.5 1287.2401034845598,75.5 1274.2497224277931,83.0 1261.2593413710265,75.5 1261.2593413710265,60.5 1274.2497224277931,53.0" stroke="black" stroke-width="1" /><polygon fill="#A52A2A" points="1287.2401034845598,105.5 1287.2401034845598,120.5 1274.2497224277931,128.0 1261.2593413710265,120.5 1261.2593413710265,105.5 1274.2497224277931,98.0" stroke="black" stroke-width="1" /><polygon fill="#A52A2A" points="1287.2401034845598,150.5 1287.2401034845598,165.5 1274.2497224277931,173.0 1261.2593413710265,165.5 1261.2593413710265,150.5 1274.2497224277931,143.0" stroke="black" stroke-width="1" /><polygon fill="#A52A2A" points="1300.2304845413264,83.0 1300.2304845413264,98.0 1287.2401034845598,105.5 1274.2497224277931,98.0 1274.2497224277931,83.0 1287.2401034845598,75.5" stroke="black" stroke-width="1" /><polygon fill="#A52A2A" points="1300.2304845413264,128.0 1300.2304845413264,143.0 1287.2401034845598,150.5 1274.2497224277931,143.0 1274.2497224277931,128.0 1287.2401034845598,120.5" stroke="black" stroke-width="1" /><polygon fill="#A52A2A" points="1300.2304845413264,173.0 1300.2304845413264,188.0 1287.2401034845598,195.5 1274.2497224277931,188.0 1274.2497224277931,173.0 1287.2401034845598,165.5" stroke="black" stroke-width="1" /><polygon fill="#A52A2A" points="1313.2208655980928,60.5 1313.2208655980928,75.5 1300.2304845413262,83.0 1287.2401034845595,75.5 1287.2401034845595,60.5 1300.2304845413262,53.0" stroke="black" stroke-width="1" /><polygon fill="#A52A2A" points="1313.2208655980928,105.5 1313.2208655980928,120.5 1300.2304845413262,128.0 1287.2401034845595,120.5 1287.2401034845595,105.5 1300.2304845413262,98.0" stroke="black" stroke-width="1" /><polygon fill="#A52A2A" points="1313.2208655980928,150.5 1313.2208655980928,165.5 1300.2304845413262,173.0 1287.2401034845595,165.5 1287.2401034845595,150.5 1300.2304845413262,143.0" stroke="black" stroke-width="1" /><polygon fill="#A52A2A" points="1326.2112466548595,83.0 1326.2112466548595,98.0 1313.2208655980928,105.5 1300.2304845413262,98.0 1300.2304845413262,83.0 1313.2208655980928,75.5" stroke="black" stroke-width="1" /><polygon fill="#A52A2A" points="1326.2112466548595,128.0 1326.2112466548595,143.0 1313.2208655980928,150.5 1300.2304845413262,143.0 1300.2304845413262,128.0 1313.2208655980928,120.5" stroke="black" stroke-width="1" /><polygon fill="#A52A2A" points="1339.201627711626,60.5 1339.201627711626,75.5 1326.2112466548595,83.0 1313.2208655980928,75.5 1313.2208655980928,60.5 1326.2112466548595,53.0" stroke="black" stroke-width="1" /><polygon fill="#A52A2A" points="1339.201627711626,105.5 1339.201627711626,120.5 1326.2112466548595,128.0 1313.2208655980928,120.5 1313.2208655980928,105.5 1326.2112466548595,98.0" stroke="black" stroke-width="1" /><polygon fill="#A52A2A" points="1352.1920087683927,83.0 1352.1920087683927,98.0 1339.201627711626,105.5 1326.2112466548595,98.0 1326.2112466548595,83.0 1339.201627711626,75.5" stroke="black" stroke-width="1" /><polygon fill="#A52A2A" points="1365.1823898251591,60.5 1365.1823898251591,75.5 1352.1920087683925,83.0 1339.2016277116259,75.5 1339.2016277116259,60.5 1352.1920087683925,53.0" stroke="black" stroke-width="1" /></svg>