<?xml version="1.0" encoding="utf-8" ?>
<svg baseProfile="basic" height="133.17814692982745cm" version="1.1" viewBox="0,0,1932.2127089449273,799.0688815789647" width="322.03545149082123cm" xmlns="http://www.w3.org/2000/svg" xmlns:ev="http://www.w3.org/2001/xml-events" xmlns:xlink="http://www.w3.org/1999/xlink"><defs /><polygon fill="#FFFFFF" points="974.2785792574934,442.5 974.2785792574934,457.5 961.2881982007268,465.0 948.2978171439602,457.5 948.2978171439603,442.5 961.2881982007268,435.0" stroke="black" stroke-width="1" /><polygon fill="#FFFFFF" points="974.2785792574934,487.5 974.2785792574934,502.5 961.2881982007268,510.0 948.2978171439602,502.5 948.2978171439603,487.5 961.2881982007268,480.0" stroke="black" stroke-width="1" /><polygon fill="#FFFFFF" points="974.2785792574934,532.5 974.2785792574934,547.5 961.2881982007268,555.0 948.2978171439602,547.5 948.2978171439603,532.5 961.2881982007268,525.0" stroke="black" stroke-width="1" /><polygon fill="#FFFFFF" points="987.2689603142599,465.0 987.2689603142599,480.0 974.2785792574933,487.5 961.2881982007268,480.0 961.2881982007268,465.0 974.2785792574933,457.5" stroke="black" stroke-width="1" /><polygon fill="#FFFFFF" points="987.2689603142599,510.0 987.2689603142599,525.0 974.2785792574933,532.5 961.2881982007268,525.0 961.2881982007268,510.0 974.2785792574933,502.5" stroke="black" stroke-width="1" /><polygon fill="#FFFFFF" points="987.2689603142599,555.0 987.2689603142599,570.0 974.2785792574933,577.5 961.2881982007268,570.0 961.2881982007268,555.0 974.2785792574933,547.5" stroke="black" stroke-width="1" /><polygon fill="#FFFFFF" points="1000.2593413710265,442.5 1000.2593413710265,457.5 987.26896031426,465.0 974.2785792574934,457.5 974.2785792574934,442.5 987.26896031426,435.0" stroke="black" stroke-width="1" /><polygon fill="#FFFFFF" points="1000.2593413710265,487.5 1000.2593413710265,502.5 987.26896031426,510.0 974.2785792574934,502.5 974.2785792574934,487.5 987.26896031426,480.0" stroke="black" stroke-width="1" /><polygon fill="#FFFFFF" points="1000.2593413710265,532.5 1000.2593413710265,547.5 987.26896031426,555.0 974.2785792574934,547.5 974.2785792574934,532.5 987.26896031426,525.0" stroke="black" stroke-width="1" /><polygon fill="#FFFFFF" points="1013.2497224277931,465.0 1013.2497224277931,480.0 1000.2593413710265,487.5 987.2689603142599,480.0 987.26896031426,465.0 1000.2593413710265,457.5" stroke="black" stroke-width="1" /><polygon fill="#FFFFFF" points="1013.2497224277931,510.0 1013.2497224277931,525.0 1000.2593413710265,532.5 987.2689603142599,525.0 987.26896031426,510.0 1000.2593413710265,502.5" stroke="black" stroke-width="1" /><polygon fill="#FFFFFF" points="1013.2497224277931,555.0 1013.2497224277931,570.0 1000.2593413710265,577.5 987.2689603142599,570.0 987.26896031426,555.0 1000.2593413710265,547.5" stroke="black" stroke-width="1" /><polygon fill="#FFFFFF" points="1026.2401034845598,442.5 1026.2401034845598,457.5 1013.2497224277931,465.0 1000.2593413710265,457.5 1000.2593413710266,442.5 1013.2497224277931,435.0" stroke="black" stroke-width="1" /><polygon fill="#FFFFFF" points="1026.2401034845598,487.5 1026.2401034845598,502.5 1013.2497224277931,510.0 1000.2593413710265,502.5 1000.2593413710266,487.5 1013.2497224277931,480.0" stroke="black" stroke-width="1" /><polygon fill="#FFFFFF" points="1026.2401034845598,532.5 1026.2401034845598,547.5 1013.2497224277931,555.0 1000.2593413710265,547.5 1000.2593413710266,532.5 1013.2497224277931,525.0" stroke="black" stroke-width="1" /><polygon fill="#FFFFFF" points="1039.2304845413264,465.0 1039.2304845413264,480.0 1026.2401034845598,487.5 1013.2497224277931,480.0 1013.2497224277932,465.0 1026.2401034845598,457.5" stroke="black" stroke-width="1" /><polygon fill="#FFFFFF" points="1039.2304845413264,510.0 1039.2304845413264,525.0 1026.2401034845598,532.5 1013.2497224277931,525.0 1013.2497224277932,510.0 1026.2401034845598,502.5" stroke="black" stroke-width="1" /><polygon fill="#FFFFFF" points="1039.2304845413264,555.0 1039.2304845413264,570.0 1026.2401034845598,577.5 1013.2497224277931,570.0 1013.2497224277932,555.0 1026.2401034845598,547.5" stroke="black" stroke-width="1" /><polygon fill="#FFFFFF" points="1052.2208655980928,442.5 1052.2208655980928,457.5 1039.2304845413262,465.0 1026.2401034845595,457.5 1026.2401034845595,442.5 1039.2304845413262,435.0" stroke="black" stroke-width="1" /><polygon fill="#FFFFFF" points="1052.2208655980928,487.5 1052.2208655980928,502.5 1039.2304845413262,510.0 1026.2401034845595,502.5 1026.2401034845595,487.5 1039.2304845413262,480.0" stroke="black" stroke-width="1" /><polygon fill="#FFFFFF" points="1052.2208655980928,532.5 1052.2208655980928,547.5 1039.2304845413262,555.0 1026.2401034845595,547.5 1026.2401034845595,532.5 1039.2304845413262,525.0" stroke="black" stroke-width="1" /><polygon fill="#FFFFFF" points="1065.2112466548595,465.0 1065.2112466548595,480.0 1052.2208655980928,487.5 1039.2304845413262,480.0 1039.2304845413262,465.0 1052.2208655980928,457.5" stroke="black" stroke-width="1" /><polygon fill="#FFFFFF" points="1065.2112466548595,510.0 1065.2112466548595,525.0 1052.2208655980928,532.5 1039.2304845413262,525.0 1039.2304845413262,510.0 1052.2208655980928,502.5" stroke="black" stroke-width="1" /><polygon fill="#FFFFFF" points="1078.201627711626,442.5 1078.201627711626,457.5 1065.2112466548595,465.0 1052.2208655980928,457.5 1052.2208655980928,442.5 1065.2112466548595,435.0" stroke="black" stroke-width="1" /><polygon fill="#FFFFFF" points="1078.201627711626,487.5 1078.201627711626,502.5 1065.2112466548595,510.0 1052.2208655980928,502.5 1052.2208655980928,487.5 1065.2112466548595,480.0" stroke="black" stroke-width="1" /><polygon fill="#FFFFFF" points="1091.1920087683927,465.0 1091.1920087683927,480.0 1078.201627711626,487.5 1065.2112466548595,480.0 1065.2112466548595,465.0 1078.201627711626,457.5" stroke="black" stroke-width="1" /><polygon fill="#FFFFFF" points="1104.1823898251591,442.5 1104.1823898251591,457.5 1091.1920087683925,465.0 1078.2016277116259,457.5 1078.2016277116259,442.5 1091.1920087683925,435.0" stroke="black" stroke-width="1" /></svg>