<?xml version="1.0" encoding="utf-8" ?>
<svg baseProfile="tiny" height="1600" version="1.2" width="3600" xmlns="http://www.w3.org/2000/svg" xmlns:ev="http://www.w3.org/2001/xml-events" xmlns:xlink="http://www.w3.org/1999/xlink"><defs /><polygon fill="#FFFFFF" points="848,290 848,310 831,320 814,310 814,290 831,280" stroke="black" stroke-width="1" /><polygon fill="#FFFFFF" points="866,320 866,340 848,350 831,340 831,320 848,310" stroke="black" stroke-width="1" /><polygon fill="#FFFFFF" points="883,290 883,310 866,320 848,310 848,290 866,280" stroke="black" stroke-width="1" /><polygon fill="#FFFFFF" points="883,350 883,370 866,380 848,370 848,350 866,340" stroke="black" stroke-width="1" /><polygon fill="#FFFFFF" points="900,260 900,280 883,290 866,280 866,260 883,250" stroke="black" stroke-width="1" /><polygon fill="#FFFFFF" points="900,320 900,340 883,350 866,340 866,320 883,310" stroke="black" stroke-width="1" /><polygon fill="#FFFFFF" points="900,380 900,400 883,410 866,400 866,380 883,370" stroke="black" stroke-width="1" /><polygon fill="#FFFFFF" points="917,290 917,310 900,320 883,310 883,290 900,280" stroke="black" stroke-width="1" /><polygon fill="#FFFFFF" points="917,350 917,370 900,380 883,370 883,350 900,340" stroke="black" stroke-width="1" /><polygon fill="#FFFFFF" points="917,410 917,430 900,440 883,430 883,410 900,400" stroke="black" stroke-width="1" /><polygon fill="#FFFFFF" points="917,890 917,910 900,920 883,910 883,890 900,880" stroke="black" stroke-width="1" /><polygon fill="#FFFFFF" points="935,260 935,280 917,290 900,280 900,260 917,250" stroke="black" stroke-width="1" /><polygon fill="#FFFFFF" points="935,320 935,340 917,350 900,340 900,320 917,310" stroke="black" stroke-width="1" /><polygon fill="#FFFFFF" points="935,380 935,400 917,410 900,400 900,380 917,370" stroke="black" stroke-width="1" /><polygon fill="#FFFFFF" points="935,440 935,460 917,470 900,460 900,440 917,430" stroke="black" stroke-width="1" /><polygon fill="#FFFFFF" points="935,860 935,880 917,890 900,880 900,860 917,850" stroke="black" stroke-width="1" /><polygon fill="#FFFFFF" points="952,230 952,250 935,260 917,250 917,230 935,220" stroke="black" stroke-width="1" /><polygon fill="#FFFFFF" points="952,290 952,310 935,320 917,310 917,290 935,280" stroke="black" stroke-width="1" /><polygon fill="#FFFFFF" points="952,350 952,370 935,380 917,370 917,350 935,340" stroke="black" stroke-width="1" /><polygon fill="#FFFFFF" points="952,410 952,430 935,440 917,430 917,410 935,400" stroke="black" stroke-width="1" /><polygon fill="#FFFFFF" points="952,470 952,490 935,500 917,490 917,470 935,460" stroke="black" stroke-width="1" /><polygon fill="#FFFFFF" points="952,890 952,910 935,920 917,910 917,890 935,880" stroke="black" stroke-width="1" /><polygon fill="#FFFFFF" points="969,260 969,280 952,290 935,280 935,260 952,250" stroke="black" stroke-width="1" /><polygon fill="#FFFFFF" points="969,320 969,340 952,350 935,340 935,320 952,310" stroke="black" stroke-width="1" /><polygon fill="#FFFFFF" points="969,380 969,400 952,410 935,400 935,380 952,370" stroke="black" stroke-width="1" /><polygon fill="#FFFFFF" points="969,440 969,460 952,470 935,460 935,440 952,430" stroke="black" stroke-width="1" /><polygon fill="#FFFFFF" points="969,500 969,520 952,530 935,520 935,500 952,490" stroke="black" stroke-width="1" /><polygon fill="#FFFFFF" points="969,860 969,880 952,890 935,880 935,860 952,850" stroke="black" stroke-width="1" /><polygon fill="#FFFFFF" points="987,230 987,250 969,260 952,250 952,230 969,220" stroke="black" stroke-width="1" /><polygon fill="#FFFFFF" points="987,290 987,310 969,320 952,310 952,290 969,280" stroke="black" stroke-width="1" /><polygon fill="#FFFFFF" points="987,350 987,370 969,380 952,370 952,350 969,340" stroke="black" stroke-width="1" /><polygon fill="#FFFFFF" points="987,410 987,430 969,440 952,430 952,410 969,400" stroke="black" stroke-width="1" /><polygon fill="#FFFFFF" points="987,470 987,490 969,500 952,490 952,470 969,460" stroke="black" stroke-width="1" /><polygon fill="#FFFFFF" points="987,890 987,910 969,920 952,910 952,890 969,880" stroke="black" stroke-width="1" /><polygon fill="#FFFFFF" points="1004,260 1004,280 987,290 969,280 969,260 987,250" stroke="black" stroke-width="1" /><polygon fill="#FFFFFF" points="1004,320 1004,340 987,350 969,340 969,320 987,310" stroke="black" stroke-width="1" /><polygon fill="#FFFFFF" points="1004,380 1004,400 987,410 969,400 969,380 987,370" stroke="black" stroke-width="1" /><polygon fill="#FFFFFF" points="1004,440 1004,460 987,470 969,460 969,440 987,430" stroke="black" stroke-width="1" /><polygon fill="#FFFFFF" points="1004,500 1004,520 987,530 969,520 969,500 987,490" stroke="black" stroke-width="1" /><polygon fill="#FFFFFF" points="1004,860 1004,880 987,890 969,880 969,860 987,850" stroke="black" stroke-width="1" /><polygon fill="#FFFFFF" points="1021,230 1021,250 1004,260 987,250 987,230 1004,220" stroke="black" stroke-width="1" /><polygon fill="#FFFFFF" points="1021,290 1021,310 1004,320 987,310 987,290 1004,280" stroke="black" stroke-width="1" /><polygon fill="#FFFFFF" points="1021,350 1021,370 1004,380 987,370 987,350 1004,340" stroke="black" stroke-width="1" /><polygon fill="#FFFFFF" points="1021,410 1021,430 1004,440 987,430 987,410 1004,400" stroke="black" stroke-width="1" /><polygon fill="#FFFFFF" points="1021,470 1021,490 1004,500 987,490 987,470 1004,460" stroke="black" stroke-width="1" /><polygon fill="#FFFFFF" points="1021,530 1021,550 1004,560 987,550 987,530 1004,520" stroke="black" stroke-width="1" /><polygon fill="#FFFFFF" points="1021,890 1021,910 1004,920 987,910 987,890 1004,880" stroke="black" stroke-width="1" /><polygon fill="#FFFFFF" points="1039,200 1039,220 1021,230 1004,220 1004,200 1021,190" stroke="black" stroke-width="1" /><polygon fill="#FFFFFF" points="1039,260 1039,280 1021,290 1004,280 1004,260 1021,250" stroke="black" stroke-width="1" /><polygon fill="#FFFFFF" points="1039,320 1039,340 1021,350 1004,340 1004,320 1021,310" stroke="black" stroke-width="1" /><polygon fill="#FFFFFF" points="1039,380 1039,400 1021,410 1004,400 1004,380 1021,370" stroke="black" stroke-width="1" /><polygon fill="#FFFFFF" points="1039,440 1039,460 1021,470 1004,460 1004,440 1021,430" stroke="black" stroke-width="1" /><polygon fill="#FFFFFF" points="1039,500 1039,520 1021,530 1004,520 1004,500 1021,490" stroke="black" stroke-width="1" /><polygon fill="#FFFFFF" points="1039,560 1039,580 1021,590 1004,580 1004,560 1021,550" stroke="black" stroke-width="1" /><polygon fill="#FFFFFF" points="1039,860 1039,880 1021,890 1004,880 1004,860 1021,850" stroke="black" stroke-width="1" /><polygon fill="#FFFFFF" points="1056,230 1056,250 1039,260 1021,250 1021,230 1039,220" stroke="black" stroke-width="1" /><polygon fill="#FFFFFF" points="1056,290 1056,310 1039,320 1021,310 1021,290 1039,280" stroke="black" stroke-width="1" /><polygon fill="#FFFFFF" points="1056,350 1056,370 1039,380 1021,370 1021,350 1039,340" stroke="black" stroke-width="1" /><polygon fill="#FFFFFF" points="1056,410 1056,430 1039,440 1021,430 1021,410 1039,400" stroke="black" stroke-width="1" /><polygon fill="#FFFFFF" points="1056,470 1056,490 1039,500 1021,490 1021,470 1039,460" stroke="black" stroke-width="1" /><polygon fill="#FFFFFF" points="1056,530 1056,550 1039,560 1021,550 1021,530 1039,520" stroke="black" stroke-width="1" /><polygon fill="#FFFFFF" points="1056,590 1056,610 1039,620 1021,610 1021,590 1039,580" stroke="black" stroke-width="1" /><polygon fill="#FFFFFF" points="1056,890 1056,910 1039,920 1021,910 1021,890 1039,880" stroke="black" stroke-width="1" /><polygon fill="#FFFFFF" points="1073,200 1073,220 1056,230 1039,220 1039,200 1056,190" stroke="black" stroke-width="1" /><polygon fill="#FFFFFF" points="1073,260 1073,280 1056,290 1039,280 1039,260 1056,250" stroke="black" stroke-width="1" /><polygon fill="#FFFFFF" points="1073,320 1073,340 1056,350 1039,340 1039,320 1056,310" stroke="black" stroke-width="1" /><polygon fill="#FFFFFF" points="1073,380 1073,400 1056,410 1039,400 1039,380 1056,370" stroke="black" stroke-width="1" /><polygon fill="#FFFFFF" points="1073,440 1073,460 1056,470 1039,460 1039,440 1056,430" stroke="black" stroke-width="1" /><polygon fill="#FFFFFF" points="1073,500 1073,520 1056,530 1039,520 1039,500 1056,490" stroke="black" stroke-width="1" /><polygon fill="#FFFFFF" points="1073,560 1073,580 1056,590 1039,580 1039,560 1056,550" stroke="black" stroke-width="1" /><polygon fill="#FFFFFF" points="1073,860 1073,880 1056,890 1039,880 1039,860 1056,850" stroke="black" stroke-width="1" /><polygon fill="#FFFFFF" points="1091,230 1091,250 1073,260 1056,250 1056,230 1073,220" stroke="black" stroke-width="1" /><polygon fill="#FFFFFF" points="1091,290 1091,310 1073,320 1056,310 1056,290 1073,280" stroke="black" stroke-width="1" /><polygon fill="#FFFFFF" points="1091,350 1091,370 1073,380 1056,370 1056,350 1073,340" stroke="black" stroke-width="1" /><polygon fill="#FFFFFF" points="1091,410 1091,430 1073,440 1056,430 1056,410 1073,400" stroke="black" stroke-width="1" /><polygon fill="#FFFFFF" points="1091,470 1091,490 1073,500 1056,490 1056,470 1073,460" stroke="black" stroke-width="1" /><polygon fill="#FFFFFF" points="1091,530 1091,550 1073,560 1056,550 1056,530 1073,520" stroke="black" stroke-width="1" /><polygon fill="#FFFFFF" points="1091,590 1091,610 1073,620 1056,610 1056,590 1073,580" stroke="black" stroke-width="1" /><polygon fill="#FFFFFF" points="1091,890 1091,910 1073,920 1056,910 1056,890 1073,880" stroke="black" stroke-width="1" /><polygon fill="#FFFFFF" points="1108,200 1108,220 1091,230 1073,220 1073,200 1091,190" stroke="black" stroke-width="1" /><polygon fill="#FFFFFF" points="1108,260 1108,280 1091,290 1073,280 1073,260 1091,250" stroke="black" stroke-width="1" /><polygon fill="#FFFFFF" points="1108,320 1108,340 1091,350 1073,340 1073,320 1091,310" stroke="black" stroke-width="1" /><polygon fill="#FFFFFF" points="1108,380 1108,400 1091,410 1073,400 1073,380 1091,370" stroke="black" stroke-width="1" /><polygon fill="#FFFFFF" points="1108,440 1108,460 1091,470 1073,460 1073,440 1091,430" stroke="black" stroke-width="1" /><polygon fill="#FFFFFF" points="1108,500 1108,520 1091,530 1073,520 1073,500 1091,490" stroke="black" stroke-width="1" /><polygon fill="#FFFFFF" points="1108,560 1108,580 1091,590 1073,580 1073,560 1091,550" stroke="black" stroke-width="1" /><polygon fill="#FFFFFF" points="1108,620 1108,640 1091,650 1073,640 1073,620 1091,610" stroke="black" stroke-width="1" /><polygon fill="#FFFFFF" points="1108,860 1108,880 1091,890 1073,880 1073,860 1091,850" stroke="black" stroke-width="1" /><polygon fill="#FFFFFF" points="1125,170 1125,190 1108,200 1091,190 1091,170 1108,160" stroke="black" stroke-width="1" /><polygon fill="#FFFFFF" points="1125,230 1125,250 1108,260 1091,250 1091,230 1108,220" stroke="black" stroke-width="1" /><polygon fill="#FFFFFF" points="1125,290 1125,310 1108,320 1091,310 1091,290 1108,280" stroke="black" stroke-width="1" /><polygon fill="#FFFFFF" points="1125,350 1125,370 1108,380 1091,370 1091,350 1108,340" stroke="black" stroke-width="1" /><polygon fill="#FFFFFF" points="1125,410 1125,430 1108,440 1091,430 1091,410 1108,400" stroke="black" stroke-width="1" /><polygon fill="#FFFFFF" points="1125,470 1125,490 1108,500 1091,490 1091,470 1108,460" stroke="black" stroke-width="1" /><polygon fill="#FFFFFF" points="1125,530 1125,550 1108,560 1091,550 1091,530 1108,520" stroke="black" stroke-width="1" /><polygon fill="#FFFFFF" points="1125,590 1125,610 1108,620 1091,610 1091,590 1108,580" stroke="black" stroke-width="1" /><polygon fill="#FFFFFF" points="1125,890 1125,910 1108,920 1091,910 1091,890 1108,880" stroke="black" stroke-width="1" /><polygon fill="#FFFFFF" points="1143,200 1143,220 1125,230 1108,220 1108,200 1125,190" stroke="black" stroke-width="1" /><polygon fill="#FFFFFF" points="1143,260 1143,280 1125,290 1108,280 1108,260 1125,250" stroke="black" stroke-width="1" /><polygon fill="#FFFFFF" points="1143,320 1143,340 1125,350 1108,340 1108,320 1125,310" stroke="black" stroke-width="1" /><polygon fill="#FFFFFF" points="1143,380 1143,400 1125,410 1108,400 1108,380 1125,370" stroke="black" stroke-width="1" /><polygon fill="#FFFFFF" points="1143,440 1143,460 1125,470 1108,460 1108,440 1125,430" stroke="black" stroke-width="1" /><polygon fill="#FFFFFF" points="1143,500 1143,520 1125,530 1108,520 1108,500 1125,490" stroke="black" stroke-width="1" /><polygon fill="#FFFFFF" points="1143,560 1143,580 1125,590 1108,580 1108,560 1125,550" stroke="black" stroke-width="1" /><polygon fill="#FFFFFF" points="1143,620 1143,640 1125,650 1108,640 1108,620 1125,610" stroke="black" stroke-width="1" /><polygon fill="#FFFFFF" points="1143,860 1143,880 1125,890 1108,880 1108,860 1125,850" stroke="black" stroke-width="1" /><polygon fill="#FFFFFF" points="1160,170 1160,190 1143,200 1125,190 1125,170 1143,160" stroke="black" stroke-width="1" /><polygon fill="#FFFFFF" points="1160,230 1160,250 1143,260 1125,250 1125,230 1143,220" stroke="black" stroke-width="1" /><polygon fill="#FFFFFF" points="1160,290 1160,310 1143,320 1125,310 1125,290 1143,280" stroke="black" stroke-width="1" /><polygon fill="#FFFFFF" points="1160,350 1160,370 1143,380 1125,370 1125,350 1143,340" stroke="black" stroke-width="1" /><polygon fill="#FFFFFF" points="1160,410 1160,430 1143,440 1125,430 1125,410 1143,400" stroke="black" stroke-width="1" /><polygon fill="#FFFFFF" points="1160,470 1160,490 1143,500 1125,490 1125,470 1143,460" stroke="black" stroke-width="1" /><polygon fill="#FFFFFF" points="1160,530 1160,550 1143,560 1125,550 1125,530 1143,520" stroke="black" stroke-width="1" /><polygon fill="#FFFFFF" points="1160,590 1160,610 1143,620 1125,610 1125,590 1143,580" stroke="black" stroke-width="1" /><polygon fill="#FFFFFF" points="1160,650 1160,670 1143,680 1125,670 1125,650 1143,640" stroke="black" stroke-width="1" /><polygon fill="#FFFFFF" points="1160,890 1160,910 1143,920 1125,910 1125,890 1143,880" stroke="black" stroke-width="1" /><polygon fill="#FFFFFF" points="1177,200 1177,220 1160,230 1143,220 1143,200 1160,190" stroke="black" stroke-width="1" /><polygon fill="#FFFFFF" points="1177,260 1177,280 1160,290 1143,280 1143,260 1160,250" stroke="black" stroke-width="1" /><polygon fill="#FFFFFF" points="1177,320 1177,340 1160,350 1143,340 1143,320 1160,310" stroke="black" stroke-width="1" /><polygon fill="#FFFFFF" points="1177,380 1177,400 1160,410 1143,400 1143,380 1160,370" stroke="black" stroke-width="1" /><polygon fill="#FFFFFF" points="1177,440 1177,460 1160,470 1143,460 1143,440 1160,430" stroke="black" stroke-width="1" /><polygon fill="#FFFFFF" points="1177,500 1177,520 1160,530 1143,520 1143,500 1160,490" stroke="black" stroke-width="1" /><polygon fill="#FFFFFF" points="1177,560 1177,580 1160,590 1143,580 1143,560 1160,550" stroke="black" stroke-width="1" /><polygon fill="#FFFFFF" points="1177,620 1177,640 1160,650 1143,640 1143,620 1160,610" stroke="black" stroke-width="1" /><polygon fill="#FFFFFF" points="1177,860 1177,880 1160,890 1143,880 1143,860 1160,850" stroke="black" stroke-width="1" /><polygon fill="#FFFFFF" points="1195,170 1195,190 1177,200 1160,190 1160,170 1177,160" stroke="black" stroke-width="1" /><polygon fill="#FFFFFF" points="1195,230 1195,250 1177,260 1160,250 1160,230 1177,220" stroke="black" stroke-width="1" /><polygon fill="#FFFFFF" points="1195,290 1195,310 1177,320 1160,310 1160,290 1177,280" stroke="black" stroke-width="1" /><polygon fill="#FFFFFF" points="1195,350 1195,370 1177,380 1160,370 1160,350 1177,340" stroke="black" stroke-width="1" /><polygon fill="#FFFFFF" points="1195,410 1195,430 1177,440 1160,430 1160,410 1177,400" stroke="black" stroke-width="1" /><polygon fill="#FFFFFF" points="1195,470 1195,490 1177,500 1160,490 1160,470 1177,460" stroke="black" stroke-width="1" /><polygon fill="#FFFFFF" points="1195,530 1195,550 1177,560 1160,550 1160,530 1177,520" stroke="black" stroke-width="1" /><polygon fill="#FFFFFF" points="1195,590 1195,610 1177,620 1160,610 1160,590 1177,580" stroke="black" stroke-width="1" /><polygon fill="#FFFFFF" points="1195,650 1195,670 1177,680 1160,670 1160,650 1177,640" stroke="black" stroke-width="1" /><polygon fill="#FFFFFF" points="1195,890 1195,910 1177,920 1160,910 1160,890 1177,880" stroke="black" stroke-width="1" /><polygon fill="#FFFFFF" points="1212,140 1212,160 1195,170 1177,160 1177,140 1195,130" stroke="black" stroke-width="1" /><polygon fill="#FFFFFF" points="1212,200 1212,220 1195,230 1177,220 1177,200 1195,190" stroke="black" stroke-width="1" /><polygon fill="#FFFFFF" points="1212,260 1212,280 1195,290 1177,280 1177,260 1195,250" stroke="black" stroke-width="1" /><polygon fill="#FFFFFF" points="1212,320 1212,340 1195,350 1177,340 1177,320 1195,310" stroke="black" stroke-width="1" /><polygon fill="#FFFFFF" points="1212,380 1212,400 1195,410 1177,400 1177,380 1195,370" stroke="black" stroke-width="1" /><polygon fill="#FFFFFF" points="1212,440 1212,460 1195,470 1177,460 1177,440 1195,430" stroke="black" stroke-width="1" /><polygon fill="#FFFFFF" points="1212,500 1212,520 1195,530 1177,520 1177,500 1195,490" stroke="black" stroke-width="1" /><polygon fill="#FFFFFF" points="1212,560 1212,580 1195,590 1177,580 1177,560 1195,550" stroke="black" stroke-width="1" /><polygon fill="#FFFFFF" points="1212,620 1212,640 1195,650 1177,640 1177,620 1195,610" stroke="black" stroke-width="1" /><polygon fill="#FFFFFF" points="1212,680 1212,700 1195,710 1177,700 1177,680 1195,670" stroke="black" stroke-width="1" /><polygon fill="#FFFFFF" points="1212,860 1212,880 1195,890 1177,880 1177,860 1195,850" stroke="black" stroke-width="1" /><polygon fill="#FFFFFF" points="1229,170 1229,190 1212,200 1195,190 1195,170 1212,160" stroke="black" stroke-width="1" /><polygon fill="#FFFFFF" points="1229,230 1229,250 1212,260 1195,250 1195,230 1212,220" stroke="black" stroke-width="1" /><polygon fill="#FFFFFF" points="1229,290 1229,310 1212,320 1195,310 1195,290 1212,280" stroke="black" stroke-width="1" /><polygon fill="#FFFFFF" points="1229,350 1229,370 1212,380 1195,370 1195,350 1212,340" stroke="black" stroke-width="1" /><polygon fill="#FFFFFF" points="1229,410 1229,430 1212,440 1195,430 1195,410 1212,400" stroke="black" stroke-width="1" /><polygon fill="#FFFFFF" points="1229,470 1229,490 1212,500 1195,490 1195,470 1212,460" stroke="black" stroke-width="1" /><polygon fill="#FFFFFF" points="1229,530 1229,550 1212,560 1195,550 1195,530 1212,520" stroke="black" stroke-width="1" /><polygon fill="#FFFFFF" points="1229,590 1229,610 1212,620 1195,610 1195,590 1212,580" stroke="black" stroke-width="1" /><polygon fill="#FFFFFF" points="1229,650 1229,670 1212,680 1195,670 1195,650 1212,640" stroke="black" stroke-width="1" /><polygon fill="#FFFFFF" points="1229,890 1229,910 1212,920 1195,910 1195,890 1212,880" stroke="black" stroke-width="1" /><polygon fill="#FFFFFF" points="1247,140 1247,160 1229,170 1212,160 1212,140 1229,130" stroke="black" stroke-width="1" /><polygon fill="#FFFFFF" points="1247,200 1247,220 1229,230 1212,220 1212,200 1229,190" stroke="black" stroke-width="1" /><polygon fill="#FFFFFF" points="1247,260 1247,280 1229,290 1212,280 1212,260 1229,250" stroke="black" stroke-width="1" /><polygon fill="#FFFFFF" points="1247,320 1247,340 1229,350 1212,340 1212,320 1229,310" stroke="black" stroke-width="1" /><polygon fill="#FFFFFF" points="1247,380 1247,400 1229,410 1212,400 1212,380 1229,370" stroke="black" stroke-width="1" /><polygon fill="#FFFFFF" points="1247,440 1247,460 1229,470 1212,460 1212,440 1229,430" stroke="black" stroke-width="1" /><polygon fill="#FFFFFF" points="1247,500 1247,520 1229,530 1212,520 1212,500 1229,490" stroke="black" stroke-width="1" /><polygon fill="#FFFFFF" points="1247,560 1247,580 1229,590 1212,580 1212,560 1229,550" stroke="black" stroke-width="1" /><polygon fill="#FFFFFF" points="1247,620 1247,640 1229,650 1212,640 1212,620 1229,610" stroke="black" stroke-width="1" /><polygon fill="#FFFFFF" points="1247,680 1247,700 1229,710 1212,700 1212,680 1229,670" stroke="black" stroke-width="1" /><polygon fill="#FFFFFF" points="1247,860 1247,880 1229,890 1212,880 1212,860 1229,850" stroke="black" stroke-width="1" /><polygon fill="#FFFFFF" points="1264,110 1264,130 1247,140 1229,130 1229,110 1247,100" stroke="black" stroke-width="1" /><polygon fill="#FFFFFF" points="1264,170 1264,190 1247,200 1229,190 1229,170 1247,160" stroke="black" stroke-width="1" /><polygon fill="#FFFFFF" points="1264,230 1264,250 1247,260 1229,250 1229,230 1247,220" stroke="black" stroke-width="1" /><polygon fill="#FFFFFF" points="1264,290 1264,310 1247,320 1229,310 1229,290 1247,280" stroke="black" stroke-width="1" /><polygon fill="#FFFFFF" points="1264,350 1264,370 1247,380 1229,370 1229,350 1247,340" stroke="black" stroke-width="1" /><polygon fill="#FFFFFF" points="1264,410 1264,430 1247,440 1229,430 1229,410 1247,400" stroke="black" stroke-width="1" /><polygon fill="#FFFFFF" points="1264,470 1264,490 1247,500 1229,490 1229,470 1247,460" stroke="black" stroke-width="1" /><polygon fill="#FFFFFF" points="1264,530 1264,550 1247,560 1229,550 1229,530 1247,520" stroke="black" stroke-width="1" /><polygon fill="#FFFFFF" points="1264,590 1264,610 1247,620 1229,610 1229,590 1247,580" stroke="black" stroke-width="1" /><polygon fill="#FFFFFF" points="1264,650 1264,670 1247,680 1229,670 1229,650 1247,640" stroke="black" stroke-width="1" /><polygon fill="#FFFFFF" points="1264,890 1264,910 1247,920 1229,910 1229,890 1247,880" stroke="black" stroke-width="1" /><polygon fill="#FFFFFF" points="1281,140 1281,160 1264,170 1247,160 1247,140 1264,130" stroke="black" stroke-width="1" /><polygon fill="#FFFFFF" points="1281,200 1281,220 1264,230 1247,220 1247,200 1264,190" stroke="black" stroke-width="1" /><polygon fill="#FFFFFF" points="1281,260 1281,280 1264,290 1247,280 1247,260 1264,250" stroke="black" stroke-width="1" /><polygon fill="#FFFFFF" points="1281,320 1281,340 1264,350 1247,340 1247,320 1264,310" stroke="black" stroke-width="1" /><polygon fill="#FFFFFF" points="1281,380 1281,400 1264,410 1247,400 1247,380 1264,370" stroke="black" stroke-width="1" /><polygon fill="#FFFFFF" points="1281,440 1281,460 1264,470 1247,460 1247,440 1264,430" stroke="black" stroke-width="1" /><polygon fill="#FFFFFF" points="1281,500 1281,520 1264,530 1247,520 1247,500 1264,490" stroke="black" stroke-width="1" /><polygon fill="#FFFFFF" points="1281,560 1281,580 1264,590 1247,580 1247,560 1264,550" stroke="black" stroke-width="1" /><polygon fill="#FFFFFF" points="1281,620 1281,640 1264,650 1247,640 1247,620 1264,610" stroke="black" stroke-width="1" /><polygon fill="#FFFFFF" points="1281,680 1281,700 1264,710 1247,700 1247,680 1264,670" stroke="black" stroke-width="1" /><polygon fill="#FFFFFF" points="1281,860 1281,880 1264,890 1247,880 1247,860 1264,850" stroke="black" stroke-width="1" /><polygon fill="#FFFFFF" points="1299,170 1299,190 1281,200 1264,190 1264,170 1281,160" stroke="black" stroke-width="1" /><polygon fill="#FFFFFF" points="1299,230 1299,250 1281,260 1264,250 1264,230 1281,220" stroke="black" stroke-width="1" /><polygon fill="#FFFFFF" points="1299,290 1299,310 1281,320 1264,310 1264,290 1281,280" stroke="black" stroke-width="1" /><polygon fill="#FFFFFF" points="1299,350 1299,370 1281,380 1264,370 1264,350 1281,340" stroke="black" stroke-width="1" /><polygon fill="#FFFFFF" points="1299,410 1299,430 1281,440 1264,430 1264,410 1281,400" stroke="black" stroke-width="1" /><polygon fill="#FFFFFF" points="1299,470 1299,490 1281,500 1264,490 1264,470 1281,460" stroke="black" stroke-width="1" /><polygon fill="#FFFFFF" points="1299,530 1299,550 1281,560 1264,550 1264,530 1281,520" stroke="black" stroke-width="1" /><polygon fill="#FFFFFF" points="1299,590 1299,610 1281,620 1264,610 1264,590 1281,580" stroke="black" stroke-width="1" /><polygon fill="#FFFFFF" points="1299,650 1299,670 1281,680 1264,670 1264,650 1281,640" stroke="black" stroke-width="1" /><polygon fill="#FFFFFF" points="1299,710 1299,730 1281,740 1264,730 1264,710 1281,700" stroke="black" stroke-width="1" /><polygon fill="#FFFFFF" points="1299,890 1299,910 1281,920 1264,910 1264,890 1281,880" stroke="black" stroke-width="1" /><polygon fill="#FFFFFF" points="1316,200 1316,220 1299,230 1281,220 1281,200 1299,190" stroke="black" stroke-width="1" /><polygon fill="#FFFFFF" points="1316,260 1316,280 1299,290 1281,280 1281,260 1299,250" stroke="black" stroke-width="1" /><polygon fill="#FFFFFF" points="1316,320 1316,340 1299,350 1281,340 1281,320 1299,310" stroke="black" stroke-width="1" /><polygon fill="#FFFFFF" points="1316,380 1316,400 1299,410 1281,400 1281,380 1299,370" stroke="black" stroke-width="1" /><polygon fill="#FFFFFF" points="1316,440 1316,460 1299,470 1281,460 1281,440 1299,430" stroke="black" stroke-width="1" /><polygon fill="#FFFFFF" points="1316,500 1316,520 1299,530 1281,520 1281,500 1299,490" stroke="black" stroke-width="1" /><polygon fill="#FFFFFF" points="1316,560 1316,580 1299,590 1281,580 1281,560 1299,550" stroke="black" stroke-width="1" /><polygon fill="#FFFFFF" points="1316,620 1316,640 1299,650 1281,640 1281,620 1299,610" stroke="black" stroke-width="1" /><polygon fill="#FFFFFF" points="1316,680 1316,700 1299,710 1281,700 1281,680 1299,670" stroke="black" stroke-width="1" /><polygon fill="#FFFFFF" points="1316,860 1316,880 1299,890 1281,880 1281,860 1299,850" stroke="black" stroke-width="1" /><polygon fill="#FFFFFF" points="1333,230 1333,250 1316,260 1299,250 1299,230 1316,220" stroke="black" stroke-width="1" /><polygon fill="#FFFFFF" points="1333,290 1333,310 1316,320 1299,310 1299,290 1316,280" stroke="black" stroke-width="1" /><polygon fill="#FFFFFF" points="1333,350 1333,370 1316,380 1299,370 1299,350 1316,340" stroke="black" stroke-width="1" /><polygon fill="#FFFFFF" points="1333,410 1333,430 1316,440 1299,430 1299,410 1316,400" stroke="black" stroke-width="1" /><polygon fill="#FFFFFF" points="1333,470 1333,490 1316,500 1299,490 1299,470 1316,460" stroke="black" stroke-width="1" /><polygon fill="#FFFFFF" points="1333,530 1333,550 1316,560 1299,550 1299,530 1316,520" stroke="black" stroke-width="1" /><polygon fill="#FFFFFF" points="1333,590 1333,610 1316,620 1299,610 1299,590 1316,580" stroke="black" stroke-width="1" /><polygon fill="#FFFFFF" points="1333,650 1333,670 1316,680 1299,670 1299,650 1316,640" stroke="black" stroke-width="1" /><polygon fill="#FFFFFF" points="1333,710 1333,730 1316,740 1299,730 1299,710 1316,700" stroke="black" stroke-width="1" /><polygon fill="#FFFFFF" points="1333,890 1333,910 1316,920 1299,910 1299,890 1316,880" stroke="black" stroke-width="1" /><polygon fill="#FFFFFF" points="1350,260 1350,280 1333,290 1316,280 1316,260 1333,250" stroke="black" stroke-width="1" /><polygon fill="#FFFFFF" points="1350,320 1350,340 1333,350 1316,340 1316,320 1333,310" stroke="black" stroke-width="1" /><polygon fill="#FFFFFF" points="1350,380 1350,400 1333,410 1316,400 1316,380 1333,370" stroke="black" stroke-width="1" /><polygon fill="#FFFFFF" points="1350,440 1350,460 1333,470 1316,460 1316,440 1333,430" stroke="black" stroke-width="1" /><polygon fill="#FFFFFF" points="1350,500 1350,520 1333,530 1316,520 1316,500 1333,490" stroke="black" stroke-width="1" /><polygon fill="#FFFFFF" points="1350,560 1350,580 1333,590 1316,580 1316,560 1333,550" stroke="black" stroke-width="1" /><polygon fill="#FFFFFF" points="1350,620 1350,640 1333,650 1316,640 1316,620 1333,610" stroke="black" stroke-width="1" /><polygon fill="#FFFFFF" points="1350,680 1350,700 1333,710 1316,700 1316,680 1333,670" stroke="black" stroke-width="1" /><polygon fill="#FFFFFF" points="1350,860 1350,880 1333,890 1316,880 1316,860 1333,850" stroke="black" stroke-width="1" /><polygon fill="#FFFFFF" points="1368,230 1368,250 1350,260 1333,250 1333,230 1350,220" stroke="black" stroke-width="1" /><polygon fill="#FFFFFF" points="1368,290 1368,310 1350,320 1333,310 1333,290 1350,280" stroke="black" stroke-width="1" /><polygon fill="#FFFFFF" points="1368,350 1368,370 1350,380 1333,370 1333,350 1350,340" stroke="black" stroke-width="1" /><polygon fill="#FFFFFF" points="1368,410 1368,430 1350,440 1333,430 1333,410 1350,400" stroke="black" stroke-width="1" /><polygon fill="#FFFFFF" points="1368,470 1368,490 1350,500 1333,490 1333,470 1350,460" stroke="black" stroke-width="1" /><polygon fill="#FFFFFF" points="1368,530 1368,550 1350,560 1333,550 1333,530 1350,520" stroke="black" stroke-width="1" /><polygon fill="#FFFFFF" points="1368,590 1368,610 1350,620 1333,610 1333,590 1350,580" stroke="black" stroke-width="1" /><polygon fill="#FFFFFF" points="1368,650 1368,670 1350,680 1333,670 1333,650 1350,640" stroke="black" stroke-width="1" /><polygon fill="#FFFFFF" points="1368,710 1368,730 1350,740 1333,730 1333,710 1350,700" stroke="black" stroke-width="1" /><polygon fill="#FFFFFF" points="1385,260 1385,280 1368,290 1350,280 1350,260 1368,250" stroke="black" stroke-width="1" /><polygon fill="#FFFFFF" points="1385,320 1385,340 1368,350 1350,340 1350,320 1368,310" stroke="black" stroke-width="1" /><polygon fill="#FFFFFF" points="1385,380 1385,400 1368,410 1350,400 1350,380 1368,370" stroke="black" stroke-width="1" /><polygon fill="#FFFFFF" points="1385,440 1385,460 1368,470 1350,460 1350,440 1368,430" stroke="black" stroke-width="1" /><polygon fill="#FFFFFF" points="1385,500 1385,520 1368,530 1350,520 1350,500 1368,490" stroke="black" stroke-width="1" /><polygon fill="#FFFFFF" points="1385,560 1385,580 1368,590 1350,580 1350,560 1368,550" stroke="black" stroke-width="1" /><polygon fill="#FFFFFF" points="1385,620 1385,640 1368,650 1350,640 1350,620 1368,610" stroke="black" stroke-width="1" /><polygon fill="#FFFFFF" points="1385,680 1385,700 1368,710 1350,700 1350,680 1368,670" stroke="black" stroke-width="1" /><polygon fill="#FFFFFF" points="1402,290 1402,310 1385,320 1368,310 1368,290 1385,280" stroke="black" stroke-width="1" /><polygon fill="#FFFFFF" points="1402,350 1402,370 1385,380 1368,370 1368,350 1385,340" stroke="black" stroke-width="1" /><polygon fill="#FFFFFF" points="1402,410 1402,430 1385,440 1368,430 1368,410 1385,400" stroke="black" stroke-width="1" /><polygon fill="#FFFFFF" points="1402,470 1402,490 1385,500 1368,490 1368,470 1385,460" stroke="black" stroke-width="1" /><polygon fill="#FFFFFF" points="1402,530 1402,550 1385,560 1368,550 1368,530 1385,520" stroke="black" stroke-width="1" /><polygon fill="#FFFFFF" points="1402,590 1402,610 1385,620 1368,610 1368,590 1385,580" stroke="black" stroke-width="1" /><polygon fill="#FFFFFF" points="1402,650 1402,670 1385,680 1368,670 1368,650 1385,640" stroke="black" stroke-width="1" /><polygon fill="#FFFFFF" points="1402,710 1402,730 1385,740 1368,730 1368,710 1385,700" stroke="black" stroke-width="1" /><polygon fill="#FFFFFF" points="1420,260 1420,280 1402,290 1385,280 1385,260 1402,250" stroke="black" stroke-width="1" /><polygon fill="#FFFFFF" points="1420,320 1420,340 1402,350 1385,340 1385,320 1402,310" stroke="black" stroke-width="1" /><polygon fill="#FFFFFF" points="1420,380 1420,400 1402,410 1385,400 1385,380 1402,370" stroke="black" stroke-width="1" /><polygon fill="#FFFFFF" points="1420,440 1420,460 1402,470 1385,460 1385,440 1402,430" stroke="black" stroke-width="1" /><polygon fill="#FFFFFF" points="1420,500 1420,520 1402,530 1385,520 1385,500 1402,490" stroke="black" stroke-width="1" /><polygon fill="#FFFFFF" points="1420,560 1420,580 1402,590 1385,580 1385,560 1402,550" stroke="black" stroke-width="1" /><polygon fill="#FFFFFF" points="1420,620 1420,640 1402,650 1385,640 1385,620 1402,610" stroke="black" stroke-width="1" /><polygon fill="#FFFFFF" points="1420,680 1420,700 1402,710 1385,700 1385,680 1402,670" stroke="black" stroke-width="1" /><polygon fill="#FFFFFF" points="1437,290 1437,310 1420,320 1402,310 1402,290 1420,280" stroke="black" stroke-width="1" /><polygon fill="#FFFFFF" points="1437,350 1437,370 1420,380 1402,370 1402,350 1420,340" stroke="black" stroke-width="1" /><polygon fill="#FFFFFF" points="1437,410 1437,430 1420,440 1402,430 1402,410 1420,400" stroke="black" stroke-width="1" /><polygon fill="#FFFFFF" points="1437,470 1437,490 1420,500 1402,490 1402,470 1420,460" stroke="black" stroke-width="1" /><polygon fill="#FFFFFF" points="1437,530 1437,550 1420,560 1402,550 1402,530 1420,520" stroke="black" stroke-width="1" /><polygon fill="#FFFFFF" points="1437,590 1437,610 1420,620 1402,610 1402,590 1420,580" stroke="black" stroke-width="1" /><polygon fill="#FFFFFF" points="1437,650 1437,670 1420,680 1402,670 1402,650 1420,640" stroke="black" stroke-width="1" /><polygon fill="#FFFFFF" points="1437,710 1437,730 1420,740 1402,730 1402,710 1420,700" stroke="black" stroke-width="1" /><polygon fill="#FFFFFF" points="1454,260 1454,280 1437,290 1420,280 1420,260 1437,250" stroke="black" stroke-width="1" /><polygon fill="#FFFFFF" points="1454,320 1454,340 1437,350 1420,340 1420,320 1437,310" stroke="black" stroke-width="1" /><polygon fill="#FFFFFF" points="1454,380 1454,400 1437,410 1420,400 1420,380 1437,370" stroke="black" stroke-width="1" /><polygon fill="#FFFFFF" points="1454,440 1454,460 1437,470 1420,460 1420,440 1437,430" stroke="black" stroke-width="1" /><polygon fill="#FFFFFF" points="1454,500 1454,520 1437,530 1420,520 1420,500 1437,490" stroke="black" stroke-width="1" /><polygon fill="#FFFFFF" points="1454,560 1454,580 1437,590 1420,580 1420,560 1437,550" stroke="black" stroke-width="1" /><polygon fill="#FFFFFF" points="1454,620 1454,640 1437,650 1420,640 1420,620 1437,610" stroke="black" stroke-width="1" /><polygon fill="#FFFFFF" points="1454,680 1454,700 1437,710 1420,700 1420,680 1437,670" stroke="black" stroke-width="1" /><polygon fill="#FFFFFF" points="1472,290 1472,310 1454,320 1437,310 1437,290 1454,280" stroke="black" stroke-width="1" /><polygon fill="#FFFFFF" points="1472,350 1472,370 1454,380 1437,370 1437,350 1454,340" stroke="black" stroke-width="1" /><polygon fill="#FFFFFF" points="1472,410 1472,430 1454,440 1437,430 1437,410 1454,400" stroke="black" stroke-width="1" /><polygon fill="#FFFFFF" points="1472,470 1472,490 1454,500 1437,490 1437,470 1454,460" stroke="black" stroke-width="1" /><polygon fill="#FFFFFF" points="1472,530 1472,550 1454,560 1437,550 1437,530 1454,520" stroke="black" stroke-width="1" /><polygon fill="#FFFFFF" points="1472,590 1472,610 1454,620 1437,610 1437,590 1454,580" stroke="black" stroke-width="1" /><polygon fill="#FFFFFF" points="1472,650 1472,670 1454,680 1437,670 1437,650 1454,640" stroke="black" stroke-width="1" /><polygon fill="#FFFFFF" points="1472,710 1472,730 1454,740 1437,730 1437,710 1454,700" stroke="black" stroke-width="1" /><polygon fill="#FFFFFF" points="1489,260 1489,280 1472,290 1454,280 1454,260 1472,250" stroke="black" stroke-width="1" /><polygon fill="#FFFFFF" points="1489,320 1489,340 1472,350 1454,340 1454,320 1472,310" stroke="black" stroke-width="1" /><polygon fill="#FFFFFF" points="1489,380 1489,400 1472,410 1454,400 1454,380 1472,370" stroke="black" stroke-width="1" /><polygon fill="#FFFFFF" points="1489,440 1489,460 1472,470 1454,460 1454,440 1472,430" stroke="black" stroke-width="1" /><polygon fill="#FFFFFF" points="1489,500 1489,520 1472,530 1454,520 1454,500 1472,490" stroke="black" stroke-width="1" /><polygon fill="#FFFFFF" points="1489,560 1489,580 1472,590 1454,580 1454,560 1472,550" stroke="black" stroke-width="1" /><polygon fill="#FFFFFF" points="1489,620 1489,640 1472,650 1454,640 1454,620 1472,610" stroke="black" stroke-width="1" /><polygon fill="#FFFFFF" points="1489,680 1489,700 1472,710 1454,700 1454,680 1472,670" stroke="black" stroke-width="1" /><polygon fill="#FFFFFF" points="1506,290 1506,310 1489,320 1472,310 1472,290 1489,280" stroke="black" stroke-width="1" /><polygon fill="#FFFFFF" points="1506,350 1506,370 1489,380 1472,370 1472,350 1489,340" stroke="black" stroke-width="1" /><polygon fill="#FFFFFF" points="1506,410 1506,430 1489,440 1472,430 1472,410 1489,400" stroke="black" stroke-width="1" /><polygon fill="#FFFFFF" points="1506,470 1506,490 1489,500 1472,490 1472,470 1489,460" stroke="black" stroke-width="1" /><polygon fill="#FFFFFF" points="1506,530 1506,550 1489,560 1472,550 1472,530 1489,520" stroke="black" stroke-width="1" /><polygon fill="#FFFFFF" points="1506,590 1506,610 1489,620 1472,610 1472,590 1489,580" stroke="black" stroke-width="1" /><polygon fill="#FFFFFF" points="1506,650 1506,670 1489,680 1472,670 1472,650 1489,640" stroke="black" stroke-width="1" /><polygon fill="#FFFFFF" points="1506,710 1506,730 1489,740 1472,730 1472,710 1489,700" stroke="black" stroke-width="1" /><polygon fill="#FFFFFF" points="1524,260 1524,280 1506,290 1489,280 1489,260 1506,250" stroke="black" stroke-width="1" /><polygon fill="#FFFFFF" points="1524,320 1524,340 1506,350 1489,340 1489,320 1506,310" stroke="black" stroke-width="1" /><polygon fill="#FFFFFF" points="1524,380 1524,400 1506,410 1489,400 1489,380 1506,370" stroke="black" stroke-width="1" /><polygon fill="#FFFFFF" points="1524,440 1524,460 1506,470 1489,460 1489,440 1506,430" stroke="black" stroke-width="1" /><polygon fill="#FFFFFF" points="1524,500 1524,520 1506,530 1489,520 1489,500 1506,490" stroke="black" stroke-width="1" /><polygon fill="#FFFFFF" points="1524,560 1524,580 1506,590 1489,580 1489,560 1506,550" stroke="black" stroke-width="1" /><polygon fill="#FFFFFF" points="1524,620 1524,640 1506,650 1489,640 1489,620 1506,610" stroke="black" stroke-width="1" /><polygon fill="#FFFFFF" points="1524,680 1524,700 1506,710 1489,700 1489,680 1506,670" stroke="black" stroke-width="1" /><polygon fill="#FFFFFF" points="1541,230 1541,250 1524,260 1506,250 1506,230 1524,220" stroke="black" stroke-width="1" /><polygon fill="#FFFFFF" points="1541,290 1541,310 1524,320 1506,310 1506,290 1524,280" stroke="black" stroke-width="1" /><polygon fill="#FFFFFF" points="1541,350 1541,370 1524,380 1506,370 1506,350 1524,340" stroke="black" stroke-width="1" /><polygon fill="#FFFFFF" points="1541,410 1541,430 1524,440 1506,430 1506,410 1524,400" stroke="black" stroke-width="1" /><polygon fill="#FFFFFF" points="1541,470 1541,490 1524,500 1506,490 1506,470 1524,460" stroke="black" stroke-width="1" /><polygon fill="#FFFFFF" points="1541,530 1541,550 1524,560 1506,550 1506,530 1524,520" stroke="black" stroke-width="1" /><polygon fill="#FFFFFF" points="1541,590 1541,610 1524,620 1506,610 1506,590 1524,580" stroke="black" stroke-width="1" /><polygon fill="#FFFFFF" points="1541,650 1541,670 1524,680 1506,670 1506,650 1524,640" stroke="black" stroke-width="1" /><polygon fill="#FFFFFF" points="1541,710 1541,730 1524,740 1506,730 1506,710 1524,700" stroke="black" stroke-width="1" /><polygon fill="#FFFFFF" points="1558,260 1558,280 1541,290 1524,280 1524,260 1541,250" stroke="black" stroke-width="1" /><polygon fill="#FFFFFF" points="1558,320 1558,340 1541,350 1524,340 1524,320 1541,310" stroke="black" stroke-width="1" /><polygon fill="#FFFFFF" points="1558,380 1558,400 1541,410 1524,400 1524,380 1541,370" stroke="black" stroke-width="1" /><polygon fill="#FFFFFF" points="1558,440 1558,460 1541,470 1524,460 1524,440 1541,430" stroke="black" stroke-width="1" /><polygon fill="#FFFFFF" points="1558,500 1558,520 1541,530 1524,520 1524,500 1541,490" stroke="black" stroke-width="1" /><polygon fill="#FFFFFF" points="1558,560 1558,580 1541,590 1524,580 1524,560 1541,550" stroke="black" stroke-width="1" /><polygon fill="#FFFFFF" points="1558,620 1558,640 1541,650 1524,640 1524,620 1541,610" stroke="black" stroke-width="1" /><polygon fill="#FFFFFF" points="1558,680 1558,700 1541,710 1524,700 1524,680 1541,670" stroke="black" stroke-width="1" /><polygon fill="#FFFFFF" points="1576,230 1576,250 1558,260 1541,250 1541,230 1558,220" stroke="black" stroke-width="1" /><polygon fill="#FFFFFF" points="1576,290 1576,310 1558,320 1541,310 1541,290 1558,280" stroke="black" stroke-width="1" /><polygon fill="#FFFFFF" points="1576,350 1576,370 1558,380 1541,370 1541,350 1558,340" stroke="black" stroke-width="1" /><polygon fill="#FFFFFF" points="1576,410 1576,430 1558,440 1541,430 1541,410 1558,400" stroke="black" stroke-width="1" /><polygon fill="#FFFFFF" points="1576,470 1576,490 1558,500 1541,490 1541,470 1558,460" stroke="black" stroke-width="1" /><polygon fill="#FFFFFF" points="1576,530 1576,550 1558,560 1541,550 1541,530 1558,520" stroke="black" stroke-width="1" /><polygon fill="#FFFFFF" points="1576,590 1576,610 1558,620 1541,610 1541,590 1558,580" stroke="black" stroke-width="1" /><polygon fill="#FFFFFF" points="1576,650 1576,670 1558,680 1541,670 1541,650 1558,640" stroke="black" stroke-width="1" /><polygon fill="#FFFFFF" points="1576,710 1576,730 1558,740 1541,730 1541,710 1558,700" stroke="black" stroke-width="1" /><polygon fill="#FFFFFF" points="1593,200 1593,220 1576,230 1558,220 1558,200 1576,190" stroke="black" stroke-width="1" /><polygon fill="#FFFFFF" points="1593,260 1593,280 1576,290 1558,280 1558,260 1576,250" stroke="black" stroke-width="1" /><polygon fill="#FFFFFF" points="1593,320 1593,340 1576,350 1558,340 1558,320 1576,310" stroke="black" stroke-width="1" /><polygon fill="#FFFFFF" points="1593,380 1593,400 1576,410 1558,400 1558,380 1576,370" stroke="black" stroke-width="1" /><polygon fill="#FFFFFF" points="1593,440 1593,460 1576,470 1558,460 1558,440 1576,430" stroke="black" stroke-width="1" /><polygon fill="#FFFFFF" points="1593,500 1593,520 1576,530 1558,520 1558,500 1576,490" stroke="black" stroke-width="1" /><polygon fill="#FFFFFF" points="1593,560 1593,580 1576,590 1558,580 1558,560 1576,550" stroke="black" stroke-width="1" /><polygon fill="#FFFFFF" points="1593,620 1593,640 1576,650 1558,640 1558,620 1576,610" stroke="black" stroke-width="1" /><polygon fill="#FFFFFF" points="1593,680 1593,700 1576,710 1558,700 1558,680 1576,670" stroke="black" stroke-width="1" /><polygon fill="#FFFFFF" points="1610,170 1610,190 1593,200 1576,190 1576,170 1593,160" stroke="black" stroke-width="1" /><polygon fill="#FFFFFF" points="1610,230 1610,250 1593,260 1576,250 1576,230 1593,220" stroke="black" stroke-width="1" /><polygon fill="#FFFFFF" points="1610,290 1610,310 1593,320 1576,310 1576,290 1593,280" stroke="black" stroke-width="1" /><polygon fill="#FFFFFF" points="1610,350 1610,370 1593,380 1576,370 1576,350 1593,340" stroke="black" stroke-width="1" /><polygon fill="#FFFFFF" points="1610,410 1610,430 1593,440 1576,430 1576,410 1593,400" stroke="black" stroke-width="1" /><polygon fill="#FFFFFF" points="1610,470 1610,490 1593,500 1576,490 1576,470 1593,460" stroke="black" stroke-width="1" /><polygon fill="#FFFFFF" points="1610,530 1610,550 1593,560 1576,550 1576,530 1593,520" stroke="black" stroke-width="1" /><polygon fill="#FFFFFF" points="1610,590 1610,610 1593,620 1576,610 1576,590 1593,580" stroke="black" stroke-width="1" /><polygon fill="#FFFFFF" points="1610,650 1610,670 1593,680 1576,670 1576,650 1593,640" stroke="black" stroke-width="1" /><polygon fill="#FFFFFF" points="1610,710 1610,730 1593,740 1576,730 1576,710 1593,700" stroke="black" stroke-width="1" /><polygon fill="#FFFFFF" points="1628,140 1628,160 1610,170 1593,160 1593,140 1610,130" stroke="black" stroke-width="1" /><polygon fill="#FFFFFF" points="1628,200 1628,220 1610,230 1593,220 1593,200 1610,190" stroke="black" stroke-width="1" /><polygon fill="#FFFFFF" points="1628,260 1628,280 1610,290 1593,280 1593,260 1610,250" stroke="black" stroke-width="1" /><polygon fill="#FFFFFF" points="1628,320 1628,340 1610,350 1593,340 1593,320 1610,310" stroke="black" stroke-width="1" /><polygon fill="#FFFFFF" points="1628,380 1628,400 1610,410 1593,400 1593,380 1610,370" stroke="black" stroke-width="1" /><polygon fill="#FFFFFF" points="1628,440 1628,460 1610,470 1593,460 1593,440 1610,430" stroke="black" stroke-width="1" /><polygon fill="#FFFFFF" points="1628,500 1628,520 1610,530 1593,520 1593,500 1610,490" stroke="black" stroke-width="1" /><polygon fill="#FFFFFF" points="1628,560 1628,580 1610,590 1593,580 1593,560 1610,550" stroke="black" stroke-width="1" /><polygon fill="#FFFFFF" points="1628,620 1628,640 1610,650 1593,640 1593,620 1610,610" stroke="black" stroke-width="1" /><polygon fill="#FFFFFF" points="1628,680 1628,700 1610,710 1593,700 1593,680 1610,670" stroke="black" stroke-width="1" /><polygon fill="#FFFFFF" points="1645,110 1645,130 1628,140 1610,130 1610,110 1628,100" stroke="black" stroke-width="1" /><polygon fill="#FFFFFF" points="1645,170 1645,190 1628,200 1610,190 1610,170 1628,160" stroke="black" stroke-width="1" /><polygon fill="#FFFFFF" points="1645,230 1645,250 1628,260 1610,250 1610,230 1628,220" stroke="black" stroke-width="1" /><polygon fill="#FFFFFF" points="1645,290 1645,310 1628,320 1610,310 1610,290 1628,280" stroke="black" stroke-width="1" /><polygon fill="#FFFFFF" points="1645,350 1645,370 1628,380 1610,370 1610,350 1628,340" stroke="black" stroke-width="1" /><polygon fill="#FFFFFF" points="1645,410 1645,430 1628,440 1610,430 1610,410 1628,400" stroke="black" stroke-width="1" /><polygon fill="#FFFFFF" points="1645,470 1645,490 1628,500 1610,490 1610,470 1628,460" stroke="black" stroke-width="1" /><polygon fill="#FFFFFF" points="1645,530 1645,550 1628,560 1610,550 1610,530 1628,520" stroke="black" stroke-width="1" /><polygon fill="#FFFFFF" points="1645,590 1645,610 1628,620 1610,610 1610,590 1628,580" stroke="black" stroke-width="1" /><polygon fill="#FFFFFF" points="1645,650 1645,670 1628,680 1610,670 1610,650 1628,640" stroke="black" stroke-width="1" /><polygon fill="#FFFFFF" points="1662,140 1662,160 1645,170 1628,160 1628,140 1645,130" stroke="black" stroke-width="1" /><polygon fill="#FFFFFF" points="1662,200 1662,220 1645,230 1628,220 1628,200 1645,190" stroke="black" stroke-width="1" /><polygon fill="#FFFFFF" points="1662,260 1662,280 1645,290 1628,280 1628,260 1645,250" stroke="black" stroke-width="1" /><polygon fill="#FFFFFF" points="1662,320 1662,340 1645,350 1628,340 1628,320 1645,310" stroke="black" stroke-width="1" /><polygon fill="#FFFFFF" points="1662,380 1662,400 1645,410 1628,400 1628,380 1645,370" stroke="black" stroke-width="1" /><polygon fill="#FFFFFF" points="1662,440 1662,460 1645,470 1628,460 1628,440 1645,430" stroke="black" stroke-width="1" /><polygon fill="#FFFFFF" points="1662,500 1662,520 1645,530 1628,520 1628,500 1645,490" stroke="black" stroke-width="1" /><polygon fill="#FFFFFF" points="1662,560 1662,580 1645,590 1628,580 1628,560 1645,550" stroke="black" stroke-width="1" /><polygon fill="#FFFFFF" points="1662,620 1662,640 1645,650 1628,640 1628,620 1645,610" stroke="black" stroke-width="1" /><polygon fill="#FFFFFF" points="1662,680 1662,700 1645,710 1628,700 1628,680 1645,670" stroke="black" stroke-width="1" /><polygon fill="#FFFFFF" points="1680,170 1680,190 1662,200 1645,190 1645,170 1662,160" stroke="black" stroke-width="1" /><polygon fill="#FFFFFF" points="1680,230 1680,250 1662,260 1645,250 1645,230 1662,220" stroke="black" stroke-width="1" /><polygon fill="#FFFFFF" points="1680,290 1680,310 1662,320 1645,310 1645,290 1662,280" stroke="black" stroke-width="1" /><polygon fill="#FFFFFF" points="1680,350 1680,370 1662,380 1645,370 1645,350 1662,340" stroke="black" stroke-width="1" /><polygon fill="#FFFFFF" points="1680,410 1680,430 1662,440 1645,430 1645,410 1662,400" stroke="black" stroke-width="1" /><polygon fill="#FFFFFF" points="1680,470 1680,490 1662,500 1645,490 1645,470 1662,460" stroke="black" stroke-width="1" /><polygon fill="#FFFFFF" points="1680,530 1680,550 1662,560 1645,550 1645,530 1662,520" stroke="black" stroke-width="1" /><polygon fill="#FFFFFF" points="1680,590 1680,610 1662,620 1645,610 1645,590 1662,580" stroke="black" stroke-width="1" /><polygon fill="#FFFFFF" points="1680,650 1680,670 1662,680 1645,670 1645,650 1662,640" stroke="black" stroke-width="1" /><polygon fill="#FFFFFF" points="1697,140 1697,160 1680,170 1662,160 1662,140 1680,130" stroke="black" stroke-width="1" /><polygon fill="#FFFFFF" points="1697,200 1697,220 1680,230 1662,220 1662,200 1680,190" stroke="black" stroke-width="1" /><polygon fill="#FFFFFF" points="1697,260 1697,280 1680,290 1662,280 1662,260 1680,250" stroke="black" stroke-width="1" /><polygon fill="#FFFFFF" points="1697,320 1697,340 1680,350 1662,340 1662,320 1680,310" stroke="black" stroke-width="1" /><polygon fill="#FFFFFF" points="1697,380 1697,400 1680,410 1662,400 1662,380 1680,370" stroke="black" stroke-width="1" /><polygon fill="#FFFFFF" points="1697,440 1697,460 1680,470 1662,460 1662,440 1680,430" stroke="black" stroke-width="1" /><polygon fill="#FFFFFF" points="1697,500 1697,520 1680,530 1662,520 1662,500 1680,490" stroke="black" stroke-width="1" /><polygon fill="#FFFFFF" points="1697,560 1697,580 1680,590 1662,580 1662,560 1680,550" stroke="black" stroke-width="1" /><polygon fill="#FFFFFF" points="1697,620 1697,640 1680,650 1662,640 1662,620 1680,610" stroke="black" stroke-width="1" /><polygon fill="#FFFFFF" points="1697,680 1697,700 1680,710 1662,700 1662,680 1680,670" stroke="black" stroke-width="1" /><polygon fill="#FFFFFF" points="1714,170 1714,190 1697,200 1680,190 1680,170 1697,160" stroke="black" stroke-width="1" /><polygon fill="#FFFFFF" points="1714,230 1714,250 1697,260 1680,250 1680,230 1697,220" stroke="black" stroke-width="1" /><polygon fill="#FFFFFF" points="1714,290 1714,310 1697,320 1680,310 1680,290 1697,280" stroke="black" stroke-width="1" /><polygon fill="#FFFFFF" points="1714,350 1714,370 1697,380 1680,370 1680,350 1697,340" stroke="black" stroke-width="1" /><polygon fill="#FFFFFF" points="1714,410 1714,430 1697,440 1680,430 1680,410 1697,400" stroke="black" stroke-width="1" /><polygon fill="#FFFFFF" points="1714,470 1714,490 1697,500 1680,490 1680,470 1697,460" stroke="black" stroke-width="1" /><polygon fill="#FFFFFF" points="1714,530 1714,550 1697,560 1680,550 1680,530 1697,520" stroke="black" stroke-width="1" /><polygon fill="#FFFFFF" points="1714,590 1714,610 1697,620 1680,610 1680,590 1697,580" stroke="black" stroke-width="1" /><polygon fill="#FFFFFF" points="1714,650 1714,670 1697,680 1680,670 1680,650 1697,640" stroke="black" stroke-width="1" /><polygon fill="#FFFFFF" points="1732,200 1732,220 1714,230 1697,220 1697,200 1714,190" stroke="black" stroke-width="1" /><polygon fill="#FFFFFF" points="1732,260 1732,280 1714,290 1697,280 1697,260 1714,250" stroke="black" stroke-width="1" /><polygon fill="#FFFFFF" points="1732,320 1732,340 1714,350 1697,340 1697,320 1714,310" stroke="black" stroke-width="1" /><polygon fill="#FFFFFF" points="1732,380 1732,400 1714,410 1697,400 1697,380 1714,370" stroke="black" stroke-width="1" /><polygon fill="#FFFFFF" points="1732,440 1732,460 1714,470 1697,460 1697,440 1714,430" stroke="black" stroke-width="1" /><polygon fill="#FFFFFF" points="1732,500 1732,520 1714,530 1697,520 1697,500 1714,490" stroke="black" stroke-width="1" /><polygon fill="#FFFFFF" points="1732,560 1732,580 1714,590 1697,580 1697,560 1714,550" stroke="black" stroke-width="1" /><polygon fill="#FFFFFF" points="1732,620 1732,640 1714,650 1697,640 1697,620 1714,610" stroke="black" stroke-width="1" /><polygon fill="#FFFFFF" points="1749,170 1749,190 1732,200 1714,190 1714,170 1732,160" stroke="black" stroke-width="1" /><polygon fill="#FFFFFF" points="1749,230 1749,250 1732,260 1714,250 1714,230 1732,220" stroke="black" stroke-width="1" /><polygon fill="#FFFFFF" points="1749,290 1749,310 1732,320 1714,310 1714,290 1732,280" stroke="black" stroke-width="1" /><polygon fill="#FFFFFF" points="1749,350 1749,370 1732,380 1714,370 1714,350 1732,340" stroke="black" stroke-width="1" /><polygon fill="#FFFFFF" points="1749,410 1749,430 1732,440 1714,430 1714,410 1732,400" stroke="black" stroke-width="1" /><polygon fill="#FFFFFF" points="1749,470 1749,490 1732,500 1714,490 1714,470 1732,460" stroke="black" stroke-width="1" /><polygon fill="#FFFFFF" points="1749,530 1749,550 1732,560 1714,550 1714,530 1732,520" stroke="black" stroke-width="1" /><polygon fill="#FFFFFF" points="1749,590 1749,610 1732,620 1714,610 1714,590 1732,580" stroke="black" stroke-width="1" /><polygon fill="#FFFFFF" points="1749,650 1749,670 1732,680 1714,670 1714,650 1732,640" stroke="black" stroke-width="1" /><polygon fill="#FFFFFF" points="1766,200 1766,220 1749,230 1732,220 1732,200 1749,190" stroke="black" stroke-width="1" /><polygon fill="#FFFFFF" points="1766,260 1766,280 1749,290 1732,280 1732,260 1749,250" stroke="black" stroke-width="1" /><polygon fill="#FFFFFF" points="1766,320 1766,340 1749,350 1732,340 1732,320 1749,310" stroke="black" stroke-width="1" /><polygon fill="#FFFFFF" points="1766,380 1766,400 1749,410 1732,400 1732,380 1749,370" stroke="black" stroke-width="1" /><polygon fill="#FFFFFF" points="1766,440 1766,460 1749,470 1732,460 1732,440 1749,430" stroke="black" stroke-width="1" /><polygon fill="#FFFFFF" points="1766,500 1766,520 1749,530 1732,520 1732,500 1749,490" stroke="black" stroke-width="1" /><polygon fill="#FFFFFF" points="1766,560 1766,580 1749,590 1732,580 1732,560 1749,550" stroke="black" stroke-width="1" /><polygon fill="#FFFFFF" points="1766,620 1766,640 1749,650 1732,640 1732,620 1749,610" stroke="black" stroke-width="1" /><polygon fill="#FFFFFF" points="1784,170 1784,190 1766,200 1749,190 1749,170 1766,160" stroke="black" stroke-width="1" /><polygon fill="#FFFFFF" points="1784,230 1784,250 1766,260 1749,250 1749,230 1766,220" stroke="black" stroke-width="1" /><polygon fill="#FFFFFF" points="1784,290 1784,310 1766,320 1749,310 1749,290 1766,280" stroke="black" stroke-width="1" /><polygon fill="#FFFFFF" points="1784,350 1784,370 1766,380 1749,370 1749,350 1766,340" stroke="black" stroke-width="1" /><polygon fill="#FFFFFF" points="1784,410 1784,430 1766,440 1749,430 1749,410 1766,400" stroke="black" stroke-width="1" /><polygon fill="#FFFFFF" points="1784,470 1784,490 1766,500 1749,490 1749,470 1766,460" stroke="black" stroke-width="1" /><polygon fill="#FFFFFF" points="1784,530 1784,550 1766,560 1749,550 1749,530 1766,520" stroke="black" stroke-width="1" /><polygon fill="#FFFFFF" points="1784,590 1784,610 1766,620 1749,610 1749,590 1766,580" stroke="black" stroke-width="1" /><polygon fill="#FFFFFF" points="1801,200 1801,220 1784,230 1766,220 1766,200 1784,190" stroke="black" stroke-width="1" /><polygon fill="#FFFFFF" points="1801,260 1801,280 1784,290 1766,280 1766,260 1784,250" stroke="black" stroke-width="1" /><polygon fill="#FFFFFF" points="1801,320 1801,340 1784,350 1766,340 1766,320 1784,310" stroke="black" stroke-width="1" /><polygon fill="#FFFFFF" points="1801,380 1801,400 1784,410 1766,400 1766,380 1784,370" stroke="black" stroke-width="1" /><polygon fill="#FFFFFF" points="1801,440 1801,460 1784,470 1766,460 1766,440 1784,430" stroke="black" stroke-width="1" /><polygon fill="#FFFFFF" points="1801,500 1801,520 1784,530 1766,520 1766,500 1784,490" stroke="black" stroke-width="1" /><polygon fill="#FFFFFF" points="1801,560 1801,580 1784,590 1766,580 1766,560 1784,550" stroke="black" stroke-width="1" /><polygon fill="#FFFFFF" points="1801,620 1801,640 1784,650 1766,640 1766,620 1784,610" stroke="black" stroke-width="1" /><polygon fill="#FFFFFF" points="1818,230 1818,250 1801,260 1784,250 1784,230 1801,220" stroke="black" stroke-width="1" /><polygon fill="#FFFFFF" points="1818,290 1818,310 1801,320 1784,310 1784,290 1801,280" stroke="black" stroke-width="1" /><polygon fill="#FFFFFF" points="1818,350 1818,370 1801,380 1784,370 1784,350 1801,340" stroke="black" stroke-width="1" /><polygon fill="#FFFFFF" points="1818,410 1818,430 1801,440 1784,430 1784,410 1801,400" stroke="black" stroke-width="1" /><polygon fill="#FFFFFF" points="1818,470 1818,490 1801,500 1784,490 1784,470 1801,460" stroke="black" stroke-width="1" /><polygon fill="#FFFFFF" points="1818,530 1818,550 1801,560 1784,550 1784,530 1801,520" stroke="black" stroke-width="1" /><polygon fill="#FFFFFF" points="1818,590 1818,610 1801,620 1784,610 1784,590 1801,580" stroke="black" stroke-width="1" /><polygon fill="#FFFFFF" points="1835,200 1835,220 1818,230 1801,220 1801,200 1818,190" stroke="black" stroke-width="1" /><polygon fill="#FFFFFF" points="1835,260 1835,280 1818,290 1801,280 1801,260 1818,250" stroke="black" stroke-width="1" /><polygon fill="#FFFFFF" points="1835,320 1835,340 1818,350 1801,340 1801,320 1818,310" stroke="black" stroke-width="1" /><polygon fill="#FFFFFF" points="1835,380 1835,400 1818,410 1801,400 1801,380 1818,370" stroke="black" stroke-width="1" /><polygon fill="#FFFFFF" points="1835,440 1835,460 1818,470 1801,460 1801,440 1818,430" stroke="black" stroke-width="1" /><polygon fill="#FFFFFF" points="1835,500 1835,520 1818,530 1801,520 1801,500 1818,490" stroke="black" stroke-width="1" /><polygon fill="#FFFFFF" points="1835,560 1835,580 1818,590 1801,580 1801,560 1818,550" stroke="black" stroke-width="1" /><polygon fill="#FFFFFF" points="1853,230 1853,250 1835,260 1818,250 1818,230 1835,220" stroke="black" stroke-width="1" /><polygon fill="#FFFFFF" points="1853,290 1853,310 1835,320 1818,310 1818,290 1835,280" stroke="black" stroke-width="1" /><polygon fill="#FFFFFF" points="1853,350 1853,370 1835,380 1818,370 1818,350 1835,340" stroke="black" stroke-width="1" /><polygon fill="#FFFFFF" points="1853,410 1853,430 1835,440 1818,430 1818,410 1835,400" stroke="black" stroke-width="1" /><polygon fill="#FFFFFF" points="1853,470 1853,490 1835,500 1818,490 1818,470 1835,460" stroke="black" stroke-width="1" /><polygon fill="#FFFFFF" points="1853,530 1853,550 1835,560 1818,550 1818,530 1835,520" stroke="black" stroke-width="1" /><polygon fill="#FFFFFF" points="1870,260 1870,280 1853,290 1835,280 1835,260 1853,250" stroke="black" stroke-width="1" /><polygon fill="#FFFFFF" points="1870,320 1870,340 1853,350 1835,340 1835,320 1853,310" stroke="black" stroke-width="1" /><polygon fill="#FFFFFF" points="1870,380 1870,400 1853,410 1835,400 1835,380 1853,370" stroke="black" stroke-width="1" /><polygon fill="#FFFFFF" points="1870,440 1870,460 1853,470 1835,460 1835,440 1853,430" stroke="black" stroke-width="1" /><polygon fill="#FFFFFF" points="1870,500 1870,520 1853,530 1835,520 1835,500 1853,490" stroke="black" stroke-width="1" /><polygon fill="#FFFFFF" points="1870,560 1870,580 1853,590 1835,580 1835,560 1853,550" stroke="black" stroke-width="1" /><polygon fill="#FFFFFF" points="1887,230 1887,250 1870,260 1853,250 1853,230 1870,220" stroke="black" stroke-width="1" /><polygon fill="#FFFFFF" points="1887,290 1887,310 1870,320 1853,310 1853,290 1870,280" stroke="black" stroke-width="1" /><polygon fill="#FFFFFF" points="1887,350 1887,370 1870,380 1853,370 1853,350 1870,340" stroke="black" stroke-width="1" /><polygon fill="#FFFFFF" points="1887,410 1887,430 1870,440 1853,430 1853,410 1870,400" stroke="black" stroke-width="1" /><polygon fill="#FFFFFF" points="1887,470 1887,490 1870,500 1853,490 1853,470 1870,460" stroke="black" stroke-width="1" /><polygon fill="#FFFFFF" points="1887,530 1887,550 1870,560 1853,550 1853,530 1870,520" stroke="black" stroke-width="1" /><polygon fill="#FFFFFF" points="1905,260 1905,280 1887,290 1870,280 1870,260 1887,250" stroke="black" stroke-width="1" /><polygon fill="#FFFFFF" points="1905,320 1905,340 1887,350 1870,340 1870,320 1887,310" stroke="black" stroke-width="1" /><polygon fill="#FFFFFF" points="1905,380 1905,400 1887,410 1870,400 1870,380 1887,370" stroke="black" stroke-width="1" /><polygon fill="#FFFFFF" points="1905,440 1905,460 1887,470 1870,460 1870,440 1887,430" stroke="black" stroke-width="1" /><polygon fill="#FFFFFF" points="1905,500 1905,520 1887,530 1870,520 1870,500 1887,490" stroke="black" stroke-width="1" /><polygon fill="#FFFFFF" points="1922,230 1922,250 1905,260 1887,250 1887,230 1905,220" stroke="black" stroke-width="1" /><polygon fill="#FFFFFF" points="1922,290 1922,310 1905,320 1887,310 1887,290 1905,280" stroke="black" stroke-width="1" /><polygon fill="#FFFFFF" points="1922,350 1922,370 1905,380 1887,370 1887,350 1905,340" stroke="black" stroke-width="1" /><polygon fill="#FFFFFF" points="1922,410 1922,430 1905,440 1887,430 1887,410 1905,400" stroke="black" stroke-width="1" /><polygon fill="#FFFFFF" points="1922,470 1922,490 1905,500 1887,490 1887,470 1905,460" stroke="black" stroke-width="1" /><polygon fill="#FFFFFF" points="1939,260 1939,280 1922,290 1905,280 1905,260 1922,250" stroke="black" stroke-width="1" /><polygon fill="#FFFFFF" points="1939,320 1939,340 1922,350 1905,340 1905,320 1922,310" stroke="black" stroke-width="1" /><polygon fill="#FFFFFF" points="1939,380 1939,400 1922,410 1905,400 1905,380 1922,370" stroke="black" stroke-width="1" /><polygon fill="#FFFFFF" points="1939,440 1939,460 1922,470 1905,460 1905,440 1922,430" stroke="black" stroke-width="1" /><polygon fill="#FFFFFF" points="1939,500 1939,520 1922,530 1905,520 1905,500 1922,490" stroke="black" stroke-width="1" /><polygon fill="#FFFFFF" points="1957,290 1957,310 1939,320 1922,310 1922,290 1939,280" stroke="black" stroke-width="1" /><polygon fill="#FFFFFF" points="1957,350 1957,370 1939,380 1922,370 1922,350 1939,340" stroke="black" stroke-width="1" /><polygon fill="#FFFFFF" points="1957,410 1957,430 1939,440 1922,430 1922,410 1939,400" stroke="black" stroke-width="1" /><polygon fill="#FFFFFF" points="1957,470 1957,490 1939,500 1922,490 1922,470 1939,460" stroke="black" stroke-width="1" /><polygon fill="#FFFFFF" points="1974,260 1974,280 1957,290 1939,280 1939,260 1957,250" stroke="black" stroke-width="1" /><polygon fill="#FFFFFF" points="1974,320 1974,340 1957,350 1939,340 1939,320 1957,310" stroke="black" stroke-width="1" /><polygon fill="#FFFFFF" points="1974,380 1974,400 1957,410 1939,400 1939,380 1957,370" stroke="black" stroke-width="1" /><polygon fill="#FFFFFF" points="1974,440 1974,460 1957,470 1939,460 1939,440 1957,430" stroke="black" stroke-width="1" /><polygon fill="#FFFFFF" points="1991,290 1991,310 1974,320 1957,310 1957,290 1974,280" stroke="black" stroke-width="1" /><polygon fill="#FFFFFF" points="1991,350 1991,370 1974,380 1957,370 1957,350 1974,340" stroke="black" stroke-width="1" /><polygon fill="#FFFFFF" points="1991,410 1991,430 1974,440 1957,430 1957,410 1974,400" stroke="black" stroke-width="1" /><polygon fill="#FFFFFF" points="2009,320 2009,340 1991,350 1974,340 1974,320 1991,310" stroke="black" stroke-width="1" /><polygon fill="#FFFFFF" points="2009,380 2009,400 1991,410 1974,400 1974,380 1991,370" stroke="black" stroke-width="1" /><polygon fill="#FFFFFF" points="2026,290 2026,310 2009,320 1991,310 1991,290 2009,280" stroke="black" stroke-width="1" /><polygon fill="#FFFFFF" points="2026,350 2026,370 2009,380 1991,370 1991,350 2009,340" stroke="black" stroke-width="1" /><polygon fill="#FFFFFF" points="2043,320 2043,340 2026,350 2009,340 2009,320 2026,310" stroke="black" stroke-width="1" /></svg>